%TF.GenerationSoftware,KiCad,Pcbnew,7.0.9*%
%TF.CreationDate,2023-11-28T22:12:24-05:00*%
%TF.ProjectId,h,682e6b69-6361-4645-9f70-636258585858,rev?*%
%TF.SameCoordinates,Original*%
%TF.FileFunction,Legend,Top*%
%TF.FilePolarity,Positive*%
%FSLAX46Y46*%
G04 Gerber Fmt 4.6, Leading zero omitted, Abs format (unit mm)*
G04 Created by KiCad (PCBNEW 7.0.9) date 2023-11-28 22:12:24*
%MOMM*%
%LPD*%
G01*
G04 APERTURE LIST*
%ADD10C,0.150000*%
%ADD11C,0.120000*%
%ADD12C,0.127000*%
%ADD13C,0.200000*%
%TA.AperFunction,ComponentPad*%
%ADD14O,1.850000X3.048000*%
%TD*%
%TA.AperFunction,ComponentPad*%
%ADD15C,2.400000*%
%TD*%
%TA.AperFunction,ComponentPad*%
%ADD16O,2.400000X2.400000*%
%TD*%
%TA.AperFunction,ComponentPad*%
%ADD17C,2.000000*%
%TD*%
%TA.AperFunction,ComponentPad*%
%ADD18R,2.000000X2.000000*%
%TD*%
%TA.AperFunction,ComponentPad*%
%ADD19O,1.200000X1.200000*%
%TD*%
%TA.AperFunction,ComponentPad*%
%ADD20O,1.600000X1.200000*%
%TD*%
%TA.AperFunction,ComponentPad*%
%ADD21O,1.700000X1.700000*%
%TD*%
%TA.AperFunction,ComponentPad*%
%ADD22R,1.700000X1.700000*%
%TD*%
%TA.AperFunction,Conductor*%
%ADD23C,0.300000*%
%TD*%
G04 APERTURE END LIST*
D10*
X119367200Y-116633332D02*
X119414819Y-116490475D01*
X119414819Y-116490475D02*
X119414819Y-116252380D01*
X119414819Y-116252380D02*
X119367200Y-116157142D01*
X119367200Y-116157142D02*
X119319580Y-116109523D01*
X119319580Y-116109523D02*
X119224342Y-116061904D01*
X119224342Y-116061904D02*
X119129104Y-116061904D01*
X119129104Y-116061904D02*
X119033866Y-116109523D01*
X119033866Y-116109523D02*
X118986247Y-116157142D01*
X118986247Y-116157142D02*
X118938628Y-116252380D01*
X118938628Y-116252380D02*
X118891009Y-116442856D01*
X118891009Y-116442856D02*
X118843390Y-116538094D01*
X118843390Y-116538094D02*
X118795771Y-116585713D01*
X118795771Y-116585713D02*
X118700533Y-116633332D01*
X118700533Y-116633332D02*
X118605295Y-116633332D01*
X118605295Y-116633332D02*
X118510057Y-116585713D01*
X118510057Y-116585713D02*
X118462438Y-116538094D01*
X118462438Y-116538094D02*
X118414819Y-116442856D01*
X118414819Y-116442856D02*
X118414819Y-116204761D01*
X118414819Y-116204761D02*
X118462438Y-116061904D01*
X118414819Y-115728570D02*
X119414819Y-115490475D01*
X119414819Y-115490475D02*
X118700533Y-115299999D01*
X118700533Y-115299999D02*
X119414819Y-115109523D01*
X119414819Y-115109523D02*
X118414819Y-114871428D01*
X119414819Y-113966666D02*
X119414819Y-114538094D01*
X119414819Y-114252380D02*
X118414819Y-114252380D01*
X118414819Y-114252380D02*
X118557676Y-114347618D01*
X118557676Y-114347618D02*
X118652914Y-114442856D01*
X118652914Y-114442856D02*
X118700533Y-114538094D01*
X110323333Y-107514819D02*
X109990000Y-107038628D01*
X109751905Y-107514819D02*
X109751905Y-106514819D01*
X109751905Y-106514819D02*
X110132857Y-106514819D01*
X110132857Y-106514819D02*
X110228095Y-106562438D01*
X110228095Y-106562438D02*
X110275714Y-106610057D01*
X110275714Y-106610057D02*
X110323333Y-106705295D01*
X110323333Y-106705295D02*
X110323333Y-106848152D01*
X110323333Y-106848152D02*
X110275714Y-106943390D01*
X110275714Y-106943390D02*
X110228095Y-106991009D01*
X110228095Y-106991009D02*
X110132857Y-107038628D01*
X110132857Y-107038628D02*
X109751905Y-107038628D01*
X110704286Y-106610057D02*
X110751905Y-106562438D01*
X110751905Y-106562438D02*
X110847143Y-106514819D01*
X110847143Y-106514819D02*
X111085238Y-106514819D01*
X111085238Y-106514819D02*
X111180476Y-106562438D01*
X111180476Y-106562438D02*
X111228095Y-106610057D01*
X111228095Y-106610057D02*
X111275714Y-106705295D01*
X111275714Y-106705295D02*
X111275714Y-106800533D01*
X111275714Y-106800533D02*
X111228095Y-106943390D01*
X111228095Y-106943390D02*
X110656667Y-107514819D01*
X110656667Y-107514819D02*
X111275714Y-107514819D01*
X104174819Y-98476904D02*
X104984342Y-98476904D01*
X104984342Y-98476904D02*
X105079580Y-98429285D01*
X105079580Y-98429285D02*
X105127200Y-98381666D01*
X105127200Y-98381666D02*
X105174819Y-98286428D01*
X105174819Y-98286428D02*
X105174819Y-98095952D01*
X105174819Y-98095952D02*
X105127200Y-98000714D01*
X105127200Y-98000714D02*
X105079580Y-97953095D01*
X105079580Y-97953095D02*
X104984342Y-97905476D01*
X104984342Y-97905476D02*
X104174819Y-97905476D01*
X105174819Y-96905476D02*
X105174819Y-97476904D01*
X105174819Y-97191190D02*
X104174819Y-97191190D01*
X104174819Y-97191190D02*
X104317676Y-97286428D01*
X104317676Y-97286428D02*
X104412914Y-97381666D01*
X104412914Y-97381666D02*
X104460533Y-97476904D01*
X150492200Y-116973332D02*
X150539819Y-116830475D01*
X150539819Y-116830475D02*
X150539819Y-116592380D01*
X150539819Y-116592380D02*
X150492200Y-116497142D01*
X150492200Y-116497142D02*
X150444580Y-116449523D01*
X150444580Y-116449523D02*
X150349342Y-116401904D01*
X150349342Y-116401904D02*
X150254104Y-116401904D01*
X150254104Y-116401904D02*
X150158866Y-116449523D01*
X150158866Y-116449523D02*
X150111247Y-116497142D01*
X150111247Y-116497142D02*
X150063628Y-116592380D01*
X150063628Y-116592380D02*
X150016009Y-116782856D01*
X150016009Y-116782856D02*
X149968390Y-116878094D01*
X149968390Y-116878094D02*
X149920771Y-116925713D01*
X149920771Y-116925713D02*
X149825533Y-116973332D01*
X149825533Y-116973332D02*
X149730295Y-116973332D01*
X149730295Y-116973332D02*
X149635057Y-116925713D01*
X149635057Y-116925713D02*
X149587438Y-116878094D01*
X149587438Y-116878094D02*
X149539819Y-116782856D01*
X149539819Y-116782856D02*
X149539819Y-116544761D01*
X149539819Y-116544761D02*
X149587438Y-116401904D01*
X149539819Y-116068570D02*
X150539819Y-115830475D01*
X150539819Y-115830475D02*
X149825533Y-115639999D01*
X149825533Y-115639999D02*
X150539819Y-115449523D01*
X150539819Y-115449523D02*
X149539819Y-115211428D01*
X149873152Y-114401904D02*
X150539819Y-114401904D01*
X149492200Y-114639999D02*
X150206485Y-114878094D01*
X150206485Y-114878094D02*
X150206485Y-114259047D01*
X135252200Y-116973332D02*
X135299819Y-116830475D01*
X135299819Y-116830475D02*
X135299819Y-116592380D01*
X135299819Y-116592380D02*
X135252200Y-116497142D01*
X135252200Y-116497142D02*
X135204580Y-116449523D01*
X135204580Y-116449523D02*
X135109342Y-116401904D01*
X135109342Y-116401904D02*
X135014104Y-116401904D01*
X135014104Y-116401904D02*
X134918866Y-116449523D01*
X134918866Y-116449523D02*
X134871247Y-116497142D01*
X134871247Y-116497142D02*
X134823628Y-116592380D01*
X134823628Y-116592380D02*
X134776009Y-116782856D01*
X134776009Y-116782856D02*
X134728390Y-116878094D01*
X134728390Y-116878094D02*
X134680771Y-116925713D01*
X134680771Y-116925713D02*
X134585533Y-116973332D01*
X134585533Y-116973332D02*
X134490295Y-116973332D01*
X134490295Y-116973332D02*
X134395057Y-116925713D01*
X134395057Y-116925713D02*
X134347438Y-116878094D01*
X134347438Y-116878094D02*
X134299819Y-116782856D01*
X134299819Y-116782856D02*
X134299819Y-116544761D01*
X134299819Y-116544761D02*
X134347438Y-116401904D01*
X134299819Y-116068570D02*
X135299819Y-115830475D01*
X135299819Y-115830475D02*
X134585533Y-115639999D01*
X134585533Y-115639999D02*
X135299819Y-115449523D01*
X135299819Y-115449523D02*
X134299819Y-115211428D01*
X134299819Y-114925713D02*
X134299819Y-114306666D01*
X134299819Y-114306666D02*
X134680771Y-114639999D01*
X134680771Y-114639999D02*
X134680771Y-114497142D01*
X134680771Y-114497142D02*
X134728390Y-114401904D01*
X134728390Y-114401904D02*
X134776009Y-114354285D01*
X134776009Y-114354285D02*
X134871247Y-114306666D01*
X134871247Y-114306666D02*
X135109342Y-114306666D01*
X135109342Y-114306666D02*
X135204580Y-114354285D01*
X135204580Y-114354285D02*
X135252200Y-114401904D01*
X135252200Y-114401904D02*
X135299819Y-114497142D01*
X135299819Y-114497142D02*
X135299819Y-114782856D01*
X135299819Y-114782856D02*
X135252200Y-114878094D01*
X135252200Y-114878094D02*
X135204580Y-114925713D01*
X134607200Y-116633332D02*
X134654819Y-116490475D01*
X134654819Y-116490475D02*
X134654819Y-116252380D01*
X134654819Y-116252380D02*
X134607200Y-116157142D01*
X134607200Y-116157142D02*
X134559580Y-116109523D01*
X134559580Y-116109523D02*
X134464342Y-116061904D01*
X134464342Y-116061904D02*
X134369104Y-116061904D01*
X134369104Y-116061904D02*
X134273866Y-116109523D01*
X134273866Y-116109523D02*
X134226247Y-116157142D01*
X134226247Y-116157142D02*
X134178628Y-116252380D01*
X134178628Y-116252380D02*
X134131009Y-116442856D01*
X134131009Y-116442856D02*
X134083390Y-116538094D01*
X134083390Y-116538094D02*
X134035771Y-116585713D01*
X134035771Y-116585713D02*
X133940533Y-116633332D01*
X133940533Y-116633332D02*
X133845295Y-116633332D01*
X133845295Y-116633332D02*
X133750057Y-116585713D01*
X133750057Y-116585713D02*
X133702438Y-116538094D01*
X133702438Y-116538094D02*
X133654819Y-116442856D01*
X133654819Y-116442856D02*
X133654819Y-116204761D01*
X133654819Y-116204761D02*
X133702438Y-116061904D01*
X133654819Y-115728570D02*
X134654819Y-115490475D01*
X134654819Y-115490475D02*
X133940533Y-115299999D01*
X133940533Y-115299999D02*
X134654819Y-115109523D01*
X134654819Y-115109523D02*
X133654819Y-114871428D01*
X133750057Y-114538094D02*
X133702438Y-114490475D01*
X133702438Y-114490475D02*
X133654819Y-114395237D01*
X133654819Y-114395237D02*
X133654819Y-114157142D01*
X133654819Y-114157142D02*
X133702438Y-114061904D01*
X133702438Y-114061904D02*
X133750057Y-114014285D01*
X133750057Y-114014285D02*
X133845295Y-113966666D01*
X133845295Y-113966666D02*
X133940533Y-113966666D01*
X133940533Y-113966666D02*
X134083390Y-114014285D01*
X134083390Y-114014285D02*
X134654819Y-114585713D01*
X134654819Y-114585713D02*
X134654819Y-113966666D01*
X119009761Y-58230057D02*
X118914523Y-58182438D01*
X118914523Y-58182438D02*
X118819285Y-58087200D01*
X118819285Y-58087200D02*
X118676428Y-57944342D01*
X118676428Y-57944342D02*
X118581190Y-57896723D01*
X118581190Y-57896723D02*
X118485952Y-57896723D01*
X118533571Y-58134819D02*
X118438333Y-58087200D01*
X118438333Y-58087200D02*
X118343095Y-57991961D01*
X118343095Y-57991961D02*
X118295476Y-57801485D01*
X118295476Y-57801485D02*
X118295476Y-57468152D01*
X118295476Y-57468152D02*
X118343095Y-57277676D01*
X118343095Y-57277676D02*
X118438333Y-57182438D01*
X118438333Y-57182438D02*
X118533571Y-57134819D01*
X118533571Y-57134819D02*
X118724047Y-57134819D01*
X118724047Y-57134819D02*
X118819285Y-57182438D01*
X118819285Y-57182438D02*
X118914523Y-57277676D01*
X118914523Y-57277676D02*
X118962142Y-57468152D01*
X118962142Y-57468152D02*
X118962142Y-57801485D01*
X118962142Y-57801485D02*
X118914523Y-57991961D01*
X118914523Y-57991961D02*
X118819285Y-58087200D01*
X118819285Y-58087200D02*
X118724047Y-58134819D01*
X118724047Y-58134819D02*
X118533571Y-58134819D01*
X119914523Y-58134819D02*
X119343095Y-58134819D01*
X119628809Y-58134819D02*
X119628809Y-57134819D01*
X119628809Y-57134819D02*
X119533571Y-57277676D01*
X119533571Y-57277676D02*
X119438333Y-57372914D01*
X119438333Y-57372914D02*
X119343095Y-57420533D01*
X164491666Y-90664819D02*
X164491666Y-91379104D01*
X164491666Y-91379104D02*
X164444047Y-91521961D01*
X164444047Y-91521961D02*
X164348809Y-91617200D01*
X164348809Y-91617200D02*
X164205952Y-91664819D01*
X164205952Y-91664819D02*
X164110714Y-91664819D01*
X165491666Y-91664819D02*
X164920238Y-91664819D01*
X165205952Y-91664819D02*
X165205952Y-90664819D01*
X165205952Y-90664819D02*
X165110714Y-90807676D01*
X165110714Y-90807676D02*
X165015476Y-90902914D01*
X165015476Y-90902914D02*
X164920238Y-90950533D01*
X130924047Y-70631009D02*
X131066904Y-70678628D01*
X131066904Y-70678628D02*
X131114523Y-70726247D01*
X131114523Y-70726247D02*
X131162142Y-70821485D01*
X131162142Y-70821485D02*
X131162142Y-70964342D01*
X131162142Y-70964342D02*
X131114523Y-71059580D01*
X131114523Y-71059580D02*
X131066904Y-71107200D01*
X131066904Y-71107200D02*
X130971666Y-71154819D01*
X130971666Y-71154819D02*
X130590714Y-71154819D01*
X130590714Y-71154819D02*
X130590714Y-70154819D01*
X130590714Y-70154819D02*
X130924047Y-70154819D01*
X130924047Y-70154819D02*
X131019285Y-70202438D01*
X131019285Y-70202438D02*
X131066904Y-70250057D01*
X131066904Y-70250057D02*
X131114523Y-70345295D01*
X131114523Y-70345295D02*
X131114523Y-70440533D01*
X131114523Y-70440533D02*
X131066904Y-70535771D01*
X131066904Y-70535771D02*
X131019285Y-70583390D01*
X131019285Y-70583390D02*
X130924047Y-70631009D01*
X130924047Y-70631009D02*
X130590714Y-70631009D01*
X131495476Y-70154819D02*
X132162142Y-70154819D01*
X132162142Y-70154819D02*
X131495476Y-71154819D01*
X131495476Y-71154819D02*
X132162142Y-71154819D01*
X133066904Y-71154819D02*
X132495476Y-71154819D01*
X132781190Y-71154819D02*
X132781190Y-70154819D01*
X132781190Y-70154819D02*
X132685952Y-70297676D01*
X132685952Y-70297676D02*
X132590714Y-70392914D01*
X132590714Y-70392914D02*
X132495476Y-70440533D01*
X135234048Y-66113866D02*
X135995953Y-66113866D01*
X135615000Y-66494819D02*
X135615000Y-65732914D01*
X149819104Y-64214285D02*
X149819104Y-63738095D01*
X150104819Y-64309523D02*
X149104819Y-63976190D01*
X149104819Y-63976190D02*
X150104819Y-63642857D01*
X150104819Y-62785714D02*
X150104819Y-63357142D01*
X150104819Y-63071428D02*
X149104819Y-63071428D01*
X149104819Y-63071428D02*
X149247676Y-63166666D01*
X149247676Y-63166666D02*
X149342914Y-63261904D01*
X149342914Y-63261904D02*
X149390533Y-63357142D01*
D11*
%TO.C,SW1*%
X116339050Y-115570000D02*
G75*
G03*
X116339050Y-115570000I-4579050J0D01*
G01*
X105650000Y-109320000D02*
X108370000Y-109320000D01*
X105650000Y-121620000D02*
X105650000Y-109320000D01*
X113370000Y-121620000D02*
X110230000Y-121620000D01*
X108370000Y-121620000D02*
X105650000Y-121620000D01*
X117950000Y-109320000D02*
X117950000Y-121620000D01*
X110230000Y-109320000D02*
X113370000Y-109320000D01*
X115230000Y-109320000D02*
X117950000Y-109320000D01*
X117950000Y-121620000D02*
X115230000Y-121620000D01*
%TO.C,R2*%
X115560000Y-105580000D02*
X115560000Y-106060000D01*
X105420000Y-102220000D02*
X105420000Y-102700000D01*
X115560000Y-106060000D02*
X105420000Y-106060000D01*
X115560000Y-102700000D02*
X115560000Y-102220000D01*
X115560000Y-102220000D02*
X105420000Y-102220000D01*
X105420000Y-106060000D02*
X105420000Y-105580000D01*
D12*
%TO.C,U1*%
X157555000Y-77580000D02*
X157555000Y-72130000D01*
X157555000Y-95270000D02*
X157555000Y-77580000D01*
X157555000Y-100640000D02*
X157555000Y-95270000D01*
X106605000Y-72130000D02*
X157555000Y-72130000D01*
X157555000Y-100640000D02*
X106605000Y-100640000D01*
X106605000Y-82860000D02*
X106605000Y-72130000D01*
X106605000Y-89571000D02*
X106605000Y-82860000D01*
X106605000Y-100640000D02*
X106605000Y-89571000D01*
D13*
X116665000Y-101210000D02*
G75*
G03*
X116665000Y-101210000I-100000J0D01*
G01*
D12*
X157555000Y-100640000D02*
X106605000Y-100640000D01*
X106605000Y-100640000D02*
X106605000Y-72130000D01*
X157555000Y-72130000D02*
X157555000Y-100640000D01*
X106605000Y-72130000D02*
X157555000Y-72130000D01*
D11*
%TO.C,SW4*%
X161864050Y-115370000D02*
G75*
G03*
X161864050Y-115370000I-4579050J0D01*
G01*
X163395000Y-121620000D02*
X160675000Y-121620000D01*
X163395000Y-109320000D02*
X163395000Y-121620000D01*
X155675000Y-109320000D02*
X158815000Y-109320000D01*
X160675000Y-109320000D02*
X163395000Y-109320000D01*
X151095000Y-121620000D02*
X151095000Y-109320000D01*
X158815000Y-121620000D02*
X155675000Y-121620000D01*
X153815000Y-121620000D02*
X151095000Y-121620000D01*
X151095000Y-109320000D02*
X153815000Y-109320000D01*
%TO.C,SW3*%
X146624050Y-115370000D02*
G75*
G03*
X146624050Y-115370000I-4579050J0D01*
G01*
X148155000Y-121620000D02*
X145435000Y-121620000D01*
X148155000Y-109320000D02*
X148155000Y-121620000D01*
X140435000Y-109320000D02*
X143575000Y-109320000D01*
X145435000Y-109320000D02*
X148155000Y-109320000D01*
X135855000Y-121620000D02*
X135855000Y-109320000D01*
X143575000Y-121620000D02*
X140435000Y-121620000D01*
X138575000Y-121620000D02*
X135855000Y-121620000D01*
X135855000Y-109320000D02*
X138575000Y-109320000D01*
%TO.C,SW2*%
X131579050Y-115570000D02*
G75*
G03*
X131579050Y-115570000I-4579050J0D01*
G01*
X120890000Y-109320000D02*
X123610000Y-109320000D01*
X120890000Y-121620000D02*
X120890000Y-109320000D01*
X128610000Y-121620000D02*
X125470000Y-121620000D01*
X123610000Y-121620000D02*
X120890000Y-121620000D01*
X133190000Y-109320000D02*
X133190000Y-121620000D01*
X125470000Y-109320000D02*
X128610000Y-109320000D01*
X130470000Y-109320000D02*
X133190000Y-109320000D01*
X133190000Y-121620000D02*
X130470000Y-121620000D01*
%TO.C,Q1*%
X115330327Y-60502629D02*
G75*
G03*
X116107916Y-59725099I3774673J-2997371D01*
G01*
X115216961Y-58834144D02*
X114439144Y-59611961D01*
X114439144Y-59611961D02*
X115330098Y-60502916D01*
X116107916Y-59725098D02*
X115216961Y-58834144D01*
%TO.C,J1*%
X163495000Y-102930000D02*
X166155000Y-102930000D01*
X166155000Y-95250000D02*
X166155000Y-102930000D01*
X163495000Y-95250000D02*
X166155000Y-95250000D01*
X163495000Y-95250000D02*
X163495000Y-102930000D01*
X166155000Y-92650000D02*
X166155000Y-93980000D01*
X164825000Y-92650000D02*
X166155000Y-92650000D01*
%TO.C,BZ1*%
X137905000Y-63500000D02*
G75*
G03*
X137905000Y-63500000I-6100000J0D01*
G01*
%TO.C,A1*%
X146050000Y-62170000D02*
X146050000Y-64830000D01*
X148650000Y-62170000D02*
X148650000Y-63500000D01*
X146050000Y-64830000D02*
X140910000Y-64830000D01*
X147320000Y-62170000D02*
X148650000Y-62170000D01*
X146050000Y-62170000D02*
X140910000Y-62170000D01*
X140910000Y-62170000D02*
X140910000Y-64830000D01*
%TD*%
D14*
%TO.P,SW1,2,2*%
%TO.N,GND*%
X109300000Y-121720000D03*
X109300000Y-109220000D03*
%TO.P,SW1,1,1*%
%TO.N,/D4*%
X114300000Y-121720000D03*
X114300000Y-109220000D03*
%TD*%
D15*
%TO.P,R2,1*%
%TO.N,/D2*%
X116840000Y-104140000D03*
D16*
%TO.P,R2,2*%
%TO.N,Net-(Q1-B)*%
X104140000Y-104140000D03*
%TD*%
D17*
%TO.P,U1,16,EN*%
%TO.N,unconnected-(U1-EN-Pad16)*%
X152125000Y-73660000D03*
%TO.P,U1,17,VP*%
%TO.N,unconnected-(U1-VP-Pad17)*%
X149585000Y-73660000D03*
%TO.P,U1,18,VN*%
%TO.N,unconnected-(U1-VN-Pad18)*%
X147045000Y-73660000D03*
%TO.P,U1,19,D34*%
%TO.N,unconnected-(U1-D34-Pad19)*%
X144505000Y-73660000D03*
%TO.P,U1,20,D35*%
%TO.N,unconnected-(U1-D35-Pad20)*%
X141965000Y-73660000D03*
%TO.P,U1,21,D32*%
%TO.N,/D32*%
X139425000Y-73660000D03*
%TO.P,U1,22,D33*%
%TO.N,unconnected-(U1-D33-Pad22)*%
X136885000Y-73660000D03*
%TO.P,U1,23,D25*%
%TO.N,unconnected-(U1-D25-Pad23)*%
X134345000Y-73660000D03*
%TO.P,U1,24,D26*%
%TO.N,unconnected-(U1-D26-Pad24)*%
X131805000Y-73660000D03*
%TO.P,U1,25,D27*%
%TO.N,unconnected-(U1-D27-Pad25)*%
X129265000Y-73660000D03*
%TO.P,U1,26,D14*%
%TO.N,/D14*%
X126725000Y-73660000D03*
%TO.P,U1,27,D12*%
%TO.N,unconnected-(U1-D12-Pad27)*%
X124185000Y-73660000D03*
%TO.P,U1,28,D13*%
%TO.N,unconnected-(U1-D13-Pad28)*%
X121645000Y-73660000D03*
%TO.P,U1,29,GND*%
%TO.N,GND*%
X119105000Y-73660000D03*
%TO.P,U1,30,VIN*%
%TO.N,+5V*%
X116565000Y-73660000D03*
%TO.P,U1,15,D23*%
%TO.N,unconnected-(U1-D23-Pad15)*%
X152125000Y-99060000D03*
%TO.P,U1,14,D22*%
%TO.N,/D22*%
X149585000Y-99060000D03*
%TO.P,U1,13,TX0*%
%TO.N,unconnected-(U1-TX0-Pad13)*%
X147045000Y-99060000D03*
%TO.P,U1,12,RX0*%
%TO.N,unconnected-(U1-RX0-Pad12)*%
X144505000Y-99060000D03*
%TO.P,U1,11,D21*%
%TO.N,/D21*%
X141965000Y-99060000D03*
%TO.P,U1,10,D19*%
%TO.N,unconnected-(U1-D19-Pad10)*%
X139425000Y-99060000D03*
%TO.P,U1,9,D18*%
%TO.N,unconnected-(U1-D18-Pad9)*%
X136885000Y-99060000D03*
%TO.P,U1,8,D5*%
%TO.N,/D5*%
X134345000Y-99060000D03*
%TO.P,U1,7,TX2*%
%TO.N,/D17*%
X131805000Y-99060000D03*
%TO.P,U1,6,RX2*%
%TO.N,/D16*%
X129265000Y-99060000D03*
%TO.P,U1,5,D4*%
%TO.N,/D4*%
X126725000Y-99060000D03*
%TO.P,U1,4,D2*%
%TO.N,/D2*%
X124185000Y-99060000D03*
%TO.P,U1,3,D15*%
%TO.N,unconnected-(U1-D15-Pad3)*%
X121645000Y-99060000D03*
%TO.P,U1,2,GND*%
%TO.N,GND*%
X119105000Y-99060000D03*
D18*
%TO.P,U1,1,3V3*%
%TO.N,+3.3V*%
X116565000Y-99060000D03*
%TD*%
D14*
%TO.P,SW4,2,2*%
%TO.N,GND*%
X159745000Y-109220000D03*
X159745000Y-121720000D03*
%TO.P,SW4,1,1*%
%TO.N,/D5*%
X154745000Y-109220000D03*
X154745000Y-121720000D03*
%TD*%
%TO.P,SW3,2,2*%
%TO.N,GND*%
X144505000Y-109220000D03*
X144505000Y-121720000D03*
%TO.P,SW3,1,1*%
%TO.N,/D17*%
X139505000Y-109220000D03*
X139505000Y-121720000D03*
%TD*%
%TO.P,SW2,2,2*%
%TO.N,GND*%
X124540000Y-121720000D03*
X124540000Y-109220000D03*
%TO.P,SW2,1,1*%
%TO.N,/D16*%
X129540000Y-121720000D03*
X129540000Y-109220000D03*
%TD*%
D19*
%TO.P,Q1,3,C*%
%TO.N,Net-(BZ1-+)*%
X121645000Y-63500000D03*
%TO.P,Q1,2,B*%
%TO.N,Net-(Q1-B)*%
X119105000Y-66040000D03*
D20*
%TO.P,Q1,1,E*%
%TO.N,GND*%
X116565000Y-63500000D03*
%TD*%
D21*
%TO.P,J1,4,Pin_4*%
%TO.N,GND*%
X164825000Y-101600000D03*
%TO.P,J1,3,Pin_3*%
%TO.N,+5V*%
X164825000Y-99060000D03*
%TO.P,J1,2,Pin_2*%
%TO.N,/D22*%
X164825000Y-96520000D03*
D22*
%TO.P,J1,1,Pin_1*%
%TO.N,/D21*%
X164825000Y-93980000D03*
%TD*%
D17*
%TO.P,BZ1,2,+*%
%TO.N,Net-(BZ1-+)*%
X128005000Y-63500000D03*
D18*
%TO.P,BZ1,1,-*%
%TO.N,+5V*%
X135605000Y-63500000D03*
%TD*%
D21*
%TO.P,A1,3,GND*%
%TO.N,GND*%
X142240000Y-63500000D03*
%TO.P,A1,2,VOUT*%
%TO.N,+3.3V*%
X144780000Y-63500000D03*
D22*
%TO.P,A1,1,+VS*%
%TO.N,/D32*%
X147320000Y-63500000D03*
%TD*%
D23*
%TO.N,GND*%
X114162500Y-78602500D02*
X114162500Y-104002500D01*
X117755000Y-75010000D02*
X114162500Y-78602500D01*
X114162500Y-104002500D02*
X119105000Y-99060000D01*
X109300000Y-108865000D02*
X114162500Y-104002500D01*
%TO.N,Net-(Q1-B)*%
X104140000Y-74381497D02*
X104140000Y-104140000D01*
X115971497Y-62550000D02*
X104140000Y-74381497D01*
X117158503Y-62550000D02*
X115971497Y-62550000D01*
X119105000Y-64496497D02*
X117158503Y-62550000D01*
X119105000Y-66040000D02*
X119105000Y-64496497D01*
%TO.N,/D21*%
X163385000Y-95420000D02*
X145605000Y-95420000D01*
X145605000Y-95420000D02*
X141965000Y-99060000D01*
X164825000Y-93980000D02*
X163385000Y-95420000D01*
%TO.N,/D22*%
X152125000Y-96520000D02*
X149585000Y-99060000D01*
X164825000Y-96520000D02*
X152125000Y-96520000D01*
%TO.N,+5V*%
X166025000Y-77125000D02*
X166025000Y-97860000D01*
X166025000Y-97860000D02*
X164825000Y-99060000D01*
X150700000Y-61800000D02*
X166025000Y-77125000D01*
X137305000Y-61800000D02*
X150700000Y-61800000D01*
X135605000Y-63500000D02*
X137305000Y-61800000D01*
%TO.N,GND*%
X115650000Y-75010000D02*
X117755000Y-75010000D01*
X115215000Y-74575000D02*
X115650000Y-75010000D01*
X115215000Y-64850000D02*
X115215000Y-74575000D01*
X117755000Y-75010000D02*
X119105000Y-73660000D01*
X116565000Y-63500000D02*
X115215000Y-64850000D01*
%TO.N,+5V*%
X118415000Y-71810000D02*
X116565000Y-73660000D01*
X127295000Y-71810000D02*
X118415000Y-71810000D01*
X135605000Y-63500000D02*
X127295000Y-71810000D01*
%TO.N,+3.3V*%
X138195000Y-77430000D02*
X116565000Y-99060000D01*
X157617132Y-77430000D02*
X138195000Y-77430000D01*
X157617132Y-71257132D02*
X157617132Y-77430000D01*
X148660000Y-62300000D02*
X157617132Y-71257132D01*
X145980000Y-62300000D02*
X148660000Y-62300000D01*
X144780000Y-63500000D02*
X145980000Y-62300000D01*
%TO.N,/D32*%
X147320000Y-65765000D02*
X139425000Y-73660000D01*
X147320000Y-63500000D02*
X147320000Y-65765000D01*
%TO.N,GND*%
X120455000Y-72310000D02*
X119105000Y-73660000D01*
X133430000Y-72310000D02*
X120455000Y-72310000D01*
X142240000Y-63500000D02*
X133430000Y-72310000D01*
%TO.N,/D2*%
X119105000Y-104140000D02*
X124185000Y-99060000D01*
X116840000Y-104140000D02*
X119105000Y-104140000D01*
%TO.N,GND*%
X157871000Y-123594000D02*
X159745000Y-121720000D01*
X146379000Y-123594000D02*
X157871000Y-123594000D01*
X144505000Y-121720000D02*
X146379000Y-123594000D01*
X142631000Y-123594000D02*
X144505000Y-121720000D01*
X126414000Y-123594000D02*
X142631000Y-123594000D01*
X124540000Y-121720000D02*
X126414000Y-123594000D01*
X122666000Y-123594000D02*
X124540000Y-121720000D01*
X111174000Y-123594000D02*
X122666000Y-123594000D01*
X109300000Y-121720000D02*
X111174000Y-123594000D01*
%TO.N,/D5*%
X142631000Y-107346000D02*
X134345000Y-99060000D01*
X152871000Y-107346000D02*
X142631000Y-107346000D01*
X154745000Y-109220000D02*
X152871000Y-107346000D01*
%TO.N,/D17*%
X139505000Y-106760000D02*
X131805000Y-99060000D01*
X139505000Y-109220000D02*
X139505000Y-106760000D01*
%TO.N,/D16*%
X129540000Y-99335000D02*
X129265000Y-99060000D01*
X129540000Y-109220000D02*
X129540000Y-99335000D01*
%TO.N,/D4*%
X116565000Y-109220000D02*
X126725000Y-99060000D01*
X114300000Y-109220000D02*
X116565000Y-109220000D01*
%TO.N,GND*%
X109300000Y-109220000D02*
X109300000Y-108865000D01*
%TO.N,Net-(BZ1-+)*%
X121645000Y-63500000D02*
X128005000Y-63500000D01*
%TO.N,GND*%
X159745000Y-109220000D02*
X159745000Y-106680000D01*
X159745000Y-106680000D02*
X164825000Y-101600000D01*
X159745000Y-121720000D02*
X159745000Y-109220000D01*
%TO.N,/D5*%
X154745000Y-121720000D02*
X154745000Y-109220000D01*
%TO.N,GND*%
X144505000Y-121720000D02*
X144505000Y-109220000D01*
%TO.N,/D17*%
X139505000Y-121720000D02*
X139505000Y-109220000D01*
%TO.N,/D16*%
X129540000Y-121720000D02*
X129540000Y-109220000D01*
%TO.N,GND*%
X124540000Y-121720000D02*
X124540000Y-109220000D01*
%TO.N,/D4*%
X114300000Y-121720000D02*
X114300000Y-109220000D01*
%TO.N,GND*%
X109300000Y-121720000D02*
X109300000Y-109220000D01*
%TD*%
M02*
