<svg width="416mm" height="143mm" viewBox="0 0 416 143" xmlns="http://www.w3.org/2000/svg" version="1.1" preserveAspectRatio="xMidYMid meet"><g id="svgGroup" stroke-linecap="round" fill-rule="evenodd" font-size="9pt" stroke="#000" stroke-width="0.25mm" fill="none" style="stroke:#000;stroke-width:0.25mm;fill:none"><path d="M 0 118 L 0 125.438 L 3 125.438 L 3 135.563 L 0 135.563 L 0 143 L 9.063 143 L 9.063 140 L 19.188 140 L 19.188 143 L 29.313 143 L 29.313 140 L 39.438 140 L 39.438 143 L 49.563 143 L 49.563 140 L 59.688 140 L 59.688 143 L 69.813 143 L 69.813 140 L 79.938 140 L 79.938 143 L 90.063 143 L 90.063 140 L 100.188 140 L 100.188 143 L 110.313 143 L 110.313 140 L 120.438 140 L 120.438 143 L 130.563 143 L 130.563 140 L 140.688 140 L 140.688 143 L 150.813 143 L 150.813 140 L 160.938 140 L 160.938 143 L 170 143 L 170 135.563 L 167 135.563 L 167 125.438 L 170 125.438 L 170 118 L 160.938 118 L 160.938 121 L 150.813 121 L 150.813 118 L 140.688 118 L 140.688 121 L 130.563 121 L 130.563 118 L 120.438 118 L 120.438 121 L 110.313 121 L 110.313 118 L 100.188 118 L 100.188 121 L 90.063 121 L 90.063 118 L 79.938 118 L 79.938 121 L 69.813 121 L 69.813 118 L 59.688 118 L 59.688 121 L 49.563 121 L 49.563 118 L 39.438 118 L 39.438 121 L 29.313 121 L 29.313 118 L 19.188 118 L 19.188 121 L 9.063 121 L 9.063 118 L 0 118 Z" id="front_outsideCutPath" stroke="#FF0000" stroke-width="0.1" style="stroke:#FF0000;stroke-width:0.1" vector-effect="non-scaling-stroke"/><path d="M 88.644 132.388 L 88.239 132.388 L 88.239 130.657 Q 88.239 130.449 88.178 130.308 A 0.482 0.482 0 0 0 88.09 130.169 Q 87.941 130.008 87.623 130.008 A 1.227 1.227 0 0 0 87.394 130.028 Q 87.145 130.075 87.008 130.235 A 0.663 0.663 0 0 0 86.893 130.436 Q 86.824 130.621 86.814 130.897 A 2.597 2.597 0 0 0 86.813 130.985 L 86.813 132.388 L 86.407 132.388 L 86.407 129.713 L 86.737 129.713 L 86.803 130.079 L 86.823 130.079 A 0.821 0.821 0 0 1 87.144 129.786 A 0.987 0.987 0 0 1 87.172 129.772 A 1.097 1.097 0 0 1 87.562 129.668 A 1.327 1.327 0 0 1 87.672 129.664 Q 87.993 129.664 88.208 129.766 A 0.728 0.728 0 0 1 88.4 129.897 A 0.702 0.702 0 0 1 88.571 130.166 Q 88.612 130.276 88.63 130.413 A 1.769 1.769 0 0 1 88.644 130.643 L 88.644 132.388 Z M 80.858 129.713 L 80.858 130.028 L 80.177 130.028 L 80.177 132.388 L 79.772 132.388 L 79.772 130.028 L 79.293 130.028 L 79.293 129.844 L 79.772 129.698 L 79.772 129.549 Q 79.772 128.698 80.414 128.581 A 1.232 1.232 0 0 1 80.634 128.563 Q 80.846 128.563 81.132 128.648 L 81.027 128.973 Q 80.792 128.897 80.626 128.897 A 0.547 0.547 0 0 0 80.494 128.912 A 0.351 0.351 0 0 0 80.287 129.05 A 0.469 0.469 0 0 0 80.225 129.175 Q 80.184 129.297 80.178 129.478 A 1.913 1.913 0 0 0 80.177 129.539 L 80.177 129.713 L 80.858 129.713 Z M 90.707 132.054 L 90.707 132.364 A 0.399 0.399 0 0 1 90.66 132.383 Q 90.609 132.399 90.537 132.412 A 1.515 1.515 0 0 1 90.513 132.416 Q 90.393 132.436 90.296 132.437 A 1.038 1.038 0 0 1 90.282 132.437 A 1.059 1.059 0 0 1 89.97 132.395 Q 89.506 132.252 89.506 131.619 L 89.506 130.028 L 89.122 130.028 L 89.122 129.832 L 89.506 129.664 L 89.677 129.092 L 89.911 129.092 L 89.911 129.713 L 90.687 129.713 L 90.687 130.028 L 89.911 130.028 L 89.911 131.602 A 0.816 0.816 0 0 0 89.923 131.746 Q 89.948 131.885 90.026 131.973 A 0.376 0.376 0 0 0 90.257 132.097 A 0.542 0.542 0 0 0 90.341 132.103 A 1.331 1.331 0 0 0 90.536 132.089 A 1.226 1.226 0 0 0 90.548 132.087 A 2.192 2.192 0 0 0 90.607 132.077 Q 90.663 132.066 90.701 132.055 A 0.61 0.61 0 0 0 90.707 132.054 Z M 82.887 129.693 L 82.831 130.069 Q 82.693 130.039 82.581 130.033 A 0.951 0.951 0 0 0 82.538 130.032 A 0.702 0.702 0 0 0 82.019 130.257 A 0.961 0.961 0 0 0 81.982 130.296 A 0.925 0.925 0 0 0 81.759 130.816 A 1.23 1.23 0 0 0 81.752 130.953 L 81.752 132.388 L 81.346 132.388 L 81.346 129.713 L 81.681 129.713 L 81.727 130.208 L 81.747 130.208 A 1.369 1.369 0 0 1 81.9 129.99 A 1.045 1.045 0 0 1 82.106 129.805 Q 82.316 129.664 82.567 129.664 A 1.861 1.861 0 0 1 82.734 129.671 A 1.358 1.358 0 0 1 82.887 129.693 Z M 85.66 131.455 A 2.093 2.093 0 0 0 85.697 131.048 A 2.379 2.379 0 0 0 85.696 130.984 Q 85.69 130.761 85.642 130.572 A 1.262 1.262 0 0 0 85.366 130.037 A 1.061 1.061 0 0 0 84.874 129.72 A 1.362 1.362 0 0 0 84.474 129.664 A 1.574 1.574 0 0 0 84.191 129.688 A 1.072 1.072 0 0 0 83.566 130.029 Q 83.348 130.271 83.275 130.641 A 2.104 2.104 0 0 0 83.239 131.048 A 2.027 2.027 0 0 0 83.264 131.376 A 1.499 1.499 0 0 0 83.39 131.785 A 1.332 1.332 0 0 0 83.419 131.843 A 1.097 1.097 0 0 0 83.82 132.269 A 1.128 1.128 0 0 0 84.079 132.384 A 1.301 1.301 0 0 0 84.457 132.437 A 1.574 1.574 0 0 0 84.732 132.414 A 1.08 1.08 0 0 0 85.367 132.07 A 1.131 1.131 0 0 0 85.502 131.885 Q 85.612 131.697 85.66 131.455 Z M 83.745 131.611 A 0.85 0.85 0 0 0 83.864 131.829 Q 84.069 132.098 84.467 132.098 A 0.941 0.941 0 0 0 84.715 132.067 A 0.655 0.655 0 0 0 85.071 131.831 A 0.87 0.87 0 0 0 85.206 131.567 Q 85.277 131.35 85.277 131.048 A 2.022 2.022 0 0 0 85.258 130.76 Q 85.214 130.457 85.071 130.273 A 0.667 0.667 0 0 0 84.656 130.026 A 1.022 1.022 0 0 0 84.462 130.008 A 0.965 0.965 0 0 0 84.222 130.036 A 0.645 0.645 0 0 0 83.861 130.269 A 0.838 0.838 0 0 0 83.731 130.521 Q 83.692 130.637 83.674 130.778 A 2.142 2.142 0 0 0 83.658 131.048 Q 83.658 131.381 83.745 131.611 Z" id="front_labelLayer" stroke="#777777" fill="#777777" style="stroke:#777777;fill:#777777" vector-effect="non-scaling-stroke"/><path d="M 176 118 L 176 125.438 L 173 125.438 L 173 135.563 L 176 135.563 L 176 143 L 182.688 143 L 182.688 140 L 192.813 140 L 192.813 143 L 202.938 143 L 202.938 140 L 213.063 140 L 213.063 143 L 223.188 143 L 223.188 140 L 233.313 140 L 233.313 143 L 240 143 L 240 135.563 L 243 135.563 L 243 125.438 L 240 125.438 L 240 118 L 233.313 118 L 233.313 121 L 223.188 121 L 223.188 118 L 213.063 118 L 213.063 121 L 202.938 121 L 202.938 118 L 192.813 118 L 192.813 121 L 182.688 121 L 182.688 118 L 176 118 Z" id="left_outsideCutPath" stroke="#FF0000" stroke-width="0.1" style="stroke:#FF0000;stroke-width:0.1" vector-effect="non-scaling-stroke"/><path d="M 209.779 129.713 L 209.779 130.028 L 209.097 130.028 L 209.097 132.388 L 208.692 132.388 L 208.692 130.028 L 208.214 130.028 L 208.214 129.844 L 208.692 129.698 L 208.692 129.549 Q 208.692 128.698 209.334 128.581 A 1.232 1.232 0 0 1 209.554 128.563 Q 209.766 128.563 210.052 128.648 L 209.947 128.973 Q 209.713 128.897 209.547 128.897 A 0.547 0.547 0 0 0 209.415 128.912 A 0.351 0.351 0 0 0 209.207 129.05 A 0.469 0.469 0 0 0 209.145 129.175 Q 209.104 129.297 209.098 129.478 A 1.913 1.913 0 0 0 209.097 129.539 L 209.097 129.713 L 209.779 129.713 Z M 207.882 130.867 L 207.882 131.124 L 206.038 131.124 A 1.627 1.627 0 0 0 206.067 131.396 Q 206.096 131.544 206.155 131.662 A 0.761 0.761 0 0 0 206.276 131.839 A 0.736 0.736 0 0 0 206.663 132.057 A 1.116 1.116 0 0 0 206.912 132.083 A 2.14 2.14 0 0 0 207.714 131.924 A 2.453 2.453 0 0 0 207.767 131.903 L 207.767 132.264 Q 207.552 132.357 207.36 132.397 Q 207.211 132.428 207.014 132.435 A 3.302 3.302 0 0 1 206.898 132.437 A 1.575 1.575 0 0 1 206.504 132.391 A 1.115 1.115 0 0 1 205.961 132.076 A 1.193 1.193 0 0 1 205.676 131.552 Q 205.627 131.366 205.62 131.146 A 2.315 2.315 0 0 1 205.618 131.072 Q 205.618 130.545 205.83 130.195 A 1.2 1.2 0 0 1 205.937 130.045 A 1.039 1.039 0 0 1 206.694 129.667 A 1.433 1.433 0 0 1 206.793 129.664 A 1.235 1.235 0 0 1 207.14 129.71 A 0.939 0.939 0 0 1 207.589 129.995 A 1.133 1.133 0 0 1 207.845 130.512 A 1.649 1.649 0 0 1 207.882 130.867 Z M 211.497 132.054 L 211.497 132.364 A 0.399 0.399 0 0 1 211.45 132.383 Q 211.4 132.399 211.327 132.412 A 1.515 1.515 0 0 1 211.303 132.416 Q 211.184 132.436 211.086 132.437 A 1.038 1.038 0 0 1 211.073 132.437 A 1.059 1.059 0 0 1 210.761 132.395 Q 210.296 132.252 210.296 131.619 L 210.296 130.028 L 209.913 130.028 L 209.913 129.832 L 210.296 129.664 L 210.467 129.092 L 210.701 129.092 L 210.701 129.713 L 211.478 129.713 L 211.478 130.028 L 210.701 130.028 L 210.701 131.602 A 0.816 0.816 0 0 0 210.713 131.746 Q 210.738 131.885 210.816 131.973 A 0.376 0.376 0 0 0 211.048 132.097 A 0.542 0.542 0 0 0 211.131 132.103 A 1.331 1.331 0 0 0 211.326 132.089 A 1.226 1.226 0 0 0 211.339 132.087 A 2.192 2.192 0 0 0 211.397 132.077 Q 211.453 132.066 211.492 132.055 A 0.61 0.61 0 0 0 211.497 132.054 Z M 204.908 128.59 L 204.908 132.388 L 204.503 132.388 L 204.503 128.59 L 204.908 128.59 Z M 206.048 130.794 L 207.447 130.794 A 1.381 1.381 0 0 0 207.43 130.572 Q 207.411 130.453 207.369 130.358 A 0.627 0.627 0 0 0 207.276 130.207 Q 207.105 130.003 206.788 130.003 A 0.799 0.799 0 0 0 206.557 130.035 A 0.617 0.617 0 0 0 206.274 130.213 A 0.801 0.801 0 0 0 206.115 130.482 Q 206.074 130.592 206.056 130.725 A 1.531 1.531 0 0 0 206.048 130.794 Z" id="left_labelLayer" stroke="#777777" fill="#777777" style="stroke:#777777;fill:#777777" vector-effect="non-scaling-stroke"/><path d="M 249 76 L 249 82.688 L 246 82.688 L 246 92.813 L 249 92.813 L 249 102.938 L 246 102.938 L 246 113.063 L 249 113.063 L 249 123.188 L 246 123.188 L 246 133.313 L 249 133.313 L 249 140 L 255.063 140 L 255.063 143 L 265.188 143 L 265.188 140 L 275.313 140 L 275.313 143 L 285.438 143 L 285.438 140 L 295.563 140 L 295.563 143 L 305.688 143 L 305.688 140 L 315.813 140 L 315.813 143 L 325.938 143 L 325.938 140 L 336.063 140 L 336.063 143 L 346.188 143 L 346.188 140 L 356.313 140 L 356.313 143 L 366.438 143 L 366.438 140 L 376.563 140 L 376.563 143 L 386.688 143 L 386.688 140 L 396.813 140 L 396.813 143 L 406.938 143 L 406.938 140 L 413 140 L 413 133.313 L 416 133.313 L 416 123.188 L 413 123.188 L 413 113.063 L 416 113.063 L 416 102.938 L 413 102.938 L 413 92.813 L 416 92.813 L 416 82.688 L 413 82.688 L 413 76 L 406.938 76 L 406.938 73 L 396.813 73 L 396.813 76 L 386.688 76 L 386.688 73 L 376.563 73 L 376.563 76 L 366.438 76 L 366.438 73 L 356.313 73 L 356.313 76 L 346.188 76 L 346.188 73 L 336.063 73 L 336.063 76 L 325.938 76 L 325.938 73 L 315.813 73 L 315.813 76 L 305.688 76 L 305.688 73 L 295.563 73 L 295.563 76 L 285.438 76 L 285.438 73 L 275.313 73 L 275.313 76 L 265.188 76 L 265.188 73 L 255.063 73 L 255.063 76 L 249 76 Z" id="top_outsideCutPath" stroke="#FF0000" stroke-width="0.1" style="stroke:#FF0000;stroke-width:0.1" vector-effect="non-scaling-stroke"/><path d="M 336.031 109.969 L 335.949 109.969 A 10.739 10.739 0 0 1 336.02 110.762 A 8.999 8.999 0 0 1 336.031 111.213 L 336.031 114.296 L 334.896 114.296 L 334.896 103.44 L 335.819 103.44 L 335.977 104.466 L 336.031 104.466 A 3.055 3.055 0 0 1 336.473 103.964 A 2.362 2.362 0 0 1 337.05 103.577 A 2.842 2.842 0 0 1 337.864 103.339 A 3.678 3.678 0 0 1 338.383 103.304 A 3.478 3.478 0 0 1 339.365 103.435 A 2.571 2.571 0 0 1 340.683 104.322 A 3.407 3.407 0 0 1 341.264 105.457 Q 341.415 105.947 341.466 106.535 A 7.389 7.389 0 0 1 341.493 107.18 A 6.653 6.653 0 0 1 341.405 108.299 Q 341.224 109.36 340.669 110.047 A 2.686 2.686 0 0 1 338.76 111.051 A 3.849 3.849 0 0 1 338.383 111.069 A 3.442 3.442 0 0 1 337.518 110.964 A 2.995 2.995 0 0 1 337.046 110.799 A 2.513 2.513 0 0 1 336.031 109.969 Z M 324.943 109.996 L 324.943 110.864 Q 324.777 110.945 324.468 111 A 4.246 4.246 0 0 1 324.4 111.011 Q 324.041 111.069 323.754 111.069 Q 321.58 111.069 321.58 108.779 L 321.58 104.322 L 320.507 104.322 L 320.507 103.775 L 321.58 103.304 L 322.059 101.704 L 322.715 101.704 L 322.715 103.44 L 324.889 103.44 L 324.889 104.322 L 322.715 104.322 L 322.715 108.731 A 2.285 2.285 0 0 0 322.748 109.133 Q 322.818 109.524 323.036 109.771 A 1.054 1.054 0 0 0 323.684 110.115 A 1.517 1.517 0 0 0 323.918 110.133 A 3.727 3.727 0 0 0 324.464 110.094 A 3.435 3.435 0 0 0 324.499 110.088 Q 324.766 110.046 324.928 110 A 1.704 1.704 0 0 0 324.943 109.996 Z M 332.803 108.32 A 5.862 5.862 0 0 0 332.907 107.18 A 6.66 6.66 0 0 0 332.905 107 Q 332.86 105.342 331.981 104.35 A 2.971 2.971 0 0 0 330.602 103.46 A 3.813 3.813 0 0 0 329.482 103.304 A 4.407 4.407 0 0 0 328.691 103.372 A 3.002 3.002 0 0 0 326.939 104.326 A 3.135 3.135 0 0 0 326.554 104.86 Q 326.023 105.785 326.023 107.18 A 5.677 5.677 0 0 0 326.095 108.099 A 4.198 4.198 0 0 0 326.447 109.244 A 3.73 3.73 0 0 0 326.53 109.406 A 3.072 3.072 0 0 0 327.65 110.598 A 3.16 3.16 0 0 0 328.376 110.92 A 3.644 3.644 0 0 0 329.435 111.069 A 4.406 4.406 0 0 0 330.204 111.005 A 3.025 3.025 0 0 0 331.984 110.041 A 3.166 3.166 0 0 0 332.361 109.523 Q 332.669 108.997 332.803 108.32 Z M 327.199 107.18 A 5.746 5.746 0 0 0 327.254 108.001 Q 327.314 108.417 327.441 108.755 A 2.381 2.381 0 0 0 327.773 109.367 Q 328.348 110.119 329.462 110.119 A 2.636 2.636 0 0 0 330.157 110.033 A 1.834 1.834 0 0 0 331.154 109.371 A 2.436 2.436 0 0 0 331.533 108.632 Q 331.645 108.29 331.693 107.874 A 5.977 5.977 0 0 0 331.731 107.18 Q 331.731 106.263 331.494 105.629 A 2.336 2.336 0 0 0 331.154 105.009 A 1.867 1.867 0 0 0 329.993 104.317 A 2.862 2.862 0 0 0 329.448 104.268 A 2.701 2.701 0 0 0 328.776 104.346 A 1.807 1.807 0 0 0 327.767 104.999 Q 327.358 105.526 327.244 106.424 A 5.996 5.996 0 0 0 327.199 107.18 Z M 336.031 106.927 L 336.031 107.18 A 7.503 7.503 0 0 0 336.068 107.955 Q 336.171 108.939 336.558 109.439 A 1.646 1.646 0 0 0 337.393 110.003 Q 337.672 110.09 338.012 110.112 A 3.649 3.649 0 0 0 338.246 110.119 Q 339.217 110.119 339.767 109.333 A 2.744 2.744 0 0 0 340.143 108.531 Q 340.252 108.163 340.293 107.722 A 6.045 6.045 0 0 0 340.317 107.166 A 5.726 5.726 0 0 0 340.264 106.354 Q 340.145 105.531 339.767 105.016 A 1.765 1.765 0 0 0 338.476 104.281 A 2.441 2.441 0 0 0 338.219 104.268 Q 337.07 104.268 336.558 104.903 A 1.944 1.944 0 0 0 336.254 105.457 Q 336.061 105.98 336.035 106.753 A 7.222 7.222 0 0 0 336.031 106.927 Z" id="top_labelLayer" stroke="#777777" fill="#777777" style="stroke:#777777;fill:#777777" vector-effect="non-scaling-stroke"/><path d="M 0 90 L 0 97.438 L 3 97.438 L 3 107.563 L 0 107.563 L 0 115 L 9.063 115 L 9.063 112 L 19.188 112 L 19.188 115 L 29.313 115 L 29.313 112 L 39.438 112 L 39.438 115 L 49.563 115 L 49.563 112 L 59.688 112 L 59.688 115 L 69.813 115 L 69.813 112 L 79.938 112 L 79.938 115 L 90.063 115 L 90.063 112 L 100.188 112 L 100.188 115 L 110.313 115 L 110.313 112 L 120.438 112 L 120.438 115 L 130.563 115 L 130.563 112 L 140.688 112 L 140.688 115 L 150.813 115 L 150.813 112 L 160.938 112 L 160.938 115 L 170 115 L 170 107.563 L 167 107.563 L 167 97.438 L 170 97.438 L 170 90 L 160.938 90 L 160.938 93 L 150.813 93 L 150.813 90 L 140.688 90 L 140.688 93 L 130.563 93 L 130.563 90 L 120.438 90 L 120.438 93 L 110.313 93 L 110.313 90 L 100.188 90 L 100.188 93 L 90.063 93 L 90.063 90 L 79.938 90 L 79.938 93 L 69.813 93 L 69.813 90 L 59.688 90 L 59.688 93 L 49.563 93 L 49.563 90 L 39.438 90 L 39.438 93 L 29.313 93 L 29.313 90 L 19.188 90 L 19.188 93 L 9.063 93 L 9.063 90 L 0 90 Z" id="back_outsideCutPath" stroke="#FF0000" stroke-width="0.1" style="stroke:#FF0000;stroke-width:0.1" vector-effect="non-scaling-stroke"/><path d="M 88.423 103.005 L 88.442 103.005 A 2.399 2.399 0 0 1 88.502 102.925 Q 88.57 102.836 88.668 102.723 A 8.708 8.708 0 0 1 88.762 102.615 L 89.626 101.699 L 90.107 101.699 L 89.023 102.839 L 90.183 104.375 L 89.692 104.375 L 88.748 103.11 L 88.442 103.374 L 88.442 104.375 L 88.042 104.375 L 88.042 100.576 L 88.442 100.576 L 88.442 102.59 A 2.7 2.7 0 0 1 88.441 102.667 Q 88.438 102.792 88.424 102.995 A 16.804 16.804 0 0 1 88.423 103.005 Z M 80.222 104.031 L 80.193 104.031 L 80.107 104.375 L 79.817 104.375 L 79.817 100.576 L 80.222 100.576 L 80.222 101.499 Q 80.222 101.799 80.204 102.04 A 5.035 5.035 0 0 1 80.203 102.056 L 80.222 102.056 Q 80.505 101.655 81.062 101.655 Q 81.589 101.655 81.881 102.015 A 1.194 1.194 0 0 1 82.091 102.419 Q 82.142 102.585 82.161 102.784 A 2.601 2.601 0 0 1 82.173 103.035 A 2.376 2.376 0 0 1 82.141 103.434 Q 82.105 103.648 82.026 103.818 A 1.139 1.139 0 0 1 81.879 104.059 A 0.959 0.959 0 0 1 81.197 104.417 A 1.375 1.375 0 0 1 81.062 104.424 A 1.229 1.229 0 0 1 80.753 104.386 A 1.07 1.07 0 0 1 80.585 104.327 A 0.898 0.898 0 0 1 80.222 104.031 Z M 84.827 104.375 L 84.526 104.375 L 84.446 103.994 L 84.426 103.994 Q 84.285 104.172 84.144 104.268 A 0.747 0.747 0 0 1 84.027 104.335 A 0.935 0.935 0 0 1 83.834 104.396 Q 83.74 104.415 83.632 104.421 A 1.824 1.824 0 0 1 83.53 104.424 A 1.244 1.244 0 0 1 83.277 104.4 Q 83.123 104.367 83.004 104.293 A 0.698 0.698 0 0 1 82.906 104.219 Q 82.681 104.014 82.681 103.635 A 0.701 0.701 0 0 1 83.08 102.973 Q 83.4 102.803 83.977 102.786 L 84.431 102.771 L 84.431 102.605 Q 84.431 102.412 84.381 102.282 A 0.452 0.452 0 0 0 84.296 102.14 A 0.411 0.411 0 0 0 84.127 102.03 Q 84.016 101.99 83.862 101.99 A 1.319 1.319 0 0 0 83.559 102.028 Q 83.346 102.078 83.105 102.195 L 82.981 101.885 Q 83.179 101.777 83.414 101.716 A 1.877 1.877 0 0 1 83.887 101.655 A 1.712 1.712 0 0 1 84.147 101.674 Q 84.433 101.718 84.596 101.868 Q 84.777 102.034 84.816 102.358 A 1.595 1.595 0 0 1 84.827 102.549 L 84.827 104.375 Z M 87.446 101.79 L 87.322 102.134 A 1.803 1.803 0 0 0 87.126 102.069 A 2.153 2.153 0 0 0 87.029 102.045 A 1.674 1.674 0 0 0 86.901 102.021 Q 86.839 102.012 86.784 102.01 A 0.898 0.898 0 0 0 86.748 102.009 Q 86.024 102.009 85.943 102.83 A 2.239 2.239 0 0 0 85.933 103.049 A 1.963 1.963 0 0 0 85.952 103.335 Q 85.995 103.625 86.132 103.806 A 0.644 0.644 0 0 0 86.549 104.055 A 0.98 0.98 0 0 0 86.721 104.07 A 1.697 1.697 0 0 0 87.189 104.002 A 2.095 2.095 0 0 0 87.407 103.926 L 87.407 104.285 Q 87.139 104.424 86.731 104.424 A 1.515 1.515 0 0 1 86.362 104.382 A 1.027 1.027 0 0 1 85.831 104.066 Q 85.556 103.757 85.519 103.227 A 2.451 2.451 0 0 1 85.513 103.054 A 2.236 2.236 0 0 1 85.547 102.648 Q 85.589 102.421 85.682 102.242 A 1.117 1.117 0 0 1 85.836 102.017 A 1.049 1.049 0 0 1 86.411 101.686 A 1.591 1.591 0 0 1 86.758 101.65 A 1.829 1.829 0 0 1 87.144 101.692 A 2.023 2.023 0 0 1 87.256 101.719 Q 87.369 101.75 87.444 101.788 A 0.631 0.631 0 0 1 87.446 101.79 Z M 81.003 101.995 A 1.139 1.139 0 0 0 80.783 102.014 Q 80.657 102.039 80.562 102.095 A 0.539 0.539 0 0 0 80.405 102.233 A 0.694 0.694 0 0 0 80.305 102.424 Q 80.222 102.656 80.222 103.035 Q 80.222 103.599 80.41 103.842 A 0.588 0.588 0 0 0 80.708 104.043 Q 80.841 104.084 81.013 104.084 Q 81.387 104.084 81.57 103.812 Q 81.701 103.618 81.738 103.302 A 2.322 2.322 0 0 0 81.753 103.03 Q 81.753 102.507 81.57 102.251 Q 81.387 101.995 81.003 101.995 Z M 84.421 103.301 L 84.421 103.059 L 84.016 103.076 Q 83.612 103.09 83.397 103.186 A 0.622 0.622 0 0 0 83.319 103.226 A 0.432 0.432 0 0 0 83.113 103.54 A 0.64 0.64 0 0 0 83.105 103.64 Q 83.105 103.86 83.239 103.975 Q 83.372 104.089 83.611 104.089 Q 83.938 104.089 84.144 103.934 A 0.677 0.677 0 0 0 84.205 103.882 A 0.679 0.679 0 0 0 84.395 103.543 Q 84.421 103.434 84.421 103.305 A 1.311 1.311 0 0 0 84.421 103.301 Z" id="back_labelLayer" stroke="#777777" fill="#777777" style="stroke:#777777;fill:#777777" vector-effect="non-scaling-stroke"/><path d="M 176 90 L 176 97.438 L 173 97.438 L 173 107.563 L 176 107.563 L 176 115 L 182.688 115 L 182.688 112 L 192.813 112 L 192.813 115 L 202.938 115 L 202.938 112 L 213.063 112 L 213.063 115 L 223.188 115 L 223.188 112 L 233.313 112 L 233.313 115 L 240 115 L 240 107.563 L 243 107.563 L 243 97.438 L 240 97.438 L 240 90 L 233.313 90 L 233.313 93 L 223.188 93 L 223.188 90 L 213.063 90 L 213.063 93 L 202.938 93 L 202.938 90 L 192.813 90 L 192.813 93 L 182.688 93 L 182.688 90 L 176 90 Z" id="right_outsideCutPath" stroke="#FF0000" stroke-width="0.1" style="stroke:#FF0000;stroke-width:0.1" vector-effect="non-scaling-stroke"/><path d="M 211.109 103.799 L 210.704 103.799 L 210.704 102.068 Q 210.704 101.859 210.643 101.718 A 0.482 0.482 0 0 0 210.555 101.58 Q 210.406 101.418 210.089 101.418 Q 209.813 101.418 209.634 101.516 A 0.567 0.567 0 0 0 209.472 101.648 A 0.674 0.674 0 0 0 209.358 101.851 Q 209.278 102.065 209.278 102.4 L 209.278 103.799 L 208.873 103.799 L 208.873 100 L 209.278 100 L 209.278 101.15 A 3.646 3.646 0 0 1 209.276 101.29 Q 209.271 101.407 209.259 101.494 L 209.283 101.494 Q 209.403 101.301 209.624 101.19 Q 209.844 101.079 210.128 101.079 A 1.644 1.644 0 0 1 210.404 101.101 Q 210.693 101.15 210.864 101.312 A 0.706 0.706 0 0 1 211.038 101.586 Q 211.08 101.699 211.097 101.84 A 1.753 1.753 0 0 1 211.109 102.053 L 211.109 103.799 Z M 207.398 101.123 L 208.323 101.123 L 208.323 101.379 L 207.828 101.438 A 0.659 0.659 0 0 1 207.885 101.523 Q 207.91 101.567 207.933 101.619 A 1.249 1.249 0 0 1 207.95 101.661 A 0.78 0.78 0 0 1 207.996 101.848 A 1.001 1.001 0 0 1 208.004 101.973 A 0.929 0.929 0 0 1 207.961 102.261 A 0.751 0.751 0 0 1 207.735 102.6 A 0.899 0.899 0 0 1 207.382 102.786 Q 207.248 102.824 207.089 102.832 A 1.76 1.76 0 0 1 206.998 102.834 Q 206.878 102.834 206.773 102.815 A 0.721 0.721 0 0 0 206.657 102.89 Q 206.597 102.939 206.562 102.994 A 0.305 0.305 0 0 0 206.514 103.159 A 0.21 0.21 0 0 0 206.525 103.228 Q 206.545 103.287 206.605 103.322 Q 206.678 103.364 206.834 103.372 A 1.542 1.542 0 0 0 206.915 103.374 L 207.388 103.374 Q 207.823 103.374 208.056 103.557 A 0.593 0.593 0 0 1 208.276 103.935 A 0.89 0.89 0 0 1 208.289 104.089 A 0.877 0.877 0 0 1 208.239 104.393 Q 208.158 104.614 207.947 104.758 A 0.964 0.964 0 0 1 207.933 104.767 A 1.215 1.215 0 0 1 207.62 104.909 Q 207.465 104.956 207.277 104.979 A 3.212 3.212 0 0 1 206.893 105 A 2.271 2.271 0 0 1 206.588 104.981 Q 206.279 104.939 206.083 104.805 Q 205.817 104.622 205.8 104.298 A 0.856 0.856 0 0 1 205.799 104.253 A 0.62 0.62 0 0 1 205.955 103.831 Q 206.112 103.652 206.395 103.589 A 0.421 0.421 0 0 1 206.231 103.457 A 0.5 0.5 0 0 1 206.223 103.445 A 0.376 0.376 0 0 1 206.154 103.242 A 0.465 0.465 0 0 1 206.153 103.218 A 0.463 0.463 0 0 1 206.176 103.068 A 0.411 0.411 0 0 1 206.231 102.961 Q 206.309 102.852 206.478 102.749 A 0.71 0.71 0 0 1 206.169 102.502 A 0.881 0.881 0 0 1 206.14 102.458 A 0.838 0.838 0 0 1 206.011 102.055 A 1.023 1.023 0 0 1 206.009 101.99 A 1.171 1.171 0 0 1 206.04 101.713 A 0.77 0.77 0 0 1 206.273 101.312 Q 206.5 101.107 206.892 101.079 A 1.79 1.79 0 0 1 207.02 101.074 A 1.553 1.553 0 0 1 207.225 101.087 A 1.183 1.183 0 0 1 207.398 101.123 Z M 213.172 103.464 L 213.172 103.774 A 0.399 0.399 0 0 1 213.125 103.793 Q 213.074 103.81 213.002 103.823 A 1.515 1.515 0 0 1 212.978 103.827 Q 212.858 103.846 212.761 103.848 A 1.038 1.038 0 0 1 212.747 103.848 A 1.059 1.059 0 0 1 212.435 103.806 Q 211.971 103.662 211.971 103.03 L 211.971 101.438 L 211.588 101.438 L 211.588 101.243 L 211.971 101.074 L 212.142 100.503 L 212.376 100.503 L 212.376 101.123 L 213.153 101.123 L 213.153 101.438 L 212.376 101.438 L 212.376 103.013 A 0.816 0.816 0 0 0 212.388 103.156 Q 212.413 103.296 212.491 103.384 A 0.376 0.376 0 0 0 212.722 103.507 A 0.542 0.542 0 0 0 212.806 103.513 A 1.331 1.331 0 0 0 213.001 103.499 A 1.226 1.226 0 0 0 213.013 103.497 A 2.192 2.192 0 0 0 213.072 103.487 Q 213.128 103.477 213.167 103.466 A 0.61 0.61 0 0 0 213.172 103.464 Z M 204.368 101.104 L 204.312 101.479 Q 204.174 101.449 204.063 101.444 A 0.951 0.951 0 0 0 204.019 101.443 A 0.702 0.702 0 0 0 203.5 101.667 A 0.961 0.961 0 0 0 203.464 101.707 A 0.925 0.925 0 0 0 203.241 102.226 A 1.23 1.23 0 0 0 203.233 102.363 L 203.233 103.799 L 202.828 103.799 L 202.828 101.123 L 203.162 101.123 L 203.209 101.619 L 203.228 101.619 A 1.369 1.369 0 0 1 203.381 101.4 A 1.045 1.045 0 0 1 203.587 101.216 Q 203.797 101.074 204.049 101.074 A 1.861 1.861 0 0 1 204.215 101.081 A 1.358 1.358 0 0 1 204.368 101.104 Z M 205.274 101.123 L 205.274 103.799 L 204.869 103.799 L 204.869 101.123 L 205.274 101.123 Z M 207.259 103.738 L 206.773 103.738 A 0.932 0.932 0 0 0 206.605 103.752 Q 206.447 103.781 206.344 103.87 A 0.427 0.427 0 0 0 206.203 104.112 A 0.648 0.648 0 0 0 206.19 104.248 A 0.407 0.407 0 0 0 206.217 104.399 Q 206.26 104.508 206.373 104.578 A 0.649 0.649 0 0 0 206.532 104.646 Q 206.684 104.69 206.898 104.69 A 2.724 2.724 0 0 0 207.164 104.678 Q 207.43 104.652 207.598 104.568 A 0.673 0.673 0 0 0 207.653 104.537 A 0.591 0.591 0 0 0 207.79 104.423 A 0.443 0.443 0 0 0 207.899 104.124 A 0.548 0.548 0 0 0 207.889 104.015 Q 207.876 103.952 207.847 103.905 A 0.255 0.255 0 0 0 207.764 103.822 A 0.384 0.384 0 0 0 207.673 103.782 Q 207.576 103.752 207.423 103.743 A 2.579 2.579 0 0 0 207.259 103.738 Z M 206.5 102.326 A 0.434 0.434 0 0 0 206.568 102.405 A 0.524 0.524 0 0 0 206.779 102.519 Q 206.859 102.542 206.955 102.547 A 1.044 1.044 0 0 0 207.01 102.549 A 0.883 0.883 0 0 0 207.241 102.521 Q 207.603 102.423 207.603 101.973 A 0.871 0.871 0 0 0 207.573 101.734 Q 207.497 101.466 207.225 101.395 A 0.881 0.881 0 0 0 207.003 101.37 A 0.85 0.85 0 0 0 206.829 101.386 Q 206.723 101.408 206.642 101.46 A 0.466 0.466 0 0 0 206.563 101.523 A 0.486 0.486 0 0 0 206.446 101.722 Q 206.421 101.798 206.413 101.892 A 1.066 1.066 0 0 0 206.409 101.98 Q 206.409 102.192 206.5 102.326 Z M 204.903 100.194 A 0.19 0.19 0 0 0 204.861 100.254 Q 204.835 100.311 204.835 100.398 A 0.478 0.478 0 0 0 204.837 100.444 Q 204.847 100.546 204.903 100.602 Q 204.971 100.669 205.074 100.669 A 0.236 0.236 0 0 0 205.242 100.602 A 0.198 0.198 0 0 0 205.281 100.551 Q 205.313 100.49 205.313 100.398 Q 205.313 100.261 205.242 100.195 A 0.239 0.239 0 0 0 205.074 100.129 A 0.309 0.309 0 0 0 205.053 100.13 A 0.234 0.234 0 0 0 204.903 100.194 Z" id="right_labelLayer" stroke="#777777" fill="#777777" style="stroke:#777777;fill:#777777" vector-effect="non-scaling-stroke"/><path d="M 249 3 L 249 9.688 L 246 9.688 L 246 19.813 L 249 19.813 L 249 29.938 L 246 29.938 L 246 40.063 L 249 40.063 L 249 50.188 L 246 50.188 L 246 60.313 L 249 60.313 L 249 67 L 255.063 67 L 255.063 70 L 265.188 70 L 265.188 67 L 275.313 67 L 275.313 70 L 285.438 70 L 285.438 67 L 295.563 67 L 295.563 70 L 305.688 70 L 305.688 67 L 315.813 67 L 315.813 70 L 325.938 70 L 325.938 67 L 336.063 67 L 336.063 70 L 346.188 70 L 346.188 67 L 356.313 67 L 356.313 70 L 366.438 70 L 366.438 67 L 376.563 67 L 376.563 70 L 386.688 70 L 386.688 67 L 396.813 67 L 396.813 70 L 406.938 70 L 406.938 67 L 413 67 L 413 60.313 L 416 60.313 L 416 50.188 L 413 50.188 L 413 40.063 L 416 40.063 L 416 29.938 L 413 29.938 L 413 19.813 L 416 19.813 L 416 9.688 L 413 9.688 L 413 3 L 406.938 3 L 406.938 0 L 396.813 0 L 396.813 3 L 386.688 3 L 386.688 0 L 376.563 0 L 376.563 3 L 366.438 3 L 366.438 0 L 356.313 0 L 356.313 3 L 346.188 3 L 346.188 0 L 336.063 0 L 336.063 3 L 325.938 3 L 325.938 0 L 315.813 0 L 315.813 3 L 305.688 3 L 305.688 0 L 295.563 0 L 295.563 3 L 285.438 3 L 285.438 0 L 275.313 0 L 275.313 3 L 265.188 3 L 265.188 0 L 255.063 0 L 255.063 3 L 249 3 Z" id="bottom_outsideCutPath" stroke="#FF0000" stroke-width="0.1" style="stroke:#FF0000;stroke-width:0.1" vector-effect="non-scaling-stroke"/><path d="M 354.03 40.25 L 352.895 40.25 L 352.895 35.376 A 3.348 3.348 0 0 0 352.862 34.884 Q 352.824 34.632 352.745 34.43 A 1.371 1.371 0 0 0 352.513 34.033 A 1.194 1.194 0 0 0 351.958 33.674 Q 351.76 33.61 351.519 33.592 A 2.634 2.634 0 0 0 351.323 33.585 A 2.92 2.92 0 0 0 350.729 33.641 Q 350.376 33.715 350.109 33.884 A 1.503 1.503 0 0 0 349.758 34.193 A 1.875 1.875 0 0 0 349.44 34.769 Q 349.253 35.292 349.252 36.055 A 6.277 6.277 0 0 0 349.252 36.066 L 349.252 40.25 L 348.117 40.25 L 348.117 35.376 A 3.348 3.348 0 0 0 348.083 34.884 Q 348.046 34.632 347.967 34.43 A 1.371 1.371 0 0 0 347.734 34.033 Q 347.352 33.585 346.538 33.585 Q 345.794 33.585 345.328 33.896 A 1.487 1.487 0 0 0 344.976 34.224 Q 344.48 34.863 344.48 36.319 L 344.48 40.25 L 343.346 40.25 L 343.346 32.758 L 344.269 32.758 L 344.453 33.783 L 344.508 33.783 A 2.23 2.23 0 0 1 345.414 32.929 A 2.694 2.694 0 0 1 346.478 32.63 A 3.254 3.254 0 0 1 346.723 32.621 A 3.715 3.715 0 0 1 347.559 32.708 Q 348.073 32.827 348.432 33.109 A 1.937 1.937 0 0 1 349.019 33.892 L 349.074 33.892 A 2.369 2.369 0 0 1 349.967 33.006 A 2.847 2.847 0 0 1 350.045 32.963 A 2.872 2.872 0 0 1 351.098 32.642 A 3.581 3.581 0 0 1 351.494 32.621 A 3.945 3.945 0 0 1 352.21 32.682 Q 352.607 32.755 352.918 32.918 A 1.87 1.87 0 0 1 353.398 33.274 A 1.954 1.954 0 0 1 353.817 33.96 Q 354.03 34.529 354.03 35.362 L 354.03 40.25 Z M 309.104 39.286 L 309.022 39.286 L 308.783 40.25 L 307.97 40.25 L 307.97 29.613 L 309.104 29.613 L 309.104 32.197 A 23.659 23.659 0 0 1 309.092 32.996 Q 309.078 33.4 309.05 33.756 L 309.104 33.756 A 2.58 2.58 0 0 1 310.988 32.662 A 3.876 3.876 0 0 1 311.456 32.635 A 3.468 3.468 0 0 1 312.432 32.765 A 2.596 2.596 0 0 1 313.749 33.643 A 3.344 3.344 0 0 1 314.336 34.772 Q 314.566 35.516 314.566 36.497 A 6.653 6.653 0 0 1 314.478 37.616 Q 314.297 38.677 313.743 39.365 A 2.686 2.686 0 0 1 311.833 40.369 A 3.849 3.849 0 0 1 311.456 40.387 A 3.442 3.442 0 0 1 310.591 40.281 A 2.995 2.995 0 0 1 310.12 40.117 A 2.513 2.513 0 0 1 309.104 39.286 Z M 328.45 39.313 L 328.45 40.181 Q 328.283 40.262 327.974 40.317 A 4.246 4.246 0 0 1 327.907 40.328 Q 327.548 40.387 327.261 40.387 Q 325.087 40.387 325.087 38.097 L 325.087 33.639 L 324.014 33.639 L 324.014 33.093 L 325.087 32.621 L 325.565 31.021 L 326.222 31.021 L 326.222 32.758 L 328.395 32.758 L 328.395 33.639 L 326.222 33.639 L 326.222 38.049 A 2.285 2.285 0 0 0 326.255 38.45 Q 326.325 38.841 326.543 39.088 A 1.054 1.054 0 0 0 327.191 39.433 A 1.517 1.517 0 0 0 327.425 39.45 A 3.727 3.727 0 0 0 327.971 39.411 A 3.435 3.435 0 0 0 328.006 39.406 Q 328.273 39.363 328.435 39.318 A 1.704 1.704 0 0 0 328.45 39.313 Z M 333.393 39.313 L 333.393 40.181 Q 333.226 40.262 332.917 40.317 A 4.246 4.246 0 0 1 332.849 40.328 Q 332.49 40.387 332.203 40.387 Q 330.029 40.387 330.029 38.097 L 330.029 33.639 L 328.956 33.639 L 328.956 33.093 L 330.029 32.621 L 330.508 31.021 L 331.164 31.021 L 331.164 32.758 L 333.338 32.758 L 333.338 33.639 L 331.164 33.639 L 331.164 38.049 A 2.285 2.285 0 0 0 331.197 38.45 Q 331.267 38.841 331.485 39.088 A 1.054 1.054 0 0 0 332.133 39.433 A 1.517 1.517 0 0 0 332.367 39.45 A 3.727 3.727 0 0 0 332.913 39.411 A 3.435 3.435 0 0 0 332.948 39.406 Q 333.216 39.363 333.377 39.318 A 1.704 1.704 0 0 0 333.393 39.313 Z M 322.911 37.637 A 5.862 5.862 0 0 0 323.016 36.497 A 6.66 6.66 0 0 0 323.013 36.317 Q 322.968 34.659 322.089 33.667 A 2.971 2.971 0 0 0 320.71 32.777 A 3.813 3.813 0 0 0 319.591 32.621 A 4.407 4.407 0 0 0 318.799 32.689 A 3.002 3.002 0 0 0 317.048 33.643 A 3.135 3.135 0 0 0 316.663 34.177 Q 316.132 35.102 316.132 36.497 A 5.677 5.677 0 0 0 316.203 37.416 A 4.198 4.198 0 0 0 316.556 38.561 A 3.73 3.73 0 0 0 316.638 38.723 A 3.072 3.072 0 0 0 317.759 39.915 A 3.16 3.16 0 0 0 318.484 40.237 A 3.644 3.644 0 0 0 319.543 40.387 A 4.406 4.406 0 0 0 320.312 40.322 A 3.025 3.025 0 0 0 322.093 39.358 A 3.166 3.166 0 0 0 322.47 38.84 Q 322.777 38.314 322.911 37.637 Z M 341.252 37.637 A 5.862 5.862 0 0 0 341.356 36.497 A 6.66 6.66 0 0 0 341.354 36.317 Q 341.309 34.659 340.43 33.667 A 2.971 2.971 0 0 0 339.051 32.777 A 3.813 3.813 0 0 0 337.932 32.621 A 4.407 4.407 0 0 0 337.14 32.689 A 3.002 3.002 0 0 0 335.389 33.643 A 3.135 3.135 0 0 0 335.004 34.177 Q 334.473 35.102 334.473 36.497 A 5.677 5.677 0 0 0 334.544 37.416 A 4.198 4.198 0 0 0 334.896 38.561 A 3.73 3.73 0 0 0 334.979 38.723 A 3.072 3.072 0 0 0 336.1 39.915 A 3.16 3.16 0 0 0 336.825 40.237 A 3.644 3.644 0 0 0 337.884 40.387 A 4.406 4.406 0 0 0 338.653 40.322 A 3.025 3.025 0 0 0 340.434 39.358 A 3.166 3.166 0 0 0 340.81 38.84 Q 341.118 38.314 341.252 37.637 Z M 317.308 36.497 A 5.746 5.746 0 0 0 317.362 37.318 Q 317.423 37.735 317.549 38.072 A 2.381 2.381 0 0 0 317.882 38.684 Q 318.456 39.436 319.57 39.436 A 2.636 2.636 0 0 0 320.266 39.35 A 1.834 1.834 0 0 0 321.262 38.688 A 2.436 2.436 0 0 0 321.641 37.949 Q 321.753 37.608 321.802 37.191 A 5.977 5.977 0 0 0 321.84 36.497 Q 321.84 35.58 321.602 34.947 A 2.336 2.336 0 0 0 321.262 34.326 A 1.867 1.867 0 0 0 320.102 33.634 A 2.862 2.862 0 0 0 319.557 33.585 A 2.701 2.701 0 0 0 318.884 33.664 A 1.807 1.807 0 0 0 317.875 34.316 Q 317.467 34.843 317.352 35.741 A 5.996 5.996 0 0 0 317.308 36.497 Z M 335.648 36.497 A 5.746 5.746 0 0 0 335.703 37.318 Q 335.763 37.735 335.89 38.072 A 2.381 2.381 0 0 0 336.223 38.684 Q 336.797 39.436 337.911 39.436 A 2.636 2.636 0 0 0 338.606 39.35 A 1.834 1.834 0 0 0 339.603 38.688 A 2.436 2.436 0 0 0 339.982 37.949 Q 340.094 37.608 340.143 37.191 A 5.977 5.977 0 0 0 340.181 36.497 Q 340.181 35.58 339.943 34.947 A 2.336 2.336 0 0 0 339.603 34.326 A 1.867 1.867 0 0 0 338.442 33.634 A 2.862 2.862 0 0 0 337.897 33.585 A 2.701 2.701 0 0 0 337.225 33.664 A 1.807 1.807 0 0 0 336.216 34.316 Q 335.807 34.843 335.693 35.741 A 5.996 5.996 0 0 0 335.648 36.497 Z M 311.292 33.585 A 3.189 3.189 0 0 0 310.674 33.64 Q 310.323 33.71 310.055 33.866 A 1.509 1.509 0 0 0 309.617 34.251 A 1.943 1.943 0 0 0 309.336 34.787 Q 309.146 35.319 309.112 36.127 A 8.743 8.743 0 0 0 309.104 36.497 A 7.503 7.503 0 0 0 309.142 37.272 Q 309.244 38.257 309.631 38.756 A 1.646 1.646 0 0 0 310.466 39.32 Q 310.745 39.407 311.086 39.429 A 3.649 3.649 0 0 0 311.319 39.436 A 2.262 2.262 0 0 0 311.962 39.35 A 1.632 1.632 0 0 0 312.878 38.674 A 2.605 2.605 0 0 0 313.2 37.977 Q 313.391 37.354 313.391 36.483 Q 313.391 35.096 312.93 34.379 A 1.883 1.883 0 0 0 312.878 34.303 A 1.655 1.655 0 0 0 311.824 33.636 A 2.624 2.624 0 0 0 311.292 33.585 Z" id="bottom_labelLayer" stroke="#777777" fill="#777777" style="stroke:#777777;fill:#777777" vector-effect="non-scaling-stroke"/></g></svg>