0
SECTION
2
HEADER
9
$INSUNITS
70
4
0
ENDSEC
0
SECTION
2
TABLES
0
TABLE
2
LTYPE
0
LTYPE
72
65
70
64
2
CONTINUOUS
3
______
73
0
40
0
0
ENDTAB
0
TABLE
2
LAYER
0
ENDTAB
0
ENDSEC
0
SECTION
2
ENTITIES
0
LINE
8
front_outsideCutPath
10
0
20
28
11
0
21
20.5625
0
LINE
8
front_outsideCutPath
10
0
20
20.5625
11
3
21
20.5625
0
LINE
8
front_outsideCutPath
10
3
20
20.5625
11
3
21
10.4375
0
LINE
8
front_outsideCutPath
10
3
20
10.4375
11
0
21
10.4375
0
LINE
8
front_outsideCutPath
10
0
20
10.4375
11
0
21
3
0
LINE
8
front_outsideCutPath
10
0
20
3
11
9.0625
21
3
0
LINE
8
front_outsideCutPath
10
9.0625
20
3
11
9.0625
21
6
0
LINE
8
front_outsideCutPath
10
9.0625
20
6
11
19.1875
21
6
0
LINE
8
front_outsideCutPath
10
19.1875
20
6
11
19.1875
21
3
0
LINE
8
front_outsideCutPath
10
19.1875
20
3
11
29.3125
21
3
0
LINE
8
front_outsideCutPath
10
29.3125
20
3
11
29.3125
21
6
0
LINE
8
front_outsideCutPath
10
29.3125
20
6
11
39.4375
21
6
0
LINE
8
front_outsideCutPath
10
39.4375
20
6
11
39.4375
21
3
0
LINE
8
front_outsideCutPath
10
39.4375
20
3
11
49.5625
21
3
0
LINE
8
front_outsideCutPath
10
49.5625
20
3
11
49.5625
21
6
0
LINE
8
front_outsideCutPath
10
49.5625
20
6
11
59.6875
21
6
0
LINE
8
front_outsideCutPath
10
59.6875
20
6
11
59.6875
21
3
0
LINE
8
front_outsideCutPath
10
59.6875
20
3
11
69.8125
21
3
0
LINE
8
front_outsideCutPath
10
69.8125
20
3
11
69.8125
21
6
0
LINE
8
front_outsideCutPath
10
69.8125
20
6
11
79.9375
21
6
0
LINE
8
front_outsideCutPath
10
79.9375
20
6
11
79.9375
21
3
0
LINE
8
front_outsideCutPath
10
79.9375
20
3
11
90.0625
21
3
0
LINE
8
front_outsideCutPath
10
90.0625
20
3
11
90.0625
21
6
0
LINE
8
front_outsideCutPath
10
90.0625
20
6
11
100.1875
21
6
0
LINE
8
front_outsideCutPath
10
100.1875
20
6
11
100.1875
21
3
0
LINE
8
front_outsideCutPath
10
100.1875
20
3
11
110.3125
21
3
0
LINE
8
front_outsideCutPath
10
110.3125
20
3
11
110.3125
21
6
0
LINE
8
front_outsideCutPath
10
110.3125
20
6
11
120.4375
21
6
0
LINE
8
front_outsideCutPath
10
120.4375
20
6
11
120.4375
21
3
0
LINE
8
front_outsideCutPath
10
120.4375
20
3
11
130.5625
21
3
0
LINE
8
front_outsideCutPath
10
130.5625
20
3
11
130.5625
21
6
0
LINE
8
front_outsideCutPath
10
130.5625
20
6
11
140.6875
21
6
0
LINE
8
front_outsideCutPath
10
140.6875
20
6
11
140.6875
21
3
0
LINE
8
front_outsideCutPath
10
140.6875
20
3
11
150.8125
21
3
0
LINE
8
front_outsideCutPath
10
150.8125
20
3
11
150.8125
21
6
0
LINE
8
front_outsideCutPath
10
150.8125
20
6
11
160.9375
21
6
0
LINE
8
front_outsideCutPath
10
160.9375
20
6
11
160.9375
21
3
0
LINE
8
front_outsideCutPath
10
160.9375
20
3
11
170
21
3
0
LINE
8
front_outsideCutPath
10
170
20
3
11
170
21
10.4375
0
LINE
8
front_outsideCutPath
10
170
20
10.4375
11
167
21
10.4375
0
LINE
8
front_outsideCutPath
10
167
20
10.4375
11
167
21
20.5625
0
LINE
8
front_outsideCutPath
10
167
20
20.5625
11
170
21
20.5625
0
LINE
8
front_outsideCutPath
10
170
20
20.5625
11
170
21
28
0
LINE
8
front_outsideCutPath
10
170
20
28
11
160.9375
21
28
0
LINE
8
front_outsideCutPath
10
160.9375
20
28
11
160.9375
21
25
0
LINE
8
front_outsideCutPath
10
160.9375
20
25
11
150.8125
21
25
0
LINE
8
front_outsideCutPath
10
150.8125
20
25
11
150.8125
21
28
0
LINE
8
front_outsideCutPath
10
150.8125
20
28
11
140.6875
21
28
0
LINE
8
front_outsideCutPath
10
140.6875
20
28
11
140.6875
21
25
0
LINE
8
front_outsideCutPath
10
140.6875
20
25
11
130.5625
21
25
0
LINE
8
front_outsideCutPath
10
130.5625
20
25
11
130.5625
21
28
0
LINE
8
front_outsideCutPath
10
130.5625
20
28
11
120.4375
21
28
0
LINE
8
front_outsideCutPath
10
120.4375
20
28
11
120.4375
21
25
0
LINE
8
front_outsideCutPath
10
120.4375
20
25
11
110.3125
21
25
0
LINE
8
front_outsideCutPath
10
110.3125
20
25
11
110.3125
21
28
0
LINE
8
front_outsideCutPath
10
110.3125
20
28
11
100.1875
21
28
0
LINE
8
front_outsideCutPath
10
100.1875
20
28
11
100.1875
21
25
0
LINE
8
front_outsideCutPath
10
100.1875
20
25
11
90.0625
21
25
0
LINE
8
front_outsideCutPath
10
90.0625
20
25
11
90.0625
21
28
0
LINE
8
front_outsideCutPath
10
90.0625
20
28
11
79.9375
21
28
0
LINE
8
front_outsideCutPath
10
79.9375
20
28
11
79.9375
21
25
0
LINE
8
front_outsideCutPath
10
79.9375
20
25
11
69.8125
21
25
0
LINE
8
front_outsideCutPath
10
69.8125
20
25
11
69.8125
21
28
0
LINE
8
front_outsideCutPath
10
69.8125
20
28
11
59.6875
21
28
0
LINE
8
front_outsideCutPath
10
59.6875
20
28
11
59.6875
21
25
0
LINE
8
front_outsideCutPath
10
59.6875
20
25
11
49.5625
21
25
0
LINE
8
front_outsideCutPath
10
49.5625
20
25
11
49.5625
21
28
0
LINE
8
front_outsideCutPath
10
49.5625
20
28
11
39.4375
21
28
0
LINE
8
front_outsideCutPath
10
39.4375
20
28
11
39.4375
21
25
0
LINE
8
front_outsideCutPath
10
39.4375
20
25
11
29.3125
21
25
0
LINE
8
front_outsideCutPath
10
29.3125
20
25
11
29.3125
21
28
0
LINE
8
front_outsideCutPath
10
29.3125
20
28
11
19.1875
21
28
0
LINE
8
front_outsideCutPath
10
19.1875
20
28
11
19.1875
21
25
0
LINE
8
front_outsideCutPath
10
19.1875
20
25
11
9.0625
21
25
0
LINE
8
front_outsideCutPath
10
9.0625
20
25
11
9.0625
21
28
0
LINE
8
front_outsideCutPath
10
9.0625
20
28
11
0
21
28
0
LINE
8
front_labelLayer
10
80.8581543
20
16.2874064
11
80.8581543
21
15.972465
0
LINE
8
front_labelLayer
10
80.8581543
20
15.972465
11
80.177002
21
15.972465
0
LINE
8
front_labelLayer
10
80.177002
20
15.972465
11
80.177002
21
13.6116252
0
LINE
8
front_labelLayer
10
80.177002
20
13.6116252
11
79.7717285
21
13.6116252
0
LINE
8
front_labelLayer
10
79.7717285
20
13.6116252
11
79.7717285
21
15.972465
0
LINE
8
front_labelLayer
10
79.7717285
20
15.972465
11
79.2932129
21
15.972465
0
LINE
8
front_labelLayer
10
79.2932129
20
15.972465
11
79.2932129
21
16.1555705
0
LINE
8
front_labelLayer
10
79.2932129
20
16.1555705
11
79.7717285
21
16.3020548
0
LINE
8
front_labelLayer
10
79.7717285
20
16.3020548
11
79.7717285
21
16.4509806
0
LINE
8
front_labelLayer
10
81.1315918
20
17.3518595
11
81.0266113
21
17.0271525
0
LINE
8
front_labelLayer
10
80.177002
20
16.4607463
11
80.177002
21
16.2874064
0
LINE
8
front_labelLayer
10
80.177002
20
16.2874064
11
80.8581543
21
16.2874064
0
ARC
8
front_labelLayer
10
81.4141677
20
16.4698621
40
1.6425477
50
167.5776283
51
180.6586437
0
ARC
8
front_labelLayer
10
80.6417815
20
16.6499373
40
0.8495627
50
141.7433413
51
168.2322422
0
ARC
8
front_labelLayer
10
80.5160253
20
16.7155725
40
0.7106607
50
98.2551437
51
139.6203136
0
ARC
8
front_labelLayer
10
80.6264444
20
16.2054783
40
1.231851
50
89.669739
51
99.9314354
0
ARC
8
front_labelLayer
10
80.6267513
20
16.1322453
40
1.3050811
50
81.5641331
51
89.7017438
0
ARC
8
front_labelLayer
10
80.5350001
20
15.4921415
40
1.9517221
50
75.9740582
51
81.6564947
0
ARC
8
front_labelLayer
10
80.3775832
20
14.8392077
40
2.6233468
50
73.2962995
51
76.0946657
0
ARC
8
front_labelLayer
10
80.4171822
20
15.1558105
40
1.9680764
50
71.9614234
51
76.5917286
0
ARC
8
front_labelLayer
10
80.5698873
20
15.8035894
40
1.302545
50
76.5182849
51
83.0217313
0
ARC
8
front_labelLayer
10
80.623069
20
16.2312872
40
0.8715546
50
83.0760007
51
89.7928058
0
ARC
8
front_labelLayer
10
80.6213161
20
16.5563039
40
0.5465542
50
89.485836
51
103.4196916
0
ARC
8
front_labelLayer
10
80.5720408
20
16.7456159
40
0.3509978
50
102.7677295
51
144.3380635
0
ARC
8
front_labelLayer
10
80.6713149
20
16.6817423
40
0.4689317
50
145.0689248
51
162.1800984
0
ARC
8
front_labelLayer
10
81.0116768
20
16.5672286
40
0.8280226
50
161.8437984
51
171.7847242
0
ARC
8
front_labelLayer
10
81.5667932
20
16.4838501
40
1.3893604
50
171.6527305
51
178.4384165
0
ARC
8
front_labelLayer
10
82.0904863
20
16.4615139
40
1.9134847
50
178.197175
51
180.0229845
0
LINE
8
front_labelLayer
10
82.8869629
20
16.3069377
11
82.8308105
21
15.9309611
0
LINE
8
front_labelLayer
10
81.751709
20
15.047172
11
81.751709
21
13.6116252
0
LINE
8
front_labelLayer
10
81.751709
20
13.6116252
11
81.3464355
21
13.6116252
0
LINE
8
front_labelLayer
10
81.3464355
20
13.6116252
11
81.3464355
21
16.2874064
0
LINE
8
front_labelLayer
10
81.3464355
20
16.2874064
11
81.6809082
21
16.2874064
0
LINE
8
front_labelLayer
10
81.6809082
20
16.2874064
11
81.7272949
21
15.7918009
0
LINE
8
front_labelLayer
10
81.7272949
20
15.7918009
11
81.7468262
21
15.7918009
0
ARC
8
front_labelLayer
10
82.5713007
20
14.4757104
40
1.8605288
50
84.99231
51
90.1281706
0
ARC
8
front_labelLayer
10
82.6159775
20
14.9762844
40
1.3579658
50
78.4892132
51
85.026549
0
ARC
8
front_labelLayer
10
82.4425597
20
14.1875494
40
1.7861195
50
77.4453267
51
81.6360495
0
ARC
8
front_labelLayer
10
82.5203766
20
14.7239486
40
1.2441066
50
81.5883502
51
87.1916744
0
ARC
8
front_labelLayer
10
82.537273
20
15.0169879
40
0.9505947
50
87.343484
51
89.9657156
0
ARC
8
front_labelLayer
10
82.5333505
20
15.2653774
40
0.7022192
50
89.63354
51
137.088063
0
ARC
8
front_labelLayer
10
82.7056189
20
15.071643
40
0.9606123
50
135.6207359
51
138.8378665
0
ARC
8
front_labelLayer
10
82.6804353
20
15.0962289
40
0.9254726
50
138.9575937
51
174.5422358
0
ARC
8
front_labelLayer
10
82.9818385
20
15.049069
40
1.2301308
50
173.6908194
51
180.0883533
0
ARC
8
front_labelLayer
10
82.9392373
20
15.1200006
40
1.3686343
50
139.4139858
51
150.6032391
0
ARC
8
front_labelLayer
10
82.6938291
20
15.3302881
40
1.0454532
50
124.2320942
51
139.4161144
0
ARC
8
front_labelLayer
10
82.5626219
20
15.5283465
40
0.8079007
50
89.6796707
51
124.440559
0
ARC
8
front_labelLayer
10
83.6036694
20
14.9378435
40
2.0933997
50
349.1761997
51
0.3862913
0
ARC
8
front_labelLayer
10
84.3084674
20
14.797341
40
1.3747671
50
330.2506745
51
349.4116456
0
ARC
8
front_labelLayer
10
84.5253684
20
14.6846036
40
1.1305538
50
318.1439562
51
329.7566217
0
ARC
8
front_labelLayer
10
84.5645141
20
14.6532321
40
1.0804677
50
278.8959328
51
317.997902
0
ARC
8
front_labelLayer
10
84.4636449
20
15.1365053
40
1.5737233
50
269.7503239
51
279.8033396
0
ARC
8
front_labelLayer
10
84.4472869
20
14.8642112
40
1.3014489
50
253.5437237
51
270.4182479
0
ARC
8
front_labelLayer
10
84.4039651
20
14.6966285
40
1.128474
50
238.8115731
51
253.242827
0
ARC
8
front_labelLayer
10
84.3899824
20
14.6685092
40
1.0971809
50
207.7946997
51
238.6758022
0
ARC
8
front_labelLayer
10
84.5905711
20
14.7913658
40
1.3320013
50
205.6560381
51
208.4462371
0
ARC
8
front_labelLayer
10
84.7451456
20
14.8557735
40
1.4992488
50
188.9102689
51
205.3171318
0
ARC
8
front_labelLayer
10
85.2659158
20
14.9439757
40
2.0274062
50
179.7744369
51
189.0933127
0
ARC
8
front_labelLayer
10
85.3427521
20
14.9662099
40
2.104275
50
169.2442975
51
180.3880788
0
ARC
8
front_labelLayer
10
84.6281526
20
15.1074606
40
1.3758799
50
150.7111035
51
169.4695583
0
ARC
8
front_labelLayer
10
84.4000343
20
15.2246089
40
1.1196525
50
138.1759271
51
150.2287439
0
ARC
8
front_labelLayer
10
84.3620898
20
15.2537273
40
1.0719651
50
99.1759431
51
137.9832829
0
ARC
8
front_labelLayer
10
84.4665319
20
14.7622163
40
1.5740354
50
89.7326341
51
100.0760179
0
ARC
8
front_labelLayer
10
84.4874069
20
14.9744828
40
1.3618189
50
73.5222697
51
90.5692545
0
ARC
8
front_labelLayer
10
84.5672699
20
15.2646443
40
1.0609371
50
41.1445375
51
73.2134081
0
ARC
8
front_labelLayer
10
84.4148167
20
15.1336126
40
1.2619572
50
13.5014371
51
41.0703286
0
ARC
8
front_labelLayer
10
83.8258136
20
14.9794794
40
1.870709
50
1.1277525
51
13.8799735
0
ARC
8
front_labelLayer
10
83.3182442
20
14.9522862
40
2.3787775
50
359.9920745
51
1.5419923
0
ARC
8
front_labelLayer
10
85.7107175
20
14.941425
40
2.0522972
50
179.7059623
51
187.9160759
0
ARC
8
front_labelLayer
10
84.9580101
20
14.8333006
40
1.2918759
50
187.7639807
51
200.0976275
0
ARC
8
front_labelLayer
10
84.5433342
20
14.6813648
40
0.8502419
50
200.0846249
51
216.9130786
0
ARC
8
front_labelLayer
10
84.3919054
20
14.5732383
40
0.6642415
50
217.3009192
51
261.7099505
0
ARC
8
front_labelLayer
10
84.4622005
20
14.9086727
40
1.0065296
50
260.5032898
51
270.2477491
0
ARC
8
front_labelLayer
10
84.4756197
20
14.8434502
40
0.9413414
50
269.4481197
51
284.7256031
0
ARC
8
front_labelLayer
10
84.5501401
20
14.5670807
40
0.6551096
50
284.5662238
51
322.6334155
0
ARC
8
front_labelLayer
10
84.3759031
20
14.6929594
40
0.8700038
50
323.0089434
51
342.6389802
0
ARC
8
front_labelLayer
10
83.8775762
20
14.8558281
40
1.3942436
50
342.3614914
51
353.7538041
0
ARC
8
front_labelLayer
10
83.1423436
20
14.9444526
40
2.1347692
50
353.536284
51
0.2014178
0
ARC
8
front_labelLayer
10
83.2549815
20
14.9622768
40
2.0221445
50
359.7076012
51
7.8973002
0
ARC
8
front_labelLayer
10
83.9955564
20
15.0684473
40
1.2740104
50
7.7439373
51
20.0690458
0
ARC
8
front_labelLayer
10
84.408223
20
15.2198815
40
0.8344361
50
20.0256764
51
37.4350845
0
ARC
8
front_labelLayer
10
84.5451417
20
15.3170371
40
0.6666874
50
37.9577905
51
80.4006294
0
ARC
8
front_labelLayer
10
84.4673347
20
14.9698725
40
1.0221393
50
79.345333
51
90.3175412
0
ARC
8
front_labelLayer
10
84.4529264
20
15.0275318
40
0.964504
50
89.4805913
51
103.8804949
0
ARC
8
front_labelLayer
10
84.3718836
20
15.3361443
40
0.6454783
50
103.4685436
51
142.3118899
0
ARC
8
front_labelLayer
10
84.5294374
20
15.2253415
40
0.8379439
50
142.9025848
51
162.3749848
0
ARC
8
front_labelLayer
10
85.0258991
20
15.0598969
40
1.3612153
50
162.0653286
51
173.1674421
0
ARC
8
front_labelLayer
10
85.7999802
20
14.9611664
40
2.1415529
50
173.0085677
51
180.2463882
0
LINE
8
front_labelLayer
10
88.6437988
20
13.6116252
11
88.2385254
21
13.6116252
0
LINE
8
front_labelLayer
10
88.2385254
20
13.6116252
11
88.2385254
21
15.3425822
0
LINE
8
front_labelLayer
10
86.8127441
20
15.0154338
11
86.8127441
21
13.6116252
0
LINE
8
front_labelLayer
10
86.8127441
20
13.6116252
11
86.4074707
21
13.6116252
0
LINE
8
front_labelLayer
10
86.4074707
20
13.6116252
11
86.4074707
21
16.2874064
0
LINE
8
front_labelLayer
10
86.4074707
20
16.2874064
11
86.7370605
21
16.2874064
0
LINE
8
front_labelLayer
10
86.7370605
20
16.2874064
11
86.8029785
21
15.9211955
0
LINE
8
front_labelLayer
10
86.8029785
20
15.9211955
11
86.8225098
21
15.9211955
0
LINE
8
front_labelLayer
10
88.6437988
20
15.3572306
11
88.6437988
21
13.6116252
0
ARC
8
front_labelLayer
10
87.0929435
20
15.3491521
40
1.1456007
50
359.6714119
51
8.6877663
0
ARC
8
front_labelLayer
10
87.5175365
20
15.416491
40
0.7157121
50
8.4931106
51
22.6580452
0
ARC
8
front_labelLayer
10
87.733259
20
15.5061397
40
0.4821038
50
22.7023903
51
42.3420753
0
ARC
8
front_labelLayer
10
87.7575028
20
15.517044
40
0.4569146
50
43.3791446
51
71.5385507
0
ARC
8
front_labelLayer
10
87.6668264
20
15.2636702
40
0.7259861
50
71.0827818
51
84.3690559
0
ARC
8
front_labelLayer
10
87.6261239
20
14.9175937
40
1.0744062
50
84.0198126
51
90.1510699
0
ARC
8
front_labelLayer
10
87.6145847
20
14.7654589
40
1.2265682
50
89.5933059
51
100.3718551
0
ARC
8
front_labelLayer
10
87.5279043
20
15.220237
40
0.7636232
50
100.1176776
51
118.1602542
0
ARC
8
front_labelLayer
10
87.4405514
20
15.3915297
40
0.5713939
50
118.5439691
51
139.192689
0
ARC
8
front_labelLayer
10
87.5167205
20
15.3404194
40
0.6625415
50
140.1519467
51
160.3145717
0
ARC
8
front_labelLayer
10
87.9766746
20
15.1681425
40
1.1536695
50
159.9535027
51
171.3800561
0
ARC
8
front_labelLayer
10
88.7279978
20
15.0473723
40
1.914619
50
171.1766208
51
178.3217795
0
ARC
8
front_labelLayer
10
89.4093584
20
15.0165
40
2.5966145
50
178.0811637
51
180.0235277
0
ARC
8
front_labelLayer
10
87.5157925
20
15.4821167
40
0.8206285
50
116.9443284
51
147.6525737
0
ARC
8
front_labelLayer
10
87.6012227
20
15.3392222
40
0.9867877
50
115.8071665
51
117.6066939
0
ARC
8
front_labelLayer
10
87.6448776
20
15.2374289
40
1.0974449
50
94.3227173
51
115.5453892
0
ARC
8
front_labelLayer
10
87.6711414
20
15.0092863
40
1.3269487
50
89.9577806
51
94.7110242
0
ARC
8
front_labelLayer
10
87.6820003
20
14.7361785
40
1.6000865
50
80.5585227
51
90.3538264
0
ARC
8
front_labelLayer
10
87.781998
20
15.315396
40
1.0123182
50
65.1093591
51
80.7638742
0
ARC
8
front_labelLayer
10
87.8988868
20
15.574298
40
0.7282738
50
46.5584481
51
64.8782677
0
ARC
8
front_labelLayer
10
87.908242
20
15.6012671
40
0.7023577
50
19.3848814
51
45.5997402
0
ARC
8
front_labelLayer
10
87.501895
20
15.4488002
40
1.1363098
50
6.9634107
51
19.8362741
0
ARC
8
front_labelLayer
10
86.8751984
20
15.3645402
40
1.7686156
50
359.7631981
51
7.2115807
0
LINE
8
front_labelLayer
10
90.7067871
20
13.9460978
11
90.7067871
21
13.6360392
0
LINE
8
front_labelLayer
10
89.5056152
20
14.3806681
11
89.5056152
21
15.972465
0
LINE
8
front_labelLayer
10
89.5056152
20
15.972465
11
89.1223145
21
15.972465
0
LINE
8
front_labelLayer
10
89.1223145
20
15.972465
11
89.1223145
21
16.1677775
0
LINE
8
front_labelLayer
10
89.1223145
20
16.1677775
11
89.5056152
21
16.3362345
0
LINE
8
front_labelLayer
10
89.5056152
20
16.3362345
11
89.6765137
21
16.9075236
0
LINE
8
front_labelLayer
10
89.6765137
20
16.9075236
11
89.9108887
21
16.9075236
0
LINE
8
front_labelLayer
10
89.9108887
20
16.9075236
11
89.9108887
21
16.2874064
0
LINE
8
front_labelLayer
10
89.9108887
20
16.2874064
11
90.6872559
21
16.2874064
0
LINE
8
front_labelLayer
10
90.6872559
20
16.2874064
11
90.6872559
21
15.972465
0
LINE
8
front_labelLayer
10
90.6872559
20
15.972465
11
89.9108887
21
15.972465
0
LINE
8
front_labelLayer
10
89.9108887
20
15.972465
11
89.9108887
21
14.397758
0
ARC
8
front_labelLayer
10
90.3433568
20
15.2282309
40
1.3309642
50
269.8802997
51
278.3028363
0
ARC
8
front_labelLayer
10
90.3561196
20
15.1240095
40
1.2259943
50
278.4159829
51
279.0089104
0
ARC
8
front_labelLayer
10
90.2066872
20
16.0786981
40
2.1923063
50
278.9591523
51
280.5106391
0
ARC
8
front_labelLayer
10
90.3489019
20
15.3156183
40
1.4160879
50
280.4851954
51
282.6264461
0
ARC
8
front_labelLayer
10
90.4738501
20
14.7604754
40
0.847058
50
282.587502
51
285.5796152
0
ARC
8
front_labelLayer
10
90.5360512
20
14.5316118
40
0.6098994
50
285.7253995
51
286.2566896
0
ARC
8
front_labelLayer
10
90.5364011
20
13.9964134
40
0.3986239
50
287.9888329
51
295.3049282
0
ARC
8
front_labelLayer
10
90.4402614
20
14.2872734
40
0.7049584
50
283.3068847
51
288.1199544
0
ARC
8
front_labelLayer
10
90.3386647
20
14.7110818
40
1.140773
50
280.0070995
51
283.3733034
0
ARC
8
front_labelLayer
10
90.2708768
20
15.0788529
40
1.5147311
50
279.1862642
51
280.1148614
0
ARC
8
front_labelLayer
10
90.229025
20
15.316949
40
1.756458
50
275.5259205
51
279.2940497
0
ARC
8
front_labelLayer
10
90.2760185
20
14.8260817
40
1.2633467
50
270.8932729
51
275.5483032
0
ARC
8
front_labelLayer
10
90.2819405
20
14.600615
40
1.0378179
50
270.0023145
51
270.7604253
0
ARC
8
front_labelLayer
10
90.2656278
20
14.6211814
40
1.0585107
50
253.7847598
51
270.8852869
0
ARC
8
front_labelLayer
10
90.1402225
20
14.1935039
40
0.6128283
50
190.3817649
51
253.8772393
0
ARC
8
front_labelLayer
10
90.7794191
20
14.3663308
40
1.2738846
50
179.3551319
51
192.847745
0
ARC
8
front_labelLayer
10
90.7269435
20
14.3926529
40
0.8160708
50
179.6415763
51
189.7507023
0
ARC
8
front_labelLayer
10
90.438869
20
14.3412702
40
0.5234589
50
189.5480204
51
205.7872936
0
ARC
8
front_labelLayer
10
90.3204718
20
14.2866742
40
0.3931082
50
206.1294381
51
221.4083293
0
ARC
8
front_labelLayer
10
90.3071953
20
14.2766013
40
0.3764902
50
221.5949792
51
262.3504868
0
ARC
8
front_labelLayer
10
90.3387686
20
14.4389664
40
0.5416998
50
261.3266402
51
270.1911896
0
LINE
8
left_outsideCutPath
10
176
20
28
11
176
21
20.5625
0
LINE
8
left_outsideCutPath
10
176
20
20.5625
11
173
21
20.5625
0
LINE
8
left_outsideCutPath
10
173
20
20.5625
11
173
21
10.4375
0
LINE
8
left_outsideCutPath
10
173
20
10.4375
11
176
21
10.4375
0
LINE
8
left_outsideCutPath
10
176
20
10.4375
11
176
21
3
0
LINE
8
left_outsideCutPath
10
176
20
3
11
182.6875
21
3
0
LINE
8
left_outsideCutPath
10
182.6875
20
3
11
182.6875
21
6
0
LINE
8
left_outsideCutPath
10
182.6875
20
6
11
192.8125
21
6
0
LINE
8
left_outsideCutPath
10
192.8125
20
6
11
192.8125
21
3
0
LINE
8
left_outsideCutPath
10
192.8125
20
3
11
202.9375
21
3
0
LINE
8
left_outsideCutPath
10
202.9375
20
3
11
202.9375
21
6
0
LINE
8
left_outsideCutPath
10
202.9375
20
6
11
213.0625
21
6
0
LINE
8
left_outsideCutPath
10
213.0625
20
6
11
213.0625
21
3
0
LINE
8
left_outsideCutPath
10
213.0625
20
3
11
223.1875
21
3
0
LINE
8
left_outsideCutPath
10
223.1875
20
3
11
223.1875
21
6
0
LINE
8
left_outsideCutPath
10
223.1875
20
6
11
233.3125
21
6
0
LINE
8
left_outsideCutPath
10
233.3125
20
6
11
233.3125
21
3
0
LINE
8
left_outsideCutPath
10
233.3125
20
3
11
240
21
3
0
LINE
8
left_outsideCutPath
10
240
20
3
11
240
21
10.4375
0
LINE
8
left_outsideCutPath
10
240
20
10.4375
11
243
21
10.4375
0
LINE
8
left_outsideCutPath
10
243
20
10.4375
11
243
21
20.5625
0
LINE
8
left_outsideCutPath
10
243
20
20.5625
11
240
21
20.5625
0
LINE
8
left_outsideCutPath
10
240
20
20.5625
11
240
21
28
0
LINE
8
left_outsideCutPath
10
240
20
28
11
233.3125
21
28
0
LINE
8
left_outsideCutPath
10
233.3125
20
28
11
233.3125
21
25
0
LINE
8
left_outsideCutPath
10
233.3125
20
25
11
223.1875
21
25
0
LINE
8
left_outsideCutPath
10
223.1875
20
25
11
223.1875
21
28
0
LINE
8
left_outsideCutPath
10
223.1875
20
28
11
213.0625
21
28
0
LINE
8
left_outsideCutPath
10
213.0625
20
28
11
213.0625
21
25
0
LINE
8
left_outsideCutPath
10
213.0625
20
25
11
202.9375
21
25
0
LINE
8
left_outsideCutPath
10
202.9375
20
25
11
202.9375
21
28
0
LINE
8
left_outsideCutPath
10
202.9375
20
28
11
192.8125
21
28
0
LINE
8
left_outsideCutPath
10
192.8125
20
28
11
192.8125
21
25
0
LINE
8
left_outsideCutPath
10
192.8125
20
25
11
182.6875
21
25
0
LINE
8
left_outsideCutPath
10
182.6875
20
25
11
182.6875
21
28
0
LINE
8
left_outsideCutPath
10
182.6875
20
28
11
176
21
28
0
LINE
8
left_labelLayer
10
204.907959
20
17.4104533
11
204.907959
21
13.6116252
0
LINE
8
left_labelLayer
10
204.907959
20
13.6116252
11
204.5026855
21
13.6116252
0
LINE
8
left_labelLayer
10
204.5026855
20
13.6116252
11
204.5026855
21
17.4104533
0
LINE
8
left_labelLayer
10
204.5026855
20
17.4104533
11
204.907959
21
17.4104533
0
LINE
8
left_labelLayer
10
207.8815918
20
15.1326213
11
207.8815918
21
14.8762736
0
LINE
8
left_labelLayer
10
207.8815918
20
14.8762736
11
206.0383301
21
14.8762736
0
LINE
8
left_labelLayer
10
207.7668457
20
14.097465
11
207.7668457
21
13.7361369
0
LINE
8
left_labelLayer
10
206.0480957
20
15.2058634
11
207.4470215
21
15.2058634
0
ARC
8
left_labelLayer
10
206.8843792
20
15.1376151
40
1.5748744
50
256.0088004
51
270.4848157
0
ARC
8
left_labelLayer
10
206.7696982
20
14.692397
40
1.1151438
50
223.5465863
51
256.1956754
0
ARC
8
left_labelLayer
10
206.8329612
20
14.738377
40
1.1927196
50
194.0877038
51
223.0538203
0
ARC
8
left_labelLayer
10
207.4126372
20
14.8968975
40
1.7935911
50
181.3574441
51
194.4919932
0
ARC
8
left_labelLayer
10
207.9332332
20
14.9270809
40
2.3148249
50
179.9885586
51
181.7990718
0
ARC
8
left_labelLayer
10
207.7464512
20
14.9418174
40
2.1280908
50
168.9539475
51
180.3843165
0
ARC
8
left_labelLayer
10
207.0514207
20
15.0833368
40
1.4188336
50
149.4071083
51
169.1853861
0
ARC
8
left_labelLayer
10
206.8577742
20
15.1856514
40
1.200116
50
140.1056099
51
148.9067443
0
ARC
8
left_labelLayer
10
206.7388069
20
15.2953335
40
1.0385233
50
92.4762588
51
140.5386223
0
ARC
8
left_labelLayer
10
206.791817
20
14.903652
40
1.4325828
50
89.9637009
51
93.9177355
0
ARC
8
left_labelLayer
10
206.8044699
20
15.1015809
40
1.2347095
50
74.2125748
51
90.5450382
0
ARC
8
left_labelLayer
10
206.8818031
20
15.3865089
40
0.9394947
50
41.2064711
51
74.0232724
0
ARC
8
left_labelLayer
10
206.7353462
20
15.2597622
40
1.1331782
50
11.5994283
51
41.1495697
0
ARC
8
left_labelLayer
10
206.2321392
20
15.1437121
40
1.6494899
50
359.6147505
51
12.0336637
0
ARC
8
left_labelLayer
10
207.6646253
20
14.9087708
40
1.6266199
50
181.1447515
51
190.8007418
0
ARC
8
left_labelLayer
10
207.0907695
20
14.7955893
40
1.041727
50
190.6005762
51
206.0275437
0
ARC
8
left_labelLayer
10
206.8368766
20
14.6755594
40
0.760922
50
206.295016
51
222.5558261
0
ARC
8
left_labelLayer
10
206.814381
20
14.6637811
40
0.7364146
50
223.0645044
51
258.1401473
0
ARC
8
left_labelLayer
10
206.9039419
20
15.0325584
40
1.1157891
50
257.5311994
51
270.4319409
0
ARC
8
left_labelLayer
10
206.9049421
20
16.0572609
40
2.1404728
50
270.1983886
51
292.2090272
0
ARC
8
left_labelLayer
10
206.8021193
20
16.3525509
40
2.4527759
50
291.8254309
51
293.1612526
0
ARC
8
left_labelLayer
10
206.7972528
20
15.9675135
40
2.4329308
50
287.902222
51
293.4862357
0
ARC
8
left_labelLayer
10
206.9737094
20
15.4230793
40
1.8606151
50
281.9936581
51
287.8850582
0
ARC
8
left_labelLayer
10
207.0164988
20
15.269279
40
1.7013093
50
275.9054094
51
281.6604124
0
ARC
8
left_labelLayer
10
206.9308609
20
16.0686333
40
2.5052341
50
271.912059
51
275.9726642
0
ARC
8
left_labelLayer
10
206.8996169
20
16.8644624
40
3.3016658
50
269.9668234
51
271.9931594
0
ARC
8
left_labelLayer
10
206.7800641
20
15.1980302
40
0.7988867
50
89.4421818
51
106.2089452
0
ARC
8
left_labelLayer
10
206.7320042
20
15.3732677
40
0.6172054
50
106.4657548
51
137.9175782
0
ARC
8
left_labelLayer
10
206.8697987
20
15.2522627
40
0.8005754
50
138.0995098
51
160.5866564
0
ARC
8
left_labelLayer
10
207.2240045
20
15.1219572
40
1.1779655
50
160.335389
51
172.5315255
0
ARC
8
left_labelLayer
10
207.5727836
20
15.0660703
40
1.5310832
50
172.1543794
51
174.7614035
0
ARC
8
left_labelLayer
10
206.0660093
20
15.2137076
40
1.3810345
50
359.6745649
51
8.922455
0
ARC
8
left_labelLayer
10
206.5594904
20
15.2941126
40
0.8810591
50
8.7342306
51
23.2772249
0
ARC
8
left_labelLayer
10
206.7937632
20
15.392456
40
0.6269961
50
23.4820553
51
39.7072274
0
ARC
8
left_labelLayer
10
206.8513052
20
15.4355164
40
0.5552298
50
40.0822728
51
80.6243494
0
ARC
8
left_labelLayer
10
206.7920731
20
15.1640012
40
0.8328885
50
79.6468224
51
90.291078
0
LINE
8
left_labelLayer
10
209.7785645
20
16.2874064
11
209.7785645
21
15.972465
0
LINE
8
left_labelLayer
10
209.7785645
20
15.972465
11
209.0974121
21
15.972465
0
LINE
8
left_labelLayer
10
209.0974121
20
15.972465
11
209.0974121
21
13.6116252
0
LINE
8
left_labelLayer
10
209.0974121
20
13.6116252
11
208.6921387
21
13.6116252
0
LINE
8
left_labelLayer
10
208.6921387
20
13.6116252
11
208.6921387
21
15.972465
0
LINE
8
left_labelLayer
10
208.6921387
20
15.972465
11
208.213623
21
15.972465
0
LINE
8
left_labelLayer
10
208.213623
20
15.972465
11
208.213623
21
16.1555705
0
LINE
8
left_labelLayer
10
208.213623
20
16.1555705
11
208.6921387
21
16.3020548
0
LINE
8
left_labelLayer
10
208.6921387
20
16.3020548
11
208.6921387
21
16.4509806
0
LINE
8
left_labelLayer
10
210.052002
20
17.3518595
11
209.9470215
21
17.0271525
0
LINE
8
left_labelLayer
10
209.0974121
20
16.4607463
11
209.0974121
21
16.2874064
0
LINE
8
left_labelLayer
10
209.0974121
20
16.2874064
11
209.7785645
21
16.2874064
0
ARC
8
left_labelLayer
10
210.3345778
20
16.4698621
40
1.6425477
50
167.5776283
51
180.6586437
0
ARC
8
left_labelLayer
10
209.5621917
20
16.6499373
40
0.8495627
50
141.7433413
51
168.2322422
0
ARC
8
left_labelLayer
10
209.4364355
20
16.7155725
40
0.7106607
50
98.2551437
51
139.6203136
0
ARC
8
left_labelLayer
10
209.5468546
20
16.2054783
40
1.231851
50
89.669739
51
99.9314354
0
ARC
8
left_labelLayer
10
209.5471614
20
16.1322453
40
1.3050811
50
81.5641331
51
89.7017438
0
ARC
8
left_labelLayer
10
209.4554103
20
15.4921415
40
1.9517221
50
75.9740582
51
81.6564947
0
ARC
8
left_labelLayer
10
209.2979934
20
14.8392077
40
2.6233468
50
73.2962995
51
76.0946657
0
ARC
8
left_labelLayer
10
209.3375923
20
15.1558105
40
1.9680764
50
71.9614234
51
76.5917286
0
ARC
8
left_labelLayer
10
209.4902974
20
15.8035894
40
1.302545
50
76.5182849
51
83.0217313
0
ARC
8
left_labelLayer
10
209.5434791
20
16.2312872
40
0.8715546
50
83.0760007
51
89.7928058
0
ARC
8
left_labelLayer
10
209.5417262
20
16.5563039
40
0.5465542
50
89.485836
51
103.4196916
0
ARC
8
left_labelLayer
10
209.492451
20
16.7456159
40
0.3509978
50
102.7677295
51
144.3380635
0
ARC
8
left_labelLayer
10
209.5917251
20
16.6817423
40
0.4689317
50
145.0689248
51
162.1800984
0
ARC
8
left_labelLayer
10
209.932087
20
16.5672286
40
0.8280226
50
161.8437984
51
171.7847242
0
ARC
8
left_labelLayer
10
210.4872033
20
16.4838501
40
1.3893604
50
171.6527305
51
178.4384165
0
ARC
8
left_labelLayer
10
211.0108965
20
16.4615139
40
1.9134847
50
178.197175
51
180.0229845
0
LINE
8
left_labelLayer
10
211.4973145
20
13.9460978
11
211.4973145
21
13.6360392
0
LINE
8
left_labelLayer
10
210.2961426
20
14.3806681
11
210.2961426
21
15.972465
0
LINE
8
left_labelLayer
10
210.2961426
20
15.972465
11
209.9128418
21
15.972465
0
LINE
8
left_labelLayer
10
209.9128418
20
15.972465
11
209.9128418
21
16.1677775
0
LINE
8
left_labelLayer
10
209.9128418
20
16.1677775
11
210.2961426
21
16.3362345
0
LINE
8
left_labelLayer
10
210.2961426
20
16.3362345
11
210.467041
21
16.9075236
0
LINE
8
left_labelLayer
10
210.467041
20
16.9075236
11
210.701416
21
16.9075236
0
LINE
8
left_labelLayer
10
210.701416
20
16.9075236
11
210.701416
21
16.2874064
0
LINE
8
left_labelLayer
10
210.701416
20
16.2874064
11
211.4777832
21
16.2874064
0
LINE
8
left_labelLayer
10
211.4777832
20
16.2874064
11
211.4777832
21
15.972465
0
LINE
8
left_labelLayer
10
211.4777832
20
15.972465
11
210.701416
21
15.972465
0
LINE
8
left_labelLayer
10
210.701416
20
15.972465
11
210.701416
21
14.397758
0
ARC
8
left_labelLayer
10
211.1338841
20
15.2282309
40
1.3309642
50
269.8802997
51
278.3028363
0
ARC
8
left_labelLayer
10
211.1466469
20
15.1240095
40
1.2259943
50
278.4159829
51
279.0089104
0
ARC
8
left_labelLayer
10
210.9972146
20
16.0786981
40
2.1923063
50
278.9591523
51
280.5106391
0
ARC
8
left_labelLayer
10
211.1394292
20
15.3156183
40
1.4160879
50
280.4851954
51
282.6264461
0
ARC
8
left_labelLayer
10
211.2643774
20
14.7604754
40
0.847058
50
282.587502
51
285.5796152
0
ARC
8
left_labelLayer
10
211.3265785
20
14.5316118
40
0.6098994
50
285.7253995
51
286.2566896
0
ARC
8
left_labelLayer
10
211.3269284
20
13.9964134
40
0.3986239
50
287.9888329
51
295.3049282
0
ARC
8
left_labelLayer
10
211.2307887
20
14.2872734
40
0.7049584
50
283.3068847
51
288.1199544
0
ARC
8
left_labelLayer
10
211.129192
20
14.7110818
40
1.140773
50
280.0070995
51
283.3733034
0
ARC
8
left_labelLayer
10
211.0614041
20
15.0788529
40
1.5147311
50
279.1862642
51
280.1148614
0
ARC
8
left_labelLayer
10
211.0195524
20
15.316949
40
1.756458
50
275.5259205
51
279.2940497
0
ARC
8
left_labelLayer
10
211.0665458
20
14.8260817
40
1.2633467
50
270.8932729
51
275.5483032
0
ARC
8
left_labelLayer
10
211.0724678
20
14.600615
40
1.0378179
50
270.0023145
51
270.7604253
0
ARC
8
left_labelLayer
10
211.0561552
20
14.6211814
40
1.0585107
50
253.7847598
51
270.8852869
0
ARC
8
left_labelLayer
10
210.9307499
20
14.1935039
40
0.6128283
50
190.3817649
51
253.8772393
0
ARC
8
left_labelLayer
10
211.5699465
20
14.3663308
40
1.2738846
50
179.3551319
51
192.847745
0
ARC
8
left_labelLayer
10
211.5174709
20
14.3926529
40
0.8160708
50
179.6415763
51
189.7507023
0
ARC
8
left_labelLayer
10
211.2293964
20
14.3412702
40
0.5234589
50
189.5480204
51
205.7872936
0
ARC
8
left_labelLayer
10
211.1109991
20
14.2866742
40
0.3931082
50
206.1294381
51
221.4083293
0
ARC
8
left_labelLayer
10
211.0977227
20
14.2766013
40
0.3764902
50
221.5949792
51
262.3504868
0
ARC
8
left_labelLayer
10
211.1292959
20
14.4389664
40
0.5416998
50
261.3266402
51
270.1911896
0
LINE
8
top_outsideCutPath
10
249
20
70
11
249
21
63.3125
0
LINE
8
top_outsideCutPath
10
249
20
63.3125
11
246
21
63.3125
0
LINE
8
top_outsideCutPath
10
246
20
63.3125
11
246
21
53.1875
0
LINE
8
top_outsideCutPath
10
246
20
53.1875
11
249
21
53.1875
0
LINE
8
top_outsideCutPath
10
249
20
53.1875
11
249
21
43.0625
0
LINE
8
top_outsideCutPath
10
249
20
43.0625
11
246
21
43.0625
0
LINE
8
top_outsideCutPath
10
246
20
43.0625
11
246
21
32.9375
0
LINE
8
top_outsideCutPath
10
246
20
32.9375
11
249
21
32.9375
0
LINE
8
top_outsideCutPath
10
249
20
32.9375
11
249
21
22.8125
0
LINE
8
top_outsideCutPath
10
249
20
22.8125
11
246
21
22.8125
0
LINE
8
top_outsideCutPath
10
246
20
22.8125
11
246
21
12.6875
0
LINE
8
top_outsideCutPath
10
246
20
12.6875
11
249
21
12.6875
0
LINE
8
top_outsideCutPath
10
249
20
12.6875
11
249
21
6
0
LINE
8
top_outsideCutPath
10
249
20
6
11
255.0625
21
6
0
LINE
8
top_outsideCutPath
10
255.0625
20
6
11
255.0625
21
3
0
LINE
8
top_outsideCutPath
10
255.0625
20
3
11
265.1875
21
3
0
LINE
8
top_outsideCutPath
10
265.1875
20
3
11
265.1875
21
6
0
LINE
8
top_outsideCutPath
10
265.1875
20
6
11
275.3125
21
6
0
LINE
8
top_outsideCutPath
10
275.3125
20
6
11
275.3125
21
3
0
LINE
8
top_outsideCutPath
10
275.3125
20
3
11
285.4375
21
3
0
LINE
8
top_outsideCutPath
10
285.4375
20
3
11
285.4375
21
6
0
LINE
8
top_outsideCutPath
10
285.4375
20
6
11
295.5625
21
6
0
LINE
8
top_outsideCutPath
10
295.5625
20
6
11
295.5625
21
3
0
LINE
8
top_outsideCutPath
10
295.5625
20
3
11
305.6875
21
3
0
LINE
8
top_outsideCutPath
10
305.6875
20
3
11
305.6875
21
6
0
LINE
8
top_outsideCutPath
10
305.6875
20
6
11
315.8125
21
6
0
LINE
8
top_outsideCutPath
10
315.8125
20
6
11
315.8125
21
3
0
LINE
8
top_outsideCutPath
10
315.8125
20
3
11
325.9375
21
3
0
LINE
8
top_outsideCutPath
10
325.9375
20
3
11
325.9375
21
6
0
LINE
8
top_outsideCutPath
10
325.9375
20
6
11
336.0625
21
6
0
LINE
8
top_outsideCutPath
10
336.0625
20
6
11
336.0625
21
3
0
LINE
8
top_outsideCutPath
10
336.0625
20
3
11
346.1875
21
3
0
LINE
8
top_outsideCutPath
10
346.1875
20
3
11
346.1875
21
6
0
LINE
8
top_outsideCutPath
10
346.1875
20
6
11
356.3125
21
6
0
LINE
8
top_outsideCutPath
10
356.3125
20
6
11
356.3125
21
3
0
LINE
8
top_outsideCutPath
10
356.3125
20
3
11
366.4375
21
3
0
LINE
8
top_outsideCutPath
10
366.4375
20
3
11
366.4375
21
6
0
LINE
8
top_outsideCutPath
10
366.4375
20
6
11
376.5625
21
6
0
LINE
8
top_outsideCutPath
10
376.5625
20
6
11
376.5625
21
3
0
LINE
8
top_outsideCutPath
10
376.5625
20
3
11
386.6875
21
3
0
LINE
8
top_outsideCutPath
10
386.6875
20
3
11
386.6875
21
6
0
LINE
8
top_outsideCutPath
10
386.6875
20
6
11
396.8125
21
6
0
LINE
8
top_outsideCutPath
10
396.8125
20
6
11
396.8125
21
3
0
LINE
8
top_outsideCutPath
10
396.8125
20
3
11
406.9375
21
3
0
LINE
8
top_outsideCutPath
10
406.9375
20
3
11
406.9375
21
6
0
LINE
8
top_outsideCutPath
10
406.9375
20
6
11
413
21
6
0
LINE
8
top_outsideCutPath
10
413
20
6
11
413
21
12.6875
0
LINE
8
top_outsideCutPath
10
413
20
12.6875
11
416
21
12.6875
0
LINE
8
top_outsideCutPath
10
416
20
12.6875
11
416
21
22.8125
0
LINE
8
top_outsideCutPath
10
416
20
22.8125
11
413
21
22.8125
0
LINE
8
top_outsideCutPath
10
413
20
22.8125
11
413
21
32.9375
0
LINE
8
top_outsideCutPath
10
413
20
32.9375
11
416
21
32.9375
0
LINE
8
top_outsideCutPath
10
416
20
32.9375
11
416
21
43.0625
0
LINE
8
top_outsideCutPath
10
416
20
43.0625
11
413
21
43.0625
0
LINE
8
top_outsideCutPath
10
413
20
43.0625
11
413
21
53.1875
0
LINE
8
top_outsideCutPath
10
413
20
53.1875
11
416
21
53.1875
0
LINE
8
top_outsideCutPath
10
416
20
53.1875
11
416
21
63.3125
0
LINE
8
top_outsideCutPath
10
416
20
63.3125
11
413
21
63.3125
0
LINE
8
top_outsideCutPath
10
413
20
63.3125
11
413
21
70
0
LINE
8
top_outsideCutPath
10
413
20
70
11
406.9375
21
70
0
LINE
8
top_outsideCutPath
10
406.9375
20
70
11
406.9375
21
73
0
LINE
8
top_outsideCutPath
10
406.9375
20
73
11
396.8125
21
73
0
LINE
8
top_outsideCutPath
10
396.8125
20
73
11
396.8125
21
70
0
LINE
8
top_outsideCutPath
10
396.8125
20
70
11
386.6875
21
70
0
LINE
8
top_outsideCutPath
10
386.6875
20
70
11
386.6875
21
73
0
LINE
8
top_outsideCutPath
10
386.6875
20
73
11
376.5625
21
73
0
LINE
8
top_outsideCutPath
10
376.5625
20
73
11
376.5625
21
70
0
LINE
8
top_outsideCutPath
10
376.5625
20
70
11
366.4375
21
70
0
LINE
8
top_outsideCutPath
10
366.4375
20
70
11
366.4375
21
73
0
LINE
8
top_outsideCutPath
10
366.4375
20
73
11
356.3125
21
73
0
LINE
8
top_outsideCutPath
10
356.3125
20
73
11
356.3125
21
70
0
LINE
8
top_outsideCutPath
10
356.3125
20
70
11
346.1875
21
70
0
LINE
8
top_outsideCutPath
10
346.1875
20
70
11
346.1875
21
73
0
LINE
8
top_outsideCutPath
10
346.1875
20
73
11
336.0625
21
73
0
LINE
8
top_outsideCutPath
10
336.0625
20
73
11
336.0625
21
70
0
LINE
8
top_outsideCutPath
10
336.0625
20
70
11
325.9375
21
70
0
LINE
8
top_outsideCutPath
10
325.9375
20
70
11
325.9375
21
73
0
LINE
8
top_outsideCutPath
10
325.9375
20
73
11
315.8125
21
73
0
LINE
8
top_outsideCutPath
10
315.8125
20
73
11
315.8125
21
70
0
LINE
8
top_outsideCutPath
10
315.8125
20
70
11
305.6875
21
70
0
LINE
8
top_outsideCutPath
10
305.6875
20
70
11
305.6875
21
73
0
LINE
8
top_outsideCutPath
10
305.6875
20
73
11
295.5625
21
73
0
LINE
8
top_outsideCutPath
10
295.5625
20
73
11
295.5625
21
70
0
LINE
8
top_outsideCutPath
10
295.5625
20
70
11
285.4375
21
70
0
LINE
8
top_outsideCutPath
10
285.4375
20
70
11
285.4375
21
73
0
LINE
8
top_outsideCutPath
10
285.4375
20
73
11
275.3125
21
73
0
LINE
8
top_outsideCutPath
10
275.3125
20
73
11
275.3125
21
70
0
LINE
8
top_outsideCutPath
10
275.3125
20
70
11
265.1875
21
70
0
LINE
8
top_outsideCutPath
10
265.1875
20
70
11
265.1875
21
73
0
LINE
8
top_outsideCutPath
10
265.1875
20
73
11
255.0625
21
73
0
LINE
8
top_outsideCutPath
10
255.0625
20
73
11
255.0625
21
70
0
LINE
8
top_outsideCutPath
10
255.0625
20
70
11
249
21
70
0
LINE
8
top_labelLayer
10
324.9433015
20
36.0039063
11
324.9433015
21
35.1357422
0
LINE
8
top_labelLayer
10
321.5800202
20
37.2207031
11
321.5800202
21
41.6777344
0
LINE
8
top_labelLayer
10
321.5800202
20
41.6777344
11
320.506778
21
41.6777344
0
LINE
8
top_labelLayer
10
320.506778
20
41.6777344
11
320.506778
21
42.2246094
0
LINE
8
top_labelLayer
10
320.506778
20
42.2246094
11
321.5800202
21
42.6962891
0
LINE
8
top_labelLayer
10
321.5800202
20
42.6962891
11
322.0585359
21
44.2958984
0
LINE
8
top_labelLayer
10
322.0585359
20
44.2958984
11
322.7147859
21
44.2958984
0
LINE
8
top_labelLayer
10
322.7147859
20
44.2958984
11
322.7147859
21
42.5595703
0
LINE
8
top_labelLayer
10
322.7147859
20
42.5595703
11
324.888614
21
42.5595703
0
LINE
8
top_labelLayer
10
324.888614
20
42.5595703
11
324.888614
21
41.6777344
0
LINE
8
top_labelLayer
10
324.888614
20
41.6777344
11
322.7147859
21
41.6777344
0
LINE
8
top_labelLayer
10
322.7147859
20
41.6777344
11
322.7147859
21
37.2685547
0
ARC
8
top_labelLayer
10
323.9256944
20
39.5938836
40
3.7267042
50
269.880333
51
278.3028589
0
ARC
8
top_labelLayer
10
323.9611802
20
39.3038721
40
3.4346148
50
278.4157178
51
279.0083293
0
ARC
8
top_labelLayer
10
323.5429065
20
41.9759766
40
6.1392554
50
278.9590685
51
280.5103537
0
ARC
8
top_labelLayer
10
323.9414743
20
39.8373444
40
3.9638016
50
280.4848283
51
282.6267515
0
ARC
8
top_labelLayer
10
324.290972
20
38.2845791
40
2.3721909
50
282.587809
51
285.5793814
0
ARC
8
top_labelLayer
10
324.4663632
20
37.6395925
40
1.7038017
50
285.7232732
51
286.2557847
0
ARC
8
top_labelLayer
10
324.466214
20
36.1448089
40
1.1161667
50
287.9888515
51
295.3048159
0
ARC
8
top_labelLayer
10
324.1969937
20
36.9593312
40
1.9740213
50
283.3070047
51
288.1197382
0
ARC
8
top_labelLayer
10
323.9125987
20
38.1456555
40
3.1939546
50
280.0070333
51
283.3734583
0
ARC
8
top_labelLayer
10
323.721958
20
39.1803946
40
4.2460865
50
279.1865642
51
280.114103
0
ARC
8
top_labelLayer
10
323.6055449
20
39.8424571
40
4.9182512
50
275.5259953
51
279.2939952
0
ARC
8
top_labelLayer
10
323.7371556
20
38.4677319
40
3.5372414
50
270.8932023
51
275.5484028
0
ARC
8
top_labelLayer
10
323.7537038
20
37.8374736
40
2.9068095
50
270.0028502
51
270.7607212
0
ARC
8
top_labelLayer
10
323.7080564
20
37.8941471
40
2.9638368
50
253.7847806
51
270.8852679
0
ARC
8
top_labelLayer
10
323.3569206
20
36.6966432
40
1.7159191
50
190.3817648
51
253.8772427
0
ARC
8
top_labelLayer
10
325.1466582
20
37.1805563
40
3.5668638
50
179.3550945
51
192.8477568
0
ARC
8
top_labelLayer
10
324.9997768
20
37.2542624
40
2.2850357
50
179.6416289
51
189.7505893
0
ARC
8
top_labelLayer
10
324.1931228
20
37.1103863
40
1.4656766
50
189.5479729
51
205.7873393
0
ARC
8
top_labelLayer
10
323.8616113
20
36.9575156
40
1.1006946
50
206.1293965
51
221.4084054
0
ARC
8
top_labelLayer
10
323.8244437
20
36.9293141
40
1.0541708
50
221.5949335
51
262.350513
0
ARC
8
top_labelLayer
10
323.9128465
20
37.3839182
40
1.5167391
50
261.3266421
51
270.1913104
0
ARC
8
top_labelLayer
10
327.0457778
20
38.780796
40
5.861524
50
349.1761909
51
0.3862729
0
ARC
8
top_labelLayer
10
329.0192106
20
38.3873882
40
3.8493546
50
330.2507088
51
349.4116471
0
ARC
8
top_labelLayer
10
329.6265274
20
38.0717303
40
3.1655655
50
318.1440001
51
329.7566115
0
ARC
8
top_labelLayer
10
329.7361492
20
37.9838807
40
3.0253078
50
278.8959153
51
317.9979093
0
ARC
8
top_labelLayer
10
329.4537157
20
39.3370484
40
4.4064263
50
269.7503032
51
279.8033163
0
ARC
8
top_labelLayer
10
329.407912
20
38.5746193
40
3.6440523
50
253.5436996
51
270.4182448
0
ARC
8
top_labelLayer
10
329.2866084
20
38.1053866
40
3.1597214
50
238.8115596
51
253.2428403
0
ARC
8
top_labelLayer
10
329.2474597
20
38.0266581
40
3.0721068
50
207.7946966
51
238.6757966
0
ARC
8
top_labelLayer
10
329.8094251
20
38.3708157
40
3.7299584
50
205.6561277
51
208.4460612
0
ARC
8
top_labelLayer
10
330.2419089
20
38.5509953
40
4.1978887
50
188.9102454
51
205.3171387
0
ARC
8
top_labelLayer
10
331.7001272
20
38.7979686
40
5.6767915
50
179.774483
51
189.0932695
0
ARC
8
top_labelLayer
10
331.9152151
20
38.8602198
40
5.8919707
50
169.2442972
51
180.3880773
0
ARC
8
top_labelLayer
10
329.9143452
20
39.2557199
40
3.8524732
50
150.7111458
51
169.4695545
0
ARC
8
top_labelLayer
10
329.2756096
20
39.583735
40
3.1350326
50
138.1759582
51
150.2287544
0
ARC
8
top_labelLayer
10
329.1693598
20
39.6652677
40
3.0015028
50
99.1759372
51
137.9832667
0
ARC
8
top_labelLayer
10
329.4617987
20
38.2890147
40
4.4073224
50
89.732647
51
100.0759761
0
ARC
8
top_labelLayer
10
329.5202465
20
38.883377
40
3.8131002
50
73.5222821
51
90.5692341
0
ARC
8
top_labelLayer
10
329.7438613
20
39.6958313
40
2.9706297
50
41.144574
51
73.2133806
0
ARC
8
top_labelLayer
10
329.3169968
20
39.3289477
40
3.5334789
50
13.5014392
51
41.0703409
0
ARC
8
top_labelLayer
10
327.6678077
20
38.8973779
40
5.2379639
50
1.1277214
51
13.8799942
0
ARC
8
top_labelLayer
10
326.247221
20
38.8212468
40
6.659948
50
359.9919625
51
1.5420266
0
ARC
8
top_labelLayer
10
332.9455257
20
38.7908237
40
5.7464406
50
179.705976
51
187.9160775
0
ARC
8
top_labelLayer
10
330.8379125
20
38.4880685
40
3.6172277
50
187.7639454
51
200.0976771
0
ARC
8
top_labelLayer
10
329.6768333
20
38.0626484
40
2.3806654
50
200.0845957
51
216.9131344
0
ARC
8
top_labelLayer
10
329.2528454
20
37.7599024
40
1.8598792
50
217.3009555
51
261.7099096
0
ARC
8
top_labelLayer
10
329.4496742
20
38.6991551
40
2.8183221
50
260.5033339
51
270.2476575
0
ARC
8
top_labelLayer
10
329.4872418
20
38.516504
40
2.6357669
50
269.4481633
51
284.7255819
0
ARC
8
top_labelLayer
10
329.6958994
20
37.7426612
40
1.83431
50
284.5662452
51
322.6333705
0
ARC
8
top_labelLayer
10
329.2080452
20
38.095113
40
2.4360009
50
323.0089379
51
342.6390522
0
ARC
8
top_labelLayer
10
327.8126824
20
38.5511584
40
3.9039219
50
342.3615629
51
353.7537587
0
ARC
8
top_labelLayer
10
325.7540364
20
38.7993012
40
5.9773881
50
353.5363068
51
0.2014024
0
ARC
8
top_labelLayer
10
326.0694414
20
38.8492097
40
5.6620198
50
359.7075784
51
7.8972558
0
ARC
8
top_labelLayer
10
328.1430315
20
39.146475
40
3.5672649
50
7.7440168
51
20.0690008
0
ARC
8
top_labelLayer
10
329.2985247
20
39.5704968
40
2.3364301
50
20.0256952
51
37.4350367
0
ARC
8
top_labelLayer
10
329.681905
20
39.8425365
40
1.8667248
50
37.9577773
51
80.4006162
0
ARC
8
top_labelLayer
10
329.4640438
20
38.8704598
40
2.8620059
50
79.3453524
51
90.3175004
0
ARC
8
top_labelLayer
10
329.4237036
20
39.0319148
40
2.700618
50
89.4806154
51
103.880483
0
ARC
8
top_labelLayer
10
329.196782
20
39.8960363
40
1.8073392
50
103.4685271
51
142.3118771
0
ARC
8
top_labelLayer
10
329.6379362
20
39.5857862
40
2.3462468
50
142.902585
51
162.3749539
0
ARC
8
top_labelLayer
10
331.0280221
20
39.122546
40
3.8113983
50
162.065342
51
173.1674679
0
ARC
8
top_labelLayer
10
333.1955086
20
38.8460968
40
5.9964032
50
173.0086168
51
180.2463704
0
LINE
8
top_labelLayer
10
336.0311921
20
36.03125
11
335.9491609
21
36.03125
0
LINE
8
top_labelLayer
10
336.0311921
20
34.7871094
11
336.0311921
21
31.7041016
0
LINE
8
top_labelLayer
10
336.0311921
20
31.7041016
11
334.8964265
21
31.7041016
0
LINE
8
top_labelLayer
10
334.8964265
20
31.7041016
11
334.8964265
21
42.5595703
0
LINE
8
top_labelLayer
10
334.8964265
20
42.5595703
11
335.819278
21
42.5595703
0
LINE
8
top_labelLayer
10
335.819278
20
42.5595703
11
335.9765046
21
41.5341797
0
LINE
8
top_labelLayer
10
335.9765046
20
41.5341797
11
336.0311921
21
41.5341797
0
LINE
8
top_labelLayer
10
336.0311921
20
39.0732422
11
336.0311921
21
38.8203125
0
ARC
8
top_labelLayer
10
338.3636176
20
38.3725997
40
3.4419889
50
255.7755471
51
270.3185591
0
ARC
8
top_labelLayer
10
338.2654013
20
37.9362205
40
2.9948789
50
245.9801989
51
255.5455399
0
ARC
8
top_labelLayer
10
338.0751426
20
37.4937674
40
2.5133029
50
215.5850331
51
245.8361583
0
ARC
8
top_labelLayer
10
325.2947278
20
34.6848909
40
10.7391632
50
2.950343
51
7.2020709
0
ARC
8
top_labelLayer
10
327.0323025
20
34.7821069
40
8.9988911
50
0.0318504
51
2.9016134
0
ARC
8
top_labelLayer
10
338.5308601
20
39.7786592
40
3.0545363
50
132.3565244
51
144.919576
0
ARC
8
top_labelLayer
10
338.0629272
20
40.2891587
40
2.3620288
50
115.4006259
51
132.3118438
0
ARC
8
top_labelLayer
10
338.2454503
20
39.8448257
40
2.841817
50
97.7066353
51
114.8821459
0
ARC
8
top_labelLayer
10
338.3729208
20
39.0181429
40
3.6781593
50
89.8468152
51
97.9474644
0
ARC
8
top_labelLayer
10
338.4178752
20
39.2181159
40
3.4783505
50
74.1923653
51
90.5785197
0
ARC
8
top_labelLayer
10
338.6585576
20
40.0930493
40
2.5709504
50
38.0523366
51
74.041735
0
ARC
8
top_labelLayer
10
337.9947161
20
39.5842419
40
3.4073211
50
16.335594
51
37.9090701
0
ARC
8
top_labelLayer
10
336.250774
20
39.0470979
40
5.2319996
50
4.5766507
51
16.6088624
0
ARC
8
top_labelLayer
10
334.1038139
20
38.8331677
40
7.3893034
50
359.900322
51
4.9018217
0
ARC
8
top_labelLayer
10
334.8398096
20
38.7810602
40
6.6534124
50
350.6562969
51
0.3380228
0
ARC
8
top_labelLayer
10
337.1593098
20
38.3865404
40
4.3006527
50
335.8305943
51
350.8254858
0
ARC
8
top_labelLayer
10
338.1796173
20
37.9461595
40
3.1895187
50
321.3161197
51
335.543641
0
ARC
8
top_labelLayer
10
338.5696745
20
37.6283203
40
2.6863843
50
274.0640035
51
321.4080983
0
ARC
8
top_labelLayer
10
338.3879575
20
38.779383
40
3.8487223
50
269.9225448
51
275.5481523
0
ARC
8
top_labelLayer
10
338.1953193
20
38.4628055
40
3.2696999
50
89.5904287
51
100.3501797
0
ARC
8
top_labelLayer
10
337.9621635
20
39.6876622
40
2.0229057
50
100.0867861
51
118.1918189
0
ARC
8
top_labelLayer
10
337.7233192
20
40.1534854
40
1.4995372
50
118.556947
51
141.0243317
0
ARC
8
top_labelLayer
10
338.0872717
20
39.8967592
40
1.9441784
50
141.889036
51
160.5973353
0
ARC
8
top_labelLayer
10
339.3663494
20
39.4274257
40
3.3065764
50
160.2895443
51
171.2453078
0
ARC
8
top_labelLayer
10
341.4694317
20
39.0883424
40
5.4367863
50
171.0868666
51
178.324747
0
ARC
8
top_labelLayer
10
343.2530936
20
39.0035853
40
7.2222373
50
178.0663098
51
179.447386
0
ARC
8
top_labelLayer
10
343.534099
20
38.7910129
40
7.5029641
50
179.7762555
51
185.7075242
0
ARC
8
top_labelLayer
10
340.575958
20
38.4862194
40
4.5291852
50
185.59248
51
194.2050613
0
ARC
8
top_labelLayer
10
338.6809847
20
37.9944077
40
2.5714929
50
193.94302
51
208.0218544
0
ARC
8
top_labelLayer
10
337.914282
20
37.6043646
40
1.7115001
50
208.5536605
51
217.5605407
0
ARC
8
top_labelLayer
10
337.8518156
20
37.5783822
40
1.6462364
50
218.169033
51
253.8047229
0
ARC
8
top_labelLayer
10
338.1571616
20
38.5197957
40
2.6356344
50
253.1382494
51
266.848305
0
ARC
8
top_labelLayer
10
338.2427878
20
39.5295609
40
3.6487032
50
266.3775207
51
270.0510039
0
ARC
8
top_labelLayer
10
338.2718743
20
37.7927245
40
1.9120397
50
269.2257065
51
292.0430168
0
ARC
8
top_labelLayer
10
338.2976742
20
37.6389744
40
1.7601699
50
293.1429533
51
324.135412
0
ARC
8
top_labelLayer
10
337.9143164
20
37.9635452
40
2.2613281
50
323.1615305
51
325.0152015
0
ARC
8
top_labelLayer
10
337.5039295
20
38.2179989
40
2.7435842
50
325.5753913
51
344.1504597
0
ARC
8
top_labelLayer
10
336.0841856
20
38.6376885
40
4.2240052
50
343.933638
51
355.1137434
0
ARC
8
top_labelLayer
10
334.2718634
20
38.821588
40
6.0454742
50
354.8402105
51
0.1174867
0
ARC
8
top_labelLayer
10
334.5910313
20
38.8628856
40
5.7263665
50
359.7108247
51
7.8610337
0
ARC
8
top_labelLayer
10
336.6731345
20
39.159682
40
3.623248
50
7.7149764
51
19.8859732
0
ARC
8
top_labelLayer
10
337.8182428
20
39.5733008
40
2.4057289
50
19.8991337
51
35.8980294
0
ARC
8
top_labelLayer
10
338.3290083
20
39.9601157
40
1.765225
50
35.4481748
51
85.2266509
0
ARC
8
top_labelLayer
10
338.2223081
20
39.2909955
40
2.4414289
50
84.0379107
51
90.084861
0
LINE
8
back_outsideCutPath
10
0
20
56
11
0
21
48.5625
0
LINE
8
back_outsideCutPath
10
0
20
48.5625
11
3
21
48.5625
0
LINE
8
back_outsideCutPath
10
3
20
48.5625
11
3
21
38.4375
0
LINE
8
back_outsideCutPath
10
3
20
38.4375
11
0
21
38.4375
0
LINE
8
back_outsideCutPath
10
0
20
38.4375
11
0
21
31
0
LINE
8
back_outsideCutPath
10
0
20
31
11
9.0625
21
31
0
LINE
8
back_outsideCutPath
10
9.0625
20
31
11
9.0625
21
34
0
LINE
8
back_outsideCutPath
10
9.0625
20
34
11
19.1875
21
34
0
LINE
8
back_outsideCutPath
10
19.1875
20
34
11
19.1875
21
31
0
LINE
8
back_outsideCutPath
10
19.1875
20
31
11
29.3125
21
31
0
LINE
8
back_outsideCutPath
10
29.3125
20
31
11
29.3125
21
34
0
LINE
8
back_outsideCutPath
10
29.3125
20
34
11
39.4375
21
34
0
LINE
8
back_outsideCutPath
10
39.4375
20
34
11
39.4375
21
31
0
LINE
8
back_outsideCutPath
10
39.4375
20
31
11
49.5625
21
31
0
LINE
8
back_outsideCutPath
10
49.5625
20
31
11
49.5625
21
34
0
LINE
8
back_outsideCutPath
10
49.5625
20
34
11
59.6875
21
34
0
LINE
8
back_outsideCutPath
10
59.6875
20
34
11
59.6875
21
31
0
LINE
8
back_outsideCutPath
10
59.6875
20
31
11
69.8125
21
31
0
LINE
8
back_outsideCutPath
10
69.8125
20
31
11
69.8125
21
34
0
LINE
8
back_outsideCutPath
10
69.8125
20
34
11
79.9375
21
34
0
LINE
8
back_outsideCutPath
10
79.9375
20
34
11
79.9375
21
31
0
LINE
8
back_outsideCutPath
10
79.9375
20
31
11
90.0625
21
31
0
LINE
8
back_outsideCutPath
10
90.0625
20
31
11
90.0625
21
34
0
LINE
8
back_outsideCutPath
10
90.0625
20
34
11
100.1875
21
34
0
LINE
8
back_outsideCutPath
10
100.1875
20
34
11
100.1875
21
31
0
LINE
8
back_outsideCutPath
10
100.1875
20
31
11
110.3125
21
31
0
LINE
8
back_outsideCutPath
10
110.3125
20
31
11
110.3125
21
34
0
LINE
8
back_outsideCutPath
10
110.3125
20
34
11
120.4375
21
34
0
LINE
8
back_outsideCutPath
10
120.4375
20
34
11
120.4375
21
31
0
LINE
8
back_outsideCutPath
10
120.4375
20
31
11
130.5625
21
31
0
LINE
8
back_outsideCutPath
10
130.5625
20
31
11
130.5625
21
34
0
LINE
8
back_outsideCutPath
10
130.5625
20
34
11
140.6875
21
34
0
LINE
8
back_outsideCutPath
10
140.6875
20
34
11
140.6875
21
31
0
LINE
8
back_outsideCutPath
10
140.6875
20
31
11
150.8125
21
31
0
LINE
8
back_outsideCutPath
10
150.8125
20
31
11
150.8125
21
34
0
LINE
8
back_outsideCutPath
10
150.8125
20
34
11
160.9375
21
34
0
LINE
8
back_outsideCutPath
10
160.9375
20
34
11
160.9375
21
31
0
LINE
8
back_outsideCutPath
10
160.9375
20
31
11
170
21
31
0
LINE
8
back_outsideCutPath
10
170
20
31
11
170
21
38.4375
0
LINE
8
back_outsideCutPath
10
170
20
38.4375
11
167
21
38.4375
0
LINE
8
back_outsideCutPath
10
167
20
38.4375
11
167
21
48.5625
0
LINE
8
back_outsideCutPath
10
167
20
48.5625
11
170
21
48.5625
0
LINE
8
back_outsideCutPath
10
170
20
48.5625
11
170
21
56
0
LINE
8
back_outsideCutPath
10
170
20
56
11
160.9375
21
56
0
LINE
8
back_outsideCutPath
10
160.9375
20
56
11
160.9375
21
53
0
LINE
8
back_outsideCutPath
10
160.9375
20
53
11
150.8125
21
53
0
LINE
8
back_outsideCutPath
10
150.8125
20
53
11
150.8125
21
56
0
LINE
8
back_outsideCutPath
10
150.8125
20
56
11
140.6875
21
56
0
LINE
8
back_outsideCutPath
10
140.6875
20
56
11
140.6875
21
53
0
LINE
8
back_outsideCutPath
10
140.6875
20
53
11
130.5625
21
53
0
LINE
8
back_outsideCutPath
10
130.5625
20
53
11
130.5625
21
56
0
LINE
8
back_outsideCutPath
10
130.5625
20
56
11
120.4375
21
56
0
LINE
8
back_outsideCutPath
10
120.4375
20
56
11
120.4375
21
53
0
LINE
8
back_outsideCutPath
10
120.4375
20
53
11
110.3125
21
53
0
LINE
8
back_outsideCutPath
10
110.3125
20
53
11
110.3125
21
56
0
LINE
8
back_outsideCutPath
10
110.3125
20
56
11
100.1875
21
56
0
LINE
8
back_outsideCutPath
10
100.1875
20
56
11
100.1875
21
53
0
LINE
8
back_outsideCutPath
10
100.1875
20
53
11
90.0625
21
53
0
LINE
8
back_outsideCutPath
10
90.0625
20
53
11
90.0625
21
56
0
LINE
8
back_outsideCutPath
10
90.0625
20
56
11
79.9375
21
56
0
LINE
8
back_outsideCutPath
10
79.9375
20
56
11
79.9375
21
53
0
LINE
8
back_outsideCutPath
10
79.9375
20
53
11
69.8125
21
53
0
LINE
8
back_outsideCutPath
10
69.8125
20
53
11
69.8125
21
56
0
LINE
8
back_outsideCutPath
10
69.8125
20
56
11
59.6875
21
56
0
LINE
8
back_outsideCutPath
10
59.6875
20
56
11
59.6875
21
53
0
LINE
8
back_outsideCutPath
10
59.6875
20
53
11
49.5625
21
53
0
LINE
8
back_outsideCutPath
10
49.5625
20
53
11
49.5625
21
56
0
LINE
8
back_outsideCutPath
10
49.5625
20
56
11
39.4375
21
56
0
LINE
8
back_outsideCutPath
10
39.4375
20
56
11
39.4375
21
53
0
LINE
8
back_outsideCutPath
10
39.4375
20
53
11
29.3125
21
53
0
LINE
8
back_outsideCutPath
10
29.3125
20
53
11
29.3125
21
56
0
LINE
8
back_outsideCutPath
10
29.3125
20
56
11
19.1875
21
56
0
LINE
8
back_outsideCutPath
10
19.1875
20
56
11
19.1875
21
53
0
LINE
8
back_outsideCutPath
10
19.1875
20
53
11
9.0625
21
53
0
LINE
8
back_outsideCutPath
10
9.0625
20
53
11
9.0625
21
56
0
LINE
8
back_outsideCutPath
10
9.0625
20
56
11
0
21
56
0
LINE
8
back_labelLayer
10
80.222168
20
41.9692659
11
80.1928711
21
41.9692659
0
LINE
8
back_labelLayer
10
80.1928711
20
41.9692659
11
80.1074219
21
41.6250276
0
LINE
8
back_labelLayer
10
80.1074219
20
41.6250276
11
79.8168945
21
41.6250276
0
LINE
8
back_labelLayer
10
79.8168945
20
41.6250276
11
79.8168945
21
45.4238557
0
LINE
8
back_labelLayer
10
79.8168945
20
45.4238557
11
80.222168
21
45.4238557
0
LINE
8
back_labelLayer
10
80.222168
20
45.4238557
11
80.222168
21
44.5010041
0
LINE
8
back_labelLayer
10
80.2026367
20
43.9443635
11
80.222168
21
43.9443635
0
ARC
8
back_labelLayer
10
81.0741693
20
43.1061563
40
1.2386575
50
74.2393461
51
90.5623764
0
ARC
8
back_labelLayer
10
81.1560743
20
43.4066275
40
0.9272397
50
38.5631057
51
74.0670661
0
ARC
8
back_labelLayer
10
80.9452948
20
43.2427342
40
1.1942245
50
16.470959
51
38.4075052
0
ARC
8
back_labelLayer
10
80.3380789
20
43.0523298
40
1.8305373
50
5.1338705
51
16.7973397
0
ARC
8
back_labelLayer
10
79.5714971
20
42.9708998
40
2.6013605
50
359.8779745
51
5.4093454
0
ARC
8
back_labelLayer
10
79.7966828
20
42.9513394
40
2.3762101
50
350.6562988
51
0.3380599
0
ARC
8
back_labelLayer
10
80.6250648
20
42.8104419
40
1.5359498
50
335.8306001
51
350.8254675
0
ARC
8
back_labelLayer
10
80.9894501
20
42.6531702
40
1.1391287
50
321.3161997
51
335.5435346
0
ARC
8
back_labelLayer
10
81.128769
20
42.5396474
40
0.9594224
50
274.0639951
51
321.4081252
0
ARC
8
back_labelLayer
10
81.0638673
20
42.950769
40
1.3745709
50
269.922655
51
275.5481511
0
ARC
8
back_labelLayer
10
81.0551782
20
42.8054669
40
1.2292864
50
255.7755514
51
270.3185072
0
ARC
8
back_labelLayer
10
81.0200971
20
42.6496046
40
1.0695914
50
245.9801635
51
255.5455786
0
ARC
8
back_labelLayer
10
80.9521492
20
42.4915922
40
0.8976065
50
215.5850067
51
245.8361894
0
ARC
8
back_labelLayer
10
71.7725226
20
44.4938609
40
8.4496484
50
358.1123237
51
0.0484375
0
ARC
8
back_labelLayer
10
74.1242595
20
44.4149088
40
6.0965872
50
355.7238247
51
358.1258805
0
ARC
8
back_labelLayer
10
75.183713
20
44.3419166
40
5.0346444
50
355.4710101
51
355.6531735
0
ARC
8
back_labelLayer
10
80.9779853
20
43.4173116
40
0.9214356
50
95.1835169
51
145.1108943
0
ARC
8
back_labelLayer
10
81.058976
20
42.9606023
40
1.3841552
50
89.874338
51
96.8145596
0
ARC
8
back_labelLayer
10
80.9949333
20
42.8665737
40
1.1388565
50
89.5731309
51
100.7323816
0
ARC
8
back_labelLayer
10
80.9106264
20
43.2925255
40
0.7046645
50
100.4469364
51
119.6700776
0
ARC
8
back_labelLayer
10
80.8324467
20
43.43869
40
0.5389824
50
120.1402222
51
142.4249447
0
ARC
8
back_labelLayer
10
80.9617861
20
43.3531267
40
0.6937557
50
143.3381995
51
161.2559946
0
ARC
8
back_labelLayer
10
81.5026509
20
43.1611012
40
1.267666
50
160.8926231
51
171.2334785
0
ARC
8
back_labelLayer
10
82.4055966
20
43.0154346
40
2.1822732
50
171.0668027
51
177.8456555
0
ARC
8
back_labelLayer
10
83.3444605
20
42.9676822
40
3.1222933
50
177.6176444
51
180.0426216
0
ARC
8
back_labelLayer
10
82.9018229
20
42.9548978
40
2.6796754
50
179.7763101
51
185.7074784
0
ARC
8
back_labelLayer
10
81.845318
20
42.8460444
40
1.6175858
50
185.5925457
51
194.2050219
0
ARC
8
back_labelLayer
10
81.1685179
20
42.6703922
40
0.9183856
50
193.943003
51
208.0219099
0
ARC
8
back_labelLayer
10
80.8947097
20
42.5310987
40
0.6112614
50
208.5537408
51
217.560453
0
ARC
8
back_labelLayer
10
80.872391
20
42.5218136
40
0.5879422
50
218.1690511
51
253.8047005
0
ARC
8
back_labelLayer
10
80.981444
20
42.8580411
40
0.9413069
50
253.1383354
51
266.8482598
0
ARC
8
back_labelLayer
10
81.0120256
20
43.218766
40
1.3032115
50
266.3777191
51
270.050911
0
ARC
8
back_labelLayer
10
81.0218287
20
42.723416
40
0.8079073
50
269.3868884
51
285.8630892
0
ARC
8
back_labelLayer
10
81.0818503
20
42.506489
40
0.5828372
50
286.0163399
51
326.8496808
0
ARC
8
back_labelLayer
10
80.7921507
20
42.6984036
40
0.9303338
50
326.7105085
51
343.6661693
0
ARC
8
back_labelLayer
10
80.2498457
20
42.8641143
40
1.4973686
50
343.4171356
51
353.63688
0
ARC
8
back_labelLayer
10
79.4307474
20
42.9613037
40
2.3221994
50
353.493514
51
0.2205467
0
ARC
8
back_labelLayer
10
79.3585723
20
42.9799343
40
2.394377
50
359.7680788
51
6.3095596
0
ARC
8
back_labelLayer
10
80.2604774
20
43.0834355
40
1.4865651
50
6.1648447
51
16.039627
0
ARC
8
back_labelLayer
10
80.8414788
20
43.2546564
40
0.880882
50
15.7779189
51
32.0151209
0
ARC
8
back_labelLayer
10
81.0227713
20
43.3584894
40
0.6721646
50
32.7030398
51
35.5244644
0
ARC
8
back_labelLayer
10
81.0889188
20
43.4055073
40
0.5910095
50
35.5408189
51
79.8011424
0
ARC
8
back_labelLayer
10
81.0095527
20
43.0681082
40
0.9373104
50
78.6781255
51
90.3750068
0
LINE
8
back_labelLayer
10
84.8266602
20
41.6250276
11
84.5263672
21
41.6250276
0
LINE
8
back_labelLayer
10
84.5263672
20
41.6250276
11
84.4458008
21
42.005887
0
LINE
8
back_labelLayer
10
84.4458008
20
42.005887
11
84.4262695
21
42.005887
0
LINE
8
back_labelLayer
10
83.9770508
20
43.214383
11
84.4311523
21
43.2290315
0
LINE
8
back_labelLayer
10
84.4311523
20
43.2290315
11
84.4311523
21
43.3950471
0
LINE
8
back_labelLayer
10
83.1054688
20
43.8052034
11
82.980957
21
44.115262
0
LINE
8
back_labelLayer
10
84.8266602
20
43.4511995
11
84.8266602
21
41.6250276
0
LINE
8
back_labelLayer
10
84.4213867
20
42.6992463
11
84.4213867
21
42.9409455
0
LINE
8
back_labelLayer
10
84.4213867
20
42.9409455
11
84.0161133
21
42.9238557
0
ARC
8
back_labelLayer
10
83.1076819
20
43.0469751
40
1.680041
50
314.7444661
51
321.7072172
0
ARC
8
back_labelLayer
10
83.5204311
20
42.6275879
40
1.0916186
50
304.8485874
51
314.8530848
0
ARC
8
back_labelLayer
10
83.7187235
20
42.3453372
40
0.7466806
50
294.3931847
51
304.7372617
0
ARC
8
back_labelLayer
10
83.6509739
20
42.5208783
40
0.9345942
50
281.2979416
51
293.7313113
0
ARC
8
back_labelLayer
10
83.5614249
20
42.9548798
40
1.377732
50
272.9334488
51
281.4138911
0
ARC
8
back_labelLayer
10
83.531737
20
43.4002049
40
1.824006
50
269.9540273
51
273.1489065
0
ARC
8
back_labelLayer
10
83.5214876
20
42.8198999
40
1.2437315
50
258.6719924
51
270.4047455
0
ARC
8
back_labelLayer
10
83.4350965
20
42.4066386
40
0.8215592
50
238.3273514
51
258.9183899
0
ARC
8
back_labelLayer
10
83.3755671
20
42.2980295
40
0.6978982
50
227.7689265
51
237.8048994
0
ARC
8
back_labelLayer
10
83.3569413
20
42.2720294
40
0.6661381
50
192.0827758
51
227.452062
0
ARC
8
back_labelLayer
10
83.7003798
20
42.3566894
40
1.0197478
50
179.5457731
51
192.6949014
0
ARC
8
back_labelLayer
10
83.3813275
20
42.3936113
40
0.7012566
50
115.4904784
51
182.3568228
0
ARC
8
back_labelLayer
10
83.7325239
20
41.7494457
40
1.43441
50
101.3568186
51
117.0798862
0
ARC
8
back_labelLayer
10
84.0145695
20
40.4314164
40
2.7822238
50
92.4696492
51
101.7064738
0
ARC
8
back_labelLayer
10
84.0956233
20
39.2575688
40
3.9585905
50
91.7164503
51
92.9096168
0
ARC
8
back_labelLayer
10
83.2671442
20
43.4012788
40
1.1640248
50
359.69326
51
8.0036314
0
ARC
8
back_labelLayer
10
83.7074465
20
43.4654212
40
0.7190839
50
7.8274043
51
20.6040458
0
ARC
8
back_labelLayer
10
83.9566405
20
43.5607486
40
0.4522858
50
20.4094104
51
41.4480402
0
ARC
8
back_labelLayer
10
83.9934547
20
43.5809843
40
0.4113997
50
42.72957
51
71.0380204
0
ARC
8
back_labelLayer
10
83.9067771
20
43.3453039
40
0.6624777
50
70.5716922
51
83.9928697
0
ARC
8
back_labelLayer
10
83.8653668
20
43.0089082
40
1.0013779
50
83.6508046
51
90.1752059
0
ARC
8
back_labelLayer
10
83.8726332
20
42.6908318
40
1.3194901
50
90.4484947
51
103.7665012
0
ARC
8
back_labelLayer
10
84.0277999
20
42.0364969
40
1.9919589
50
103.6226869
51
112.431992
0
ARC
8
back_labelLayer
10
84.2937909
20
41.3648993
40
2.7142575
50
112.2122808
51
115.9640723
0
ARC
8
back_labelLayer
10
83.8678305
20
42.4705687
40
1.8685718
50
106.3568031
51
118.3350282
0
ARC
8
back_labelLayer
10
83.947333
20
42.2250391
40
2.1265653
50
104.5160569
51
106.5491529
0
ARC
8
back_labelLayer
10
83.8890591
20
42.4678896
40
1.8768661
50
90.0714433
51
104.6521199
0
ARC
8
back_labelLayer
10
83.8964249
20
42.6331159
40
1.7116657
50
81.5680424
51
90.3249014
0
ARC
8
back_labelLayer
10
83.9953873
20
43.2778487
40
1.0593959
50
68.2274351
51
81.7493575
0
ARC
8
back_labelLayer
10
84.1332293
20
43.6208189
40
0.6897636
50
47.8684102
51
68.293321
0
ARC
8
back_labelLayer
10
84.1556037
20
43.6654936
40
0.6417624
50
19.2331228
51
46.6740973
0
ARC
8
back_labelLayer
10
83.7829156
20
43.5268545
40
1.0393506
50
6.3379276
51
19.6814733
0
ARC
8
back_labelLayer
10
83.2319703
20
43.4566898
40
1.5946993
50
359.8027381
51
6.6582621
0
ARC
8
back_labelLayer
10
83.6190338
20
43.0264846
40
1.1158426
50
269.5792545
51
282.0413313
0
ARC
8
back_labelLayer
10
83.7004266
20
42.6654568
40
0.7457908
50
281.7121078
51
306.4593521
0
ARC
8
back_labelLayer
10
83.7365199
20
42.6060992
40
0.6766309
50
306.9881177
51
313.8559723
0
ARC
8
back_labelLayer
10
83.7322241
20
42.6048726
40
0.6787343
50
314.1892059
51
347.4269899
0
ARC
8
back_labelLayer
10
83.3922172
20
42.6900751
40
1.0291755
50
346.9178413
51
0.2823904
0
ARC
8
back_labelLayer
10
83.1104136
20
42.6992439
40
1.310973
50
359.8209697
51
0.0001058
0
ARC
8
back_labelLayer
10
84.112512
20
39.9497127
40
2.9757048
50
91.8564365
51
96.4478798
0
ARC
8
back_labelLayer
10
83.9783217
20
41.1108903
40
1.8068053
50
96.3545847
51
102.995286
0
ARC
8
back_labelLayer
10
83.7961516
20
41.8848799
40
1.0116799
50
102.7995173
51
113.2433577
0
ARC
8
back_labelLayer
10
83.6459817
20
42.2440268
40
0.622431
50
113.5886592
51
121.68053
0
ARC
8
back_labelLayer
10
83.5416475
20
42.4029243
40
0.4324494
50
120.9733842
51
172.4180131
0
ARC
8
back_labelLayer
10
83.7455917
20
42.3621891
40
0.6401271
50
171.2122941
51
180.2057095
0
ARC
8
back_labelLayer
10
83.6846341
20
42.3551054
40
0.5791851
50
179.5265944
51
192.7786667
0
ARC
8
back_labelLayer
10
83.4887052
20
42.3076126
40
0.377616
50
192.3265244
51
222.0579657
0
ARC
8
back_labelLayer
10
83.4741468
20
42.2989138
40
0.3609948
50
222.5807565
51
229.2545049
0
ARC
8
back_labelLayer
10
83.5233763
20
42.3622988
40
0.4411672
50
229.7836588
51
254.2724862
0
ARC
8
back_labelLayer
10
83.5889653
20
42.5808638
40
0.6693396
50
253.9396153
51
266.4534818
0
ARC
8
back_labelLayer
10
83.6098981
20
42.8221015
40
0.9114299
50
266.0781829
51
270.0592032
0
LINE
8
back_labelLayer
10
87.4462891
20
44.2104768
11
87.3217773
21
43.8662385
0
LINE
8
back_labelLayer
10
87.4072266
20
42.0742463
11
87.4072266
21
41.7153596
0
ARC
8
back_labelLayer
10
86.7180306
20
43.0908173
40
1.514673
50
256.4244033
51
270.4889776
0
ARC
8
back_labelLayer
10
86.5969935
20
42.6184184
40
1.0270839
50
221.7976264
51
256.802076
0
ARC
8
back_labelLayer
10
86.714205
20
42.7050215
40
1.1722649
50
196.0166747
51
221.1349093
0
ARC
8
back_labelLayer
10
87.3033006
20
42.8850778
40
1.7882042
50
183.5914087
51
196.3539158
0
ARC
8
back_labelLayer
10
87.9632418
20
42.9432132
40
2.4505478
50
179.9388557
51
183.9814496
0
ARC
8
back_labelLayer
10
87.7487823
20
42.9602253
40
2.2361333
50
169.8978102
51
180.3688906
0
ARC
8
back_labelLayer
10
86.9703373
20
43.1042272
40
1.444508
50
153.087504
51
170.1051258
0
ARC
8
back_labelLayer
10
86.6749769
20
43.2453579
40
1.1172832
50
138.6549817
51
152.685319
0
ARC
8
back_labelLayer
10
86.6198511
20
43.2855299
40
1.0493792
50
101.4913226
51
138.3133681
0
ARC
8
back_labelLayer
10
86.7464052
20
42.7588191
40
1.5908586
50
89.5891565
51
102.1787437
0
ARC
8
back_labelLayer
10
86.7561379
20
42.5207593
40
1.8288784
50
77.7702084
51
89.9475372
0
ARC
8
back_labelLayer
10
86.7215003
20
42.3296897
40
2.0229602
50
74.6797986
51
77.9577989
0
ARC
8
back_labelLayer
10
86.9085083
20
43.0071968
40
1.3201195
50
70.0946165
51
74.7386644
0
ARC
8
back_labelLayer
10
87.0863669
20
43.4946258
40
0.8012571
50
63.5033072
51
70.1860558
0
ARC
8
back_labelLayer
10
87.1591714
20
43.6486496
40
0.6309407
50
62.9310304
51
63.1800204
0
ARC
8
back_labelLayer
10
86.6560218
20
42.1907624
40
1.8029007
50
68.3294496
51
74.8831795
0
ARC
8
back_labelLayer
10
86.5608675
20
41.8533421
40
2.1534635
50
74.7803076
51
77.4496795
0
ARC
8
back_labelLayer
10
86.6607591
20
42.3221987
40
1.6741096
50
77.2998992
51
81.7344707
0
ARC
8
back_labelLayer
10
86.7335957
20
42.8297063
40
1.161403
50
81.6910717
51
87.5077799
0
ARC
8
back_labelLayer
10
86.7476574
20
43.0925179
40
0.8982323
50
87.6749252
51
89.9751538
0
ARC
8
back_labelLayer
10
86.7279559
20
43.0920206
40
0.8989542
50
88.7193714
51
112.5667846
0
ARC
8
back_labelLayer
10
86.6640786
20
43.303213
40
0.6797767
50
114.4265385
51
161.6633123
0
ARC
8
back_labelLayer
10
87.2986331
20
43.0548416
40
1.3607286
50
160.1418565
51
175.1368283
0
ARC
8
back_labelLayer
10
88.1719824
20
42.9567693
40
2.2393733
50
174.5309552
51
180.1550007
0
ARC
8
back_labelLayer
10
87.8953054
20
42.9405759
40
1.9627144
50
179.7041275
51
188.0744063
0
ARC
8
back_labelLayer
10
87.1883694
20
42.8371429
40
1.2482625
50
187.9315596
51
200.3885431
0
ARC
8
back_labelLayer
10
86.806111
20
42.6955353
40
0.8406182
50
200.4183206
51
216.6392842
0
ARC
8
back_labelLayer
10
86.6458624
20
42.5809775
40
0.6436788
50
216.9695423
51
261.310321
0
ARC
8
back_labelLayer
10
86.7165842
20
42.9106883
40
0.9804959
50
260.1358954
51
270.2692244
0
ARC
8
back_labelLayer
10
86.7133191
20
43.6267092
40
1.6965241
50
270.2658685
51
286.2891614
0
ARC
8
back_labelLayer
10
86.6101914
20
44.0113138
40
2.0946349
50
286.0460442
51
292.365443
0
ARC
8
back_labelLayer
10
86.8848507
20
42.7429966
40
1.1527854
50
282.0344024
51
296.9454706
0
ARC
8
back_labelLayer
10
86.7662914
20
43.2772963
40
1.7000682
50
272.5980757
51
282.1878386
0
ARC
8
back_labelLayer
10
86.7322987
20
43.7985392
40
2.2223401
50
269.9654088
51
272.864405
0
LINE
8
back_labelLayer
10
88.4228516
20
42.9946565
11
88.4423828
21
42.9946565
0
LINE
8
back_labelLayer
10
88.762207
20
43.3852815
11
89.6264648
21
44.3008088
0
LINE
8
back_labelLayer
10
89.6264648
20
44.3008088
11
90.1074219
21
44.3008088
0
LINE
8
back_labelLayer
10
90.1074219
20
44.3008088
11
89.0234375
21
43.1606721
0
LINE
8
back_labelLayer
10
89.0234375
20
43.1606721
11
90.1831055
21
41.6250276
0
LINE
8
back_labelLayer
10
90.1831055
20
41.6250276
11
89.6923828
21
41.6250276
0
LINE
8
back_labelLayer
10
89.6923828
20
41.6250276
11
88.7475586
21
42.889676
0
LINE
8
back_labelLayer
10
88.7475586
20
42.889676
11
88.4423828
21
42.6260041
0
LINE
8
back_labelLayer
10
88.4423828
20
42.6260041
11
88.4423828
21
41.6250276
0
LINE
8
back_labelLayer
10
88.4423828
20
41.6250276
11
88.0419922
21
41.6250276
0
LINE
8
back_labelLayer
10
88.0419922
20
41.6250276
11
88.0419922
21
45.4238557
0
LINE
8
back_labelLayer
10
88.0419922
20
45.4238557
11
88.4423828
21
45.4238557
0
LINE
8
back_labelLayer
10
88.4423828
20
45.4238557
11
88.4423828
21
43.4096955
0
ARC
8
back_labelLayer
10
90.4006967
20
41.6084736
40
2.3992699
50
142.3233688
51
144.7074183
0
ARC
8
back_labelLayer
10
91.6785427
20
40.6228353
40
4.013077
50
140.4332258
51
142.336489
0
ARC
8
back_labelLayer
10
93.3432336
20
39.2524992
40
6.1692324
50
139.2799622
51
140.4703886
0
ARC
8
back_labelLayer
10
95.2681291
20
37.5972223
40
8.7079649
50
138.341787
51
139.2877719
0
ARC
8
back_labelLayer
10
85.7419191
20
43.4147496
40
2.7004685
50
358.2737795
51
359.8927674
0
ARC
8
back_labelLayer
10
83.6421137
20
43.4732551
40
4.8010858
50
357.5039436
51
358.3307629
0
ARC
8
back_labelLayer
10
80.4968324
20
43.6121519
40
7.9494323
50
356.6324737
51
357.4910708
0
ARC
8
back_labelLayer
10
75.2672835
20
43.917145
40
13.1878669
50
356.0330178
51
356.6442922
0
ARC
8
back_labelLayer
10
71.6592237
20
44.1606971
40
16.8041326
50
356.021042
51
356.0556671
0
LINE
8
right_outsideCutPath
10
176
20
56
11
176
21
48.5625
0
LINE
8
right_outsideCutPath
10
176
20
48.5625
11
173
21
48.5625
0
LINE
8
right_outsideCutPath
10
173
20
48.5625
11
173
21
38.4375
0
LINE
8
right_outsideCutPath
10
173
20
38.4375
11
176
21
38.4375
0
LINE
8
right_outsideCutPath
10
176
20
38.4375
11
176
21
31
0
LINE
8
right_outsideCutPath
10
176
20
31
11
182.6875
21
31
0
LINE
8
right_outsideCutPath
10
182.6875
20
31
11
182.6875
21
34
0
LINE
8
right_outsideCutPath
10
182.6875
20
34
11
192.8125
21
34
0
LINE
8
right_outsideCutPath
10
192.8125
20
34
11
192.8125
21
31
0
LINE
8
right_outsideCutPath
10
192.8125
20
31
11
202.9375
21
31
0
LINE
8
right_outsideCutPath
10
202.9375
20
31
11
202.9375
21
34
0
LINE
8
right_outsideCutPath
10
202.9375
20
34
11
213.0625
21
34
0
LINE
8
right_outsideCutPath
10
213.0625
20
34
11
213.0625
21
31
0
LINE
8
right_outsideCutPath
10
213.0625
20
31
11
223.1875
21
31
0
LINE
8
right_outsideCutPath
10
223.1875
20
31
11
223.1875
21
34
0
LINE
8
right_outsideCutPath
10
223.1875
20
34
11
233.3125
21
34
0
LINE
8
right_outsideCutPath
10
233.3125
20
34
11
233.3125
21
31
0
LINE
8
right_outsideCutPath
10
233.3125
20
31
11
240
21
31
0
LINE
8
right_outsideCutPath
10
240
20
31
11
240
21
38.4375
0
LINE
8
right_outsideCutPath
10
240
20
38.4375
11
243
21
38.4375
0
LINE
8
right_outsideCutPath
10
243
20
38.4375
11
243
21
48.5625
0
LINE
8
right_outsideCutPath
10
243
20
48.5625
11
240
21
48.5625
0
LINE
8
right_outsideCutPath
10
240
20
48.5625
11
240
21
56
0
LINE
8
right_outsideCutPath
10
240
20
56
11
233.3125
21
56
0
LINE
8
right_outsideCutPath
10
233.3125
20
56
11
233.3125
21
53
0
LINE
8
right_outsideCutPath
10
233.3125
20
53
11
223.1875
21
53
0
LINE
8
right_outsideCutPath
10
223.1875
20
53
11
223.1875
21
56
0
LINE
8
right_outsideCutPath
10
223.1875
20
56
11
213.0625
21
56
0
LINE
8
right_outsideCutPath
10
213.0625
20
56
11
213.0625
21
53
0
LINE
8
right_outsideCutPath
10
213.0625
20
53
11
202.9375
21
53
0
LINE
8
right_outsideCutPath
10
202.9375
20
53
11
202.9375
21
56
0
LINE
8
right_outsideCutPath
10
202.9375
20
56
11
192.8125
21
56
0
LINE
8
right_outsideCutPath
10
192.8125
20
56
11
192.8125
21
53
0
LINE
8
right_outsideCutPath
10
192.8125
20
53
11
182.6875
21
53
0
LINE
8
right_outsideCutPath
10
182.6875
20
53
11
182.6875
21
56
0
LINE
8
right_outsideCutPath
10
182.6875
20
56
11
176
21
56
0
LINE
8
right_labelLayer
10
204.3684082
20
44.8964991
11
204.3122559
21
44.5205226
0
LINE
8
right_labelLayer
10
203.2331543
20
43.6367335
11
203.2331543
21
42.2011866
0
LINE
8
right_labelLayer
10
203.2331543
20
42.2011866
11
202.8278809
21
42.2011866
0
LINE
8
right_labelLayer
10
202.8278809
20
42.2011866
11
202.8278809
21
44.8769679
0
LINE
8
right_labelLayer
10
202.8278809
20
44.8769679
11
203.1623535
21
44.8769679
0
LINE
8
right_labelLayer
10
203.1623535
20
44.8769679
11
203.2087402
21
44.3813624
0
LINE
8
right_labelLayer
10
203.2087402
20
44.3813624
11
203.2282715
21
44.3813624
0
ARC
8
right_labelLayer
10
204.052746
20
43.0652718
40
1.8605288
50
84.99231
51
90.1281706
0
ARC
8
right_labelLayer
10
204.0974228
20
43.5658459
40
1.3579658
50
78.4892132
51
85.026549
0
ARC
8
right_labelLayer
10
203.9240051
20
42.7771109
40
1.7861195
50
77.4453267
51
81.6360495
0
ARC
8
right_labelLayer
10
204.0018219
20
43.3135101
40
1.2441066
50
81.5883502
51
87.1916744
0
ARC
8
right_labelLayer
10
204.0187183
20
43.6065494
40
0.9505947
50
87.343484
51
89.9657156
0
ARC
8
right_labelLayer
10
204.0147958
20
43.8549388
40
0.7022192
50
89.63354
51
137.088063
0
ARC
8
right_labelLayer
10
204.1870642
20
43.6612045
40
0.9606123
50
135.6207359
51
138.8378665
0
ARC
8
right_labelLayer
10
204.1618806
20
43.6857904
40
0.9254726
50
138.9575937
51
174.5422358
0
ARC
8
right_labelLayer
10
204.4632838
20
43.6386305
40
1.2301308
50
173.6908194
51
180.0883533
0
ARC
8
right_labelLayer
10
204.4206826
20
43.7095621
40
1.3686343
50
139.4139858
51
150.6032391
0
ARC
8
right_labelLayer
10
204.1752744
20
43.9198496
40
1.0454532
50
124.2320942
51
139.4161144
0
ARC
8
right_labelLayer
10
204.0440672
20
44.117908
40
0.8079007
50
89.6796707
51
124.440559
0
LINE
8
right_labelLayer
10
205.2741699
20
44.8769679
11
205.2741699
21
42.2011866
0
LINE
8
right_labelLayer
10
205.2741699
20
42.2011866
11
204.8688965
21
42.2011866
0
LINE
8
right_labelLayer
10
204.8688965
20
42.2011866
11
204.8688965
21
44.8769679
0
LINE
8
right_labelLayer
10
204.8688965
20
44.8769679
11
205.2741699
21
44.8769679
0
ARC
8
right_labelLayer
10
205.283793
20
45.604844
40
0.4490848
50
170.8450542
51
180.3544876
0
ARC
8
right_labelLayer
10
205.1156739
20
45.6329559
40
0.2786364
50
155.9677681
51
171.0517529
0
ARC
8
right_labelLayer
10
205.0342477
20
45.6690805
40
0.1895568
50
133.787841
51
155.9170848
0
ARC
8
right_labelLayer
10
205.0643122
20
45.6358442
40
0.2343584
50
92.6445562
51
133.4711337
0
ARC
8
right_labelLayer
10
205.0738057
20
45.5613722
40
0.3092481
50
89.9687011
51
93.765032
0
ARC
8
right_labelLayer
10
205.0776752
20
45.6318671
40
0.2387818
50
46.3708484
51
90.8879832
0
ARC
8
right_labelLayer
10
205.1014391
20
45.6564005
40
0.2046272
50
17.7252113
51
46.447314
0
ARC
8
right_labelLayer
10
204.9906153
20
45.6182377
40
0.3218193
50
4.9428885
51
18.190003
0
ARC
8
right_labelLayer
10
204.8496728
20
45.6029999
40
0.4635605
50
359.8845116
51
5.3182734
0
ARC
8
right_labelLayer
10
204.8939274
20
45.5992182
40
0.4193146
50
349.8344369
51
0.3890734
0
ARC
8
right_labelLayer
10
205.0465815
20
45.570741
40
0.2640333
50
332.6321078
51
350.0704827
0
ARC
8
right_labelLayer
10
205.1059958
20
45.5414024
40
0.1977861
50
313.6154814
51
332.2676591
0
ARC
8
right_labelLayer
10
205.0773633
20
45.5674735
40
0.2364282
50
269.1787624
51
314.2807904
0
ARC
8
right_labelLayer
10
205.071288
20
45.5884887
40
0.2574332
50
250.4998545
51
270.5979519
0
ARC
8
right_labelLayer
10
205.0634975
20
45.5593595
40
0.2273869
50
225.1300791
51
249.9001655
0
ARC
8
right_labelLayer
10
205.0513026
20
45.545887
40
0.209237
50
197.7935627
51
224.8939674
0
ARC
8
right_labelLayer
10
205.1654776
20
45.5850113
40
0.3299147
50
184.9928208
51
198.2038097
0
ARC
8
right_labelLayer
10
205.3131991
20
45.6010659
40
0.4784832
50
179.8803012
51
185.3685092
0
LINE
8
right_labelLayer
10
207.3981934
20
44.8769679
11
208.3234863
21
44.8769679
0
LINE
8
right_labelLayer
10
208.3234863
20
44.8769679
11
208.3234863
21
44.6206202
0
LINE
8
right_labelLayer
10
208.3234863
20
44.6206202
11
207.8278809
21
44.5620265
0
LINE
8
right_labelLayer
10
206.9147949
20
42.6259913
11
207.3884277
21
42.6259913
0
LINE
8
right_labelLayer
10
207.2590332
20
42.2622218
11
206.7731934
21
42.2622218
0
ARC
8
right_labelLayer
10
207.3114036
20
44.1532948
40
0.6586428
50
29.4585702
51
38.3575169
0
ARC
8
right_labelLayer
10
207.0423032
20
43.9996777
40
0.9685007
50
23.1844384
51
29.5422316
0
ARC
8
right_labelLayer
10
206.7856752
20
43.8858671
40
1.2492156
50
21.2503643
51
23.3489607
0
ARC
8
right_labelLayer
10
207.2219854
20
44.059384
40
0.7796903
50
6.8505322
51
20.9872312
0
ARC
8
right_labelLayer
10
207.0024065
20
44.029613
40
1.001258
50
359.8709875
51
7.0432144
0
ARC
8
right_labelLayer
10
207.0746387
20
44.0176982
40
0.9290737
50
342.5650357
51
0.5957591
0
ARC
8
right_labelLayer
10
207.2459888
20
43.9703835
40
0.7514446
50
310.6098271
51
342.092334
0
ARC
8
right_labelLayer
10
207.1499033
20
44.0821502
40
0.8988358
50
284.9316279
51
310.6222495
0
ARC
8
right_labelLayer
10
207.0296639
20
44.5034848
40
1.3369469
50
272.5335086
51
285.258004
0
ARC
8
right_labelLayer
10
206.9987529
20
44.9257256
40
1.7601836
50
269.9690702
51
272.9311607
0
ARC
8
right_labelLayer
10
206.9949107
20
44.4679939
40
1.302455
50
263.4836044
51
270.1272204
0
ARC
8
right_labelLayer
10
206.9737157
20
44.2666397
40
1.0999978
50
259.496629
51
263.3902105
0
ARC
8
right_labelLayer
10
207.1050036
20
42.5447679
40
0.7211721
50
117.3934707
51
128.4094332
0
ARC
8
right_labelLayer
10
206.9193447
20
42.7750925
40
0.4253527
50
128.0881155
51
147.1399625
0
ARC
8
right_labelLayer
10
206.8193244
20
42.8422147
40
0.3049232
50
147.5369534
51
180.2592402
0
ARC
8
right_labelLayer
10
206.7244378
20
42.8382387
40
0.2100496
50
179.2917695
51
198.3578484
0
ARC
8
right_labelLayer
10
206.6851099
20
42.8279041
40
0.1694876
50
199.2292654
51
239.5689616
0
ARC
8
right_labelLayer
10
206.7175223
20
42.8726366
40
0.2245369
50
238.2189177
51
239.847407
0
ARC
8
right_labelLayer
10
206.7437373
20
42.9264884
40
0.2843038
50
240.7305809
51
254.5022966
0
ARC
8
right_labelLayer
10
206.8213234
20
43.1938506
40
0.5626858
50
254.1636161
51
262.2122157
0
ARC
8
right_labelLayer
10
206.8827886
20
43.6231826
40
0.9963904
50
262.0556963
51
267.2081339
0
ARC
8
right_labelLayer
10
206.9124758
20
44.167687
40
1.5416976
50
267.0917998
51
270.0861884
0
ARC
8
right_labelLayer
10
207.3972857
20
40.967043
40
1.6589719
50
81.5744676
51
90.3059274
0
ARC
8
right_labelLayer
10
207.4882855
20
41.56053
40
1.0585612
50
68.3671508
51
81.7399697
0
ARC
8
right_labelLayer
10
207.6071352
20
41.864267
40
0.7324044
50
52.1879863
51
68.2500862
0
ARC
8
right_labelLayer
10
207.6902988
20
41.9763253
40
0.5928976
50
8.6201199
51
51.8982264
0
ARC
8
right_labelLayer
10
207.3988319
20
41.9146537
40
0.8904836
50
359.7429886
51
9.7326098
0
ARC
8
right_labelLayer
10
207.4118819
20
41.8996298
40
0.8774941
50
340.5269025
51
0.720185
0
ARC
8
right_labelLayer
10
207.5408062
20
41.8675301
40
0.7453518
50
302.9903798
51
339.5494322
0
ARC
8
right_labelLayer
10
207.404943
20
42.0402899
40
0.9644387
50
303.1877355
51
304.1720683
0
ARC
8
right_labelLayer
10
207.2793363
20
42.2578938
40
1.215383
50
286.2542417
51
302.527967
0
ARC
8
right_labelLayer
10
207.0497982
20
43.015022
40
2.0065137
50
276.4940345
51
286.4953318
0
ARC
8
right_labelLayer
10
206.9065869
20
44.2121778
40
3.2121926
50
269.7544803
51
276.6170091
0
ARC
8
right_labelLayer
10
206.8821264
20
43.2706168
40
2.2706272
50
262.5634326
51
270.2698957
0
ARC
8
right_labelLayer
10
206.7709155
20
42.4463353
40
1.4388897
50
251.2102086
51
262.7063835
0
ARC
8
right_labelLayer
10
206.6106173
20
41.9758387
40
0.9418359
50
235.9667337
51
251.2229718
0
ARC
8
right_labelLayer
10
206.4407242
20
41.7334705
40
0.645918
50
208.9036286
51
236.4231523
0
ARC
8
right_labelLayer
10
206.4563211
20
41.7269323
40
0.6565458
50
182.207991
51
207.7461718
0
ARC
8
right_labelLayer
10
206.6549341
20
41.7467631
40
0.8558618
50
179.9784445
51
183.0223426
0
ARC
8
right_labelLayer
10
206.4186597
20
41.7579567
40
0.6196828
50
138.3916035
51
181.0052413
0
ARC
8
right_labelLayer
10
206.4840976
20
41.6991481
40
0.7076621
50
113.8120952
51
138.3496539
0
ARC
8
right_labelLayer
10
206.6082302
20
41.4310944
40
1.003029
50
102.2870884
51
114.1172558
0
ARC
8
right_labelLayer
10
206.5692242
20
42.7938857
40
0.4206196
50
216.586089
51
245.4969033
0
ARC
8
right_labelLayer
10
206.6295964
20
42.8450915
40
0.4996428
50
215.465771
51
217.1746814
0
ARC
8
right_labelLayer
10
206.5291446
20
42.77253
40
0.375728
50
182.1767798
51
215.3415239
0
ARC
8
right_labelLayer
10
206.6184031
20
42.7821051
40
0.4653268
50
179.9832208
51
182.9374802
0
ARC
8
right_labelLayer
10
206.6165096
20
42.7861596
40
0.46345
50
161.7225377
51
180.4844117
0
ARC
8
right_labelLayer
10
206.5655565
20
42.8000634
40
0.4107163
50
144.4963387
51
161.3350725
0
ARC
8
right_labelLayer
10
206.7013889
20
42.6988299
40
0.5800972
50
132.7259417
51
144.1480086
0
ARC
8
right_labelLayer
10
206.9190966
20
42.466343
40
0.8985994
50
125.2213374
51
132.8655257
0
ARC
8
right_labelLayer
10
207.1379692
20
42.1624094
40
1.2731286
50
121.2353127
51
125.3794794
0
ARC
8
right_labelLayer
10
206.7499595
20
43.9072666
40
0.7104767
50
215.1640803
51
247.4748017
0
ARC
8
right_labelLayer
10
206.8825519
20
44.0142781
40
0.880572
50
212.4713373
51
215.8876355
0
ARC
8
right_labelLayer
10
206.8477065
20
43.9893476
40
0.8377929
50
183.0160742
51
212.3123286
0
ARC
8
right_labelLayer
10
207.0315922
20
44.0098394
40
1.022559
50
179.9759441
51
183.6205541
0
ARC
8
right_labelLayer
10
207.1798916
20
44.020159
40
1.1709002
50
166.8195736
51
180.4839721
0
ARC
8
right_labelLayer
10
206.7914592
20
44.1182303
40
0.7703693
50
132.3287692
51
167.3341074
0
ARC
8
right_labelLayer
10
206.8434269
20
44.0435314
40
0.8606698
50
106.2188925
51
131.5377696
0
ARC
8
right_labelLayer
10
206.9749143
20
43.6177862
40
1.3062171
50
93.6329726
51
106.5408745
0
ARC
8
right_labelLayer
10
207.0178393
20
43.1358457
40
1.7899513
50
89.9380271
51
94.0267163
0
ARC
8
right_labelLayer
10
207.0247913
20
43.3723796
40
1.5534245
50
82.5852163
51
90.1850046
0
ARC
8
right_labelLayer
10
207.0722544
20
43.7396204
40
1.1831294
50
74.0088545
51
82.5693936
0
ARC
8
right_labelLayer
10
206.5966903
20
41.7464328
40
0.4070307
50
179.22082
51
200.9355699
0
ARC
8
right_labelLayer
10
206.5482856
20
41.7352241
40
0.3578817
50
202.0286556
51
236.1457525
0
ARC
8
right_labelLayer
10
206.6212321
20
41.8278423
40
0.4755192
50
235.0633149
51
238.5040559
0
ARC
8
right_labelLayer
10
206.7060449
20
41.9793324
40
0.6490366
50
239.1066779
51
254.4862986
0
ARC
8
right_labelLayer
10
206.8191189
20
42.3692129
40
1.0549666
50
254.2324795
51
263.4937669
0
ARC
8
right_labelLayer
10
206.8901453
20
42.9708056
40
1.6607348
50
263.4109076
51
270.1457881
0
ARC
8
right_labelLayer
10
206.8975843
20
43.2928323
40
1.9827589
50
269.907145
51
270.0034899
0
ARC
8
right_labelLayer
10
206.9074198
20
44.0344958
40
2.7244397
50
269.7956966
51
275.3990979
0
ARC
8
right_labelLayer
10
207.0093852
20
42.9877077
40
1.6727041
50
275.2957217
51
283.3516538
0
ARC
8
right_labelLayer
10
207.1755133
20
42.3034667
40
0.968601
50
283.137035
51
295.8572831
0
ARC
8
right_labelLayer
10
207.2986431
20
42.0346695
40
0.6730448
50
296.4045346
51
301.8012345
0
ARC
8
right_labelLayer
10
207.3468701
20
41.9682112
40
0.5911788
50
301.2230681
51
318.6238223
0
ARC
8
right_labelLayer
10
207.4557227
20
41.8676597
40
0.4430467
50
319.0765694
51
1.1406856
0
ARC
8
right_labelLayer
10
207.3503725
20
41.8808225
40
0.5483263
50
359.5462015
51
10.9905214
0
ARC
8
right_labelLayer
10
207.562175
20
41.9239034
40
0.332201
50
10.6608611
51
30.9362482
0
ARC
8
right_labelLayer
10
207.6293274
20
41.9611715
40
0.2554555
50
31.509454
51
58.0776764
0
ARC
8
right_labelLayer
10
207.5663886
20
41.8484759
40
0.3844372
50
58.9972302
51
73.8586689
0
ARC
8
right_labelLayer
10
207.4391722
20
41.4320036
40
0.8198839
50
73.4100962
51
81.5907575
0
ARC
8
right_labelLayer
10
207.3313838
20
40.7344651
40
1.5256934
50
81.4172704
51
86.5756877
0
ARC
8
right_labelLayer
10
207.2653305
20
39.6834977
40
2.5787317
50
86.5054509
51
90.1399173
0
ARC
8
right_labelLayer
10
206.7673981
20
41.3306197
40
0.9316201
50
89.6435809
51
100.0208155
0
ARC
8
right_labelLayer
10
206.7088447
20
41.6491574
40
0.6077573
50
99.8103355
51
116.8229821
0
ARC
8
right_labelLayer
10
206.6518038
20
41.769446
40
0.4746843
50
117.2303408
51
130.5024018
0
ARC
8
right_labelLayer
10
206.6225223
20
41.807079
40
0.4270568
50
130.7944635
51
169.0413337
0
ARC
8
right_labelLayer
10
206.838171
20
41.7562918
40
0.6484882
50
168.2579647
51
180.3820357
0
ARC
8
right_labelLayer
10
207.2004735
20
44.0139827
40
0.7910728
50
179.561694
51
191.6530017
0
ARC
8
right_labelLayer
10
206.9254355
20
43.9545588
40
0.5097079
50
191.3555842
51
213.3660162
0
ARC
8
right_labelLayer
10
206.8593791
20
43.9164175
40
0.4335854
50
213.9574302
51
227.7972149
0
ARC
8
right_labelLayer
10
206.916848
20
43.9861177
40
0.5238397
50
228.2620926
51
254.7341459
0
ARC
8
right_labelLayer
10
206.9902675
20
44.2378015
40
0.7859873
50
254.4016686
51
267.434847
0
ARC
8
right_labelLayer
10
207.0094215
20
44.4946958
40
1.0435093
50
267.015495
51
270.0322986
0
ARC
8
right_labelLayer
10
207.021942
20
44.3340125
40
0.8829065
50
269.2256373
51
284.3773108
0
ARC
8
right_labelLayer
10
207.1422805
20
43.9147521
40
0.4470696
50
282.7796498
51
346.4828355
0
ARC
8
right_labelLayer
10
206.7824931
20
44.0166635
40
0.820848
50
345.4362639
51
0.7465437
0
ARC
8
right_labelLayer
10
206.7319207
20
44.0398202
40
0.8714399
50
359.1806342
51
15.0431
0
ARC
8
right_labelLayer
10
207.126788
20
44.1550061
40
0.4602914
50
13.953545
51
77.6673928
0
ARC
8
right_labelLayer
10
207.0134984
20
43.7490228
40
0.8814293
50
76.1095357
51
90.7028852
0
ARC
8
right_labelLayer
10
206.99654
20
43.7800325
40
0.8503756
50
89.5859294
51
101.3334377
0
ARC
8
right_labelLayer
10
206.9357694
20
44.069879
40
0.5542448
50
101.0620259
51
121.9738373
0
ARC
8
right_labelLayer
10
206.8930683
20
44.1467005
40
0.4664873
50
122.5212163
51
134.996448
0
ARC
8
right_labelLayer
10
206.9106433
20
44.1361764
40
0.4863817
50
135.5839213
51
163.0016226
0
ARC
8
right_labelLayer
10
207.1674795
20
44.0519925
40
0.7566275
50
162.5910795
51
175.7344187
0
ARC
8
right_labelLayer
10
207.4755866
20
44.0216419
40
1.0661639
50
175.3394448
51
180.0863912
0
LINE
8
right_labelLayer
10
211.1091309
20
42.2011866
11
210.7038574
21
42.2011866
0
LINE
8
right_labelLayer
10
210.7038574
20
42.2011866
11
210.7038574
21
43.9321437
0
LINE
8
right_labelLayer
10
209.2780762
20
43.6001124
11
209.2780762
21
42.2011866
0
LINE
8
right_labelLayer
10
209.2780762
20
42.2011866
11
208.8728027
21
42.2011866
0
LINE
8
right_labelLayer
10
208.8728027
20
42.2011866
11
208.8728027
21
46.0000148
0
LINE
8
right_labelLayer
10
208.8728027
20
46.0000148
11
209.2780762
21
46.0000148
0
LINE
8
right_labelLayer
10
209.2780762
20
46.0000148
11
209.2780762
21
44.8501124
0
LINE
8
right_labelLayer
10
209.2585449
20
44.5058741
11
209.282959
21
44.5058741
0
LINE
8
right_labelLayer
10
211.1091309
20
43.9467921
11
211.1091309
21
42.2011866
0
ARC
8
right_labelLayer
10
209.5582756
20
43.9387136
40
1.1456007
50
359.6714119
51
8.6877663
0
ARC
8
right_labelLayer
10
209.9828685
20
44.0060524
40
0.7157121
50
8.4931106
51
22.6580452
0
ARC
8
right_labelLayer
10
210.198591
20
44.0957012
40
0.4821038
50
22.7023903
51
42.3420753
0
ARC
8
right_labelLayer
10
210.2228348
20
44.1066055
40
0.4569146
50
43.3791446
51
71.5385507
0
ARC
8
right_labelLayer
10
210.1321584
20
43.8532317
40
0.7259861
50
71.0827818
51
84.3690559
0
ARC
8
right_labelLayer
10
210.0914559
20
43.5071552
40
1.0744062
50
84.0198126
51
90.1510699
0
ARC
8
right_labelLayer
10
210.0798878
20
43.3551851
40
1.2264037
50
89.5918988
51
100.3595781
0
ARC
8
right_labelLayer
10
209.9930475
20
43.8115356
40
0.7618838
50
100.1067964
51
118.0847299
0
ARC
8
right_labelLayer
10
209.904721
20
43.9848533
40
0.5674036
50
118.4550861
51
139.6706886
0
ARC
8
right_labelLayer
10
209.9933928
20
43.9242435
40
0.6743197
50
140.6208003
51
160.5049586
0
ARC
8
right_labelLayer
10
210.460794
20
43.7512115
40
1.1726918
50
160.1566684
51
171.5312654
0
ARC
8
right_labelLayer
10
211.2170792
20
43.6313893
40
1.93839
50
171.3202838
51
178.3406599
0
ARC
8
right_labelLayer
10
211.8933547
20
43.6011664
40
2.6152788
50
178.1078324
51
180.0230901
0
ARC
8
right_labelLayer
10
205.6322505
20
44.8457667
40
3.6458283
50
357.8674741
51
0.0682958
0
ARC
8
right_labelLayer
10
206.870687
20
44.7985246
40
2.4064918
50
354.9829845
51
357.8942806
0
ARC
8
right_labelLayer
10
207.6889001
20
44.7272797
40
1.585183
50
351.9711373
51
354.9619427
0
ARC
8
right_labelLayer
10
209.9694233
20
44.0764667
40
0.8097062
50
119.8315784
51
147.9725782
0
ARC
8
right_labelLayer
10
210.0674392
20
43.9259066
40
0.9891259
50
116.6657026
51
120.4184605
0
ARC
8
right_labelLayer
10
210.0857767
20
43.8777618
40
1.0403927
50
96.66522
51
116.3782606
0
ARC
8
right_labelLayer
10
210.125223
20
43.6056135
40
1.315302
50
89.8927306
51
96.9959377
0
ARC
8
right_labelLayer
10
210.1378364
20
43.2766962
40
1.6442484
50
80.6862831
51
90.3537204
0
ARC
8
right_labelLayer
10
210.2402184
20
43.878886
40
1.0334339
50
65.6023199
51
80.8844246
0
ARC
8
right_labelLayer
10
210.3631596
20
44.155779
40
0.7304882
50
46.7401062
51
65.4130663
0
ARC
8
right_labelLayer
10
210.3715142
20
44.1821614
40
0.7056516
50
19.2204897
51
45.7660444
0
ARC
8
right_labelLayer
10
209.964637
20
44.0313294
40
1.1395349
50
6.4733426
51
19.6468065
0
ARC
8
right_labelLayer
10
209.3566369
20
43.953077
40
1.7525052
50
359.7945237
51
6.7743529
0
LINE
8
right_labelLayer
10
213.1721191
20
42.5356593
11
213.1721191
21
42.2256007
0
LINE
8
right_labelLayer
10
211.9709473
20
42.9702296
11
211.9709473
21
44.5620265
0
LINE
8
right_labelLayer
10
211.9709473
20
44.5620265
11
211.5876465
21
44.5620265
0
LINE
8
right_labelLayer
10
211.5876465
20
44.5620265
11
211.5876465
21
44.757339
0
LINE
8
right_labelLayer
10
211.5876465
20
44.757339
11
211.9709473
21
44.925796
0
LINE
8
right_labelLayer
10
211.9709473
20
44.925796
11
212.1418457
21
45.4970851
0
LINE
8
right_labelLayer
10
212.1418457
20
45.4970851
11
212.3762207
21
45.4970851
0
LINE
8
right_labelLayer
10
212.3762207
20
45.4970851
11
212.3762207
21
44.8769679
0
LINE
8
right_labelLayer
10
212.3762207
20
44.8769679
11
213.1525879
21
44.8769679
0
LINE
8
right_labelLayer
10
213.1525879
20
44.8769679
11
213.1525879
21
44.5620265
0
LINE
8
right_labelLayer
10
213.1525879
20
44.5620265
11
212.3762207
21
44.5620265
0
LINE
8
right_labelLayer
10
212.3762207
20
44.5620265
11
212.3762207
21
42.9873195
0
ARC
8
right_labelLayer
10
212.8086888
20
43.8177924
40
1.3309642
50
269.8802997
51
278.3028363
0
ARC
8
right_labelLayer
10
212.8214516
20
43.7135709
40
1.2259943
50
278.4159829
51
279.0089104
0
ARC
8
right_labelLayer
10
212.6720193
20
44.6682596
40
2.1923063
50
278.9591523
51
280.5106391
0
ARC
8
right_labelLayer
10
212.8142339
20
43.9051798
40
1.4160879
50
280.4851954
51
282.6264461
0
ARC
8
right_labelLayer
10
212.9391821
20
43.3500369
40
0.847058
50
282.587502
51
285.5796152
0
ARC
8
right_labelLayer
10
213.0013832
20
43.1211733
40
0.6098994
50
285.7253995
51
286.2566896
0
ARC
8
right_labelLayer
10
213.0017331
20
42.5859749
40
0.3986239
50
287.9888329
51
295.3049282
0
ARC
8
right_labelLayer
10
212.9055934
20
42.8768349
40
0.7049584
50
283.3068847
51
288.1199544
0
ARC
8
right_labelLayer
10
212.8039967
20
43.3006433
40
1.140773
50
280.0070995
51
283.3733034
0
ARC
8
right_labelLayer
10
212.7362088
20
43.6684144
40
1.5147311
50
279.1862642
51
280.1148614
0
ARC
8
right_labelLayer
10
212.694357
20
43.9065105
40
1.756458
50
275.5259205
51
279.2940497
0
ARC
8
right_labelLayer
10
212.7413505
20
43.4156432
40
1.2633467
50
270.8932729
51
275.5483032
0
ARC
8
right_labelLayer
10
212.7472725
20
43.1901765
40
1.0378179
50
270.0023145
51
270.7604253
0
ARC
8
right_labelLayer
10
212.7309599
20
43.2107429
40
1.0585107
50
253.7847598
51
270.8852869
0
ARC
8
right_labelLayer
10
212.6055546
20
42.7830654
40
0.6128283
50
190.3817649
51
253.8772393
0
ARC
8
right_labelLayer
10
213.2447511
20
42.9558923
40
1.2738846
50
179.3551319
51
192.847745
0
ARC
8
right_labelLayer
10
213.1922755
20
42.9822144
40
0.8160708
50
179.6415763
51
189.7507023
0
ARC
8
right_labelLayer
10
212.904201
20
42.9308317
40
0.5234589
50
189.5480204
51
205.7872936
0
ARC
8
right_labelLayer
10
212.7858038
20
42.8762357
40
0.3931082
50
206.1294381
51
221.4083293
0
ARC
8
right_labelLayer
10
212.7725274
20
42.8661628
40
0.3764902
50
221.5949792
51
262.3504868
0
ARC
8
right_labelLayer
10
212.8041006
20
43.0285279
40
0.5416998
50
261.3266402
51
270.1911896
0
LINE
8
bottom_outsideCutPath
10
249
20
143
11
249
21
136.3125
0
LINE
8
bottom_outsideCutPath
10
249
20
136.3125
11
246
21
136.3125
0
LINE
8
bottom_outsideCutPath
10
246
20
136.3125
11
246
21
126.1875
0
LINE
8
bottom_outsideCutPath
10
246
20
126.1875
11
249
21
126.1875
0
LINE
8
bottom_outsideCutPath
10
249
20
126.1875
11
249
21
116.0625
0
LINE
8
bottom_outsideCutPath
10
249
20
116.0625
11
246
21
116.0625
0
LINE
8
bottom_outsideCutPath
10
246
20
116.0625
11
246
21
105.9375
0
LINE
8
bottom_outsideCutPath
10
246
20
105.9375
11
249
21
105.9375
0
LINE
8
bottom_outsideCutPath
10
249
20
105.9375
11
249
21
95.8125
0
LINE
8
bottom_outsideCutPath
10
249
20
95.8125
11
246
21
95.8125
0
LINE
8
bottom_outsideCutPath
10
246
20
95.8125
11
246
21
85.6875
0
LINE
8
bottom_outsideCutPath
10
246
20
85.6875
11
249
21
85.6875
0
LINE
8
bottom_outsideCutPath
10
249
20
85.6875
11
249
21
79
0
LINE
8
bottom_outsideCutPath
10
249
20
79
11
255.0625
21
79
0
LINE
8
bottom_outsideCutPath
10
255.0625
20
79
11
255.0625
21
76
0
LINE
8
bottom_outsideCutPath
10
255.0625
20
76
11
265.1875
21
76
0
LINE
8
bottom_outsideCutPath
10
265.1875
20
76
11
265.1875
21
79
0
LINE
8
bottom_outsideCutPath
10
265.1875
20
79
11
275.3125
21
79
0
LINE
8
bottom_outsideCutPath
10
275.3125
20
79
11
275.3125
21
76
0
LINE
8
bottom_outsideCutPath
10
275.3125
20
76
11
285.4375
21
76
0
LINE
8
bottom_outsideCutPath
10
285.4375
20
76
11
285.4375
21
79
0
LINE
8
bottom_outsideCutPath
10
285.4375
20
79
11
295.5625
21
79
0
LINE
8
bottom_outsideCutPath
10
295.5625
20
79
11
295.5625
21
76
0
LINE
8
bottom_outsideCutPath
10
295.5625
20
76
11
305.6875
21
76
0
LINE
8
bottom_outsideCutPath
10
305.6875
20
76
11
305.6875
21
79
0
LINE
8
bottom_outsideCutPath
10
305.6875
20
79
11
315.8125
21
79
0
LINE
8
bottom_outsideCutPath
10
315.8125
20
79
11
315.8125
21
76
0
LINE
8
bottom_outsideCutPath
10
315.8125
20
76
11
325.9375
21
76
0
LINE
8
bottom_outsideCutPath
10
325.9375
20
76
11
325.9375
21
79
0
LINE
8
bottom_outsideCutPath
10
325.9375
20
79
11
336.0625
21
79
0
LINE
8
bottom_outsideCutPath
10
336.0625
20
79
11
336.0625
21
76
0
LINE
8
bottom_outsideCutPath
10
336.0625
20
76
11
346.1875
21
76
0
LINE
8
bottom_outsideCutPath
10
346.1875
20
76
11
346.1875
21
79
0
LINE
8
bottom_outsideCutPath
10
346.1875
20
79
11
356.3125
21
79
0
LINE
8
bottom_outsideCutPath
10
356.3125
20
79
11
356.3125
21
76
0
LINE
8
bottom_outsideCutPath
10
356.3125
20
76
11
366.4375
21
76
0
LINE
8
bottom_outsideCutPath
10
366.4375
20
76
11
366.4375
21
79
0
LINE
8
bottom_outsideCutPath
10
366.4375
20
79
11
376.5625
21
79
0
LINE
8
bottom_outsideCutPath
10
376.5625
20
79
11
376.5625
21
76
0
LINE
8
bottom_outsideCutPath
10
376.5625
20
76
11
386.6875
21
76
0
LINE
8
bottom_outsideCutPath
10
386.6875
20
76
11
386.6875
21
79
0
LINE
8
bottom_outsideCutPath
10
386.6875
20
79
11
396.8125
21
79
0
LINE
8
bottom_outsideCutPath
10
396.8125
20
79
11
396.8125
21
76
0
LINE
8
bottom_outsideCutPath
10
396.8125
20
76
11
406.9375
21
76
0
LINE
8
bottom_outsideCutPath
10
406.9375
20
76
11
406.9375
21
79
0
LINE
8
bottom_outsideCutPath
10
406.9375
20
79
11
413
21
79
0
LINE
8
bottom_outsideCutPath
10
413
20
79
11
413
21
85.6875
0
LINE
8
bottom_outsideCutPath
10
413
20
85.6875
11
416
21
85.6875
0
LINE
8
bottom_outsideCutPath
10
416
20
85.6875
11
416
21
95.8125
0
LINE
8
bottom_outsideCutPath
10
416
20
95.8125
11
413
21
95.8125
0
LINE
8
bottom_outsideCutPath
10
413
20
95.8125
11
413
21
105.9375
0
LINE
8
bottom_outsideCutPath
10
413
20
105.9375
11
416
21
105.9375
0
LINE
8
bottom_outsideCutPath
10
416
20
105.9375
11
416
21
116.0625
0
LINE
8
bottom_outsideCutPath
10
416
20
116.0625
11
413
21
116.0625
0
LINE
8
bottom_outsideCutPath
10
413
20
116.0625
11
413
21
126.1875
0
LINE
8
bottom_outsideCutPath
10
413
20
126.1875
11
416
21
126.1875
0
LINE
8
bottom_outsideCutPath
10
416
20
126.1875
11
416
21
136.3125
0
LINE
8
bottom_outsideCutPath
10
416
20
136.3125
11
413
21
136.3125
0
LINE
8
bottom_outsideCutPath
10
413
20
136.3125
11
413
21
143
0
LINE
8
bottom_outsideCutPath
10
413
20
143
11
406.9375
21
143
0
LINE
8
bottom_outsideCutPath
10
406.9375
20
143
11
406.9375
21
146
0
LINE
8
bottom_outsideCutPath
10
406.9375
20
146
11
396.8125
21
146
0
LINE
8
bottom_outsideCutPath
10
396.8125
20
146
11
396.8125
21
143
0
LINE
8
bottom_outsideCutPath
10
396.8125
20
143
11
386.6875
21
143
0
LINE
8
bottom_outsideCutPath
10
386.6875
20
143
11
386.6875
21
146
0
LINE
8
bottom_outsideCutPath
10
386.6875
20
146
11
376.5625
21
146
0
LINE
8
bottom_outsideCutPath
10
376.5625
20
146
11
376.5625
21
143
0
LINE
8
bottom_outsideCutPath
10
376.5625
20
143
11
366.4375
21
143
0
LINE
8
bottom_outsideCutPath
10
366.4375
20
143
11
366.4375
21
146
0
LINE
8
bottom_outsideCutPath
10
366.4375
20
146
11
356.3125
21
146
0
LINE
8
bottom_outsideCutPath
10
356.3125
20
146
11
356.3125
21
143
0
LINE
8
bottom_outsideCutPath
10
356.3125
20
143
11
346.1875
21
143
0
LINE
8
bottom_outsideCutPath
10
346.1875
20
143
11
346.1875
21
146
0
LINE
8
bottom_outsideCutPath
10
346.1875
20
146
11
336.0625
21
146
0
LINE
8
bottom_outsideCutPath
10
336.0625
20
146
11
336.0625
21
143
0
LINE
8
bottom_outsideCutPath
10
336.0625
20
143
11
325.9375
21
143
0
LINE
8
bottom_outsideCutPath
10
325.9375
20
143
11
325.9375
21
146
0
LINE
8
bottom_outsideCutPath
10
325.9375
20
146
11
315.8125
21
146
0
LINE
8
bottom_outsideCutPath
10
315.8125
20
146
11
315.8125
21
143
0
LINE
8
bottom_outsideCutPath
10
315.8125
20
143
11
305.6875
21
143
0
LINE
8
bottom_outsideCutPath
10
305.6875
20
143
11
305.6875
21
146
0
LINE
8
bottom_outsideCutPath
10
305.6875
20
146
11
295.5625
21
146
0
LINE
8
bottom_outsideCutPath
10
295.5625
20
146
11
295.5625
21
143
0
LINE
8
bottom_outsideCutPath
10
295.5625
20
143
11
285.4375
21
143
0
LINE
8
bottom_outsideCutPath
10
285.4375
20
143
11
285.4375
21
146
0
LINE
8
bottom_outsideCutPath
10
285.4375
20
146
11
275.3125
21
146
0
LINE
8
bottom_outsideCutPath
10
275.3125
20
146
11
275.3125
21
143
0
LINE
8
bottom_outsideCutPath
10
275.3125
20
143
11
265.1875
21
143
0
LINE
8
bottom_outsideCutPath
10
265.1875
20
143
11
265.1875
21
146
0
LINE
8
bottom_outsideCutPath
10
265.1875
20
146
11
255.0625
21
146
0
LINE
8
bottom_outsideCutPath
10
255.0625
20
146
11
255.0625
21
143
0
LINE
8
bottom_outsideCutPath
10
255.0625
20
143
11
249
21
143
0
LINE
8
bottom_labelLayer
10
309.1044591
20
106.7140441
11
309.0224278
21
106.7140441
0
LINE
8
bottom_labelLayer
10
309.0224278
20
106.7140441
11
308.78317
21
105.7501769
0
LINE
8
bottom_labelLayer
10
308.78317
20
105.7501769
11
307.9696934
21
105.7501769
0
LINE
8
bottom_labelLayer
10
307.9696934
20
105.7501769
11
307.9696934
21
116.3868956
0
LINE
8
bottom_labelLayer
10
307.9696934
20
116.3868956
11
309.1044591
21
116.3868956
0
LINE
8
bottom_labelLayer
10
309.1044591
20
116.3868956
11
309.1044591
21
113.8029113
0
LINE
8
bottom_labelLayer
10
309.0497716
20
112.2443175
11
309.1044591
21
112.2443175
0
ARC
8
bottom_labelLayer
10
311.490063
20
109.8973394
40
3.468239
50
74.2393378
51
90.5623781
0
ARC
8
bottom_labelLayer
10
311.719395
20
110.7386544
40
2.596274
50
38.5631196
51
74.0670406
0
ARC
8
bottom_labelLayer
10
311.1292238
20
110.2797607
40
3.3438178
50
16.4709216
51
38.407539
0
ARC
8
bottom_labelLayer
10
309.4290225
20
109.7466263
40
5.1254912
50
5.1338466
51
16.7973459
0
ARC
8
bottom_labelLayer
10
307.2827052
20
109.5186269
40
7.2836844
50
359.8779124
51
5.409378
0
ARC
8
bottom_labelLayer
10
307.9130765
20
109.4638543
40
6.6534124
50
350.6562969
51
0.3380228
0
ARC
8
bottom_labelLayer
10
310.2325768
20
109.0693345
40
4.3006527
50
335.8305943
51
350.8254858
0
ARC
8
bottom_labelLayer
10
311.2528843
20
108.6289536
40
3.1895187
50
321.3161197
51
335.543641
0
ARC
8
bottom_labelLayer
10
311.6429415
20
108.3111144
40
2.6863843
50
274.0640035
51
321.4080983
0
ARC
8
bottom_labelLayer
10
311.4612244
20
109.462177
40
3.8487223
50
269.9225448
51
275.5481523
0
ARC
8
bottom_labelLayer
10
311.4368845
20
109.0553938
40
3.4419889
50
255.7755471
51
270.3185591
0
ARC
8
bottom_labelLayer
10
311.3386682
20
108.6190146
40
2.9948789
50
245.9801989
51
255.5455399
0
ARC
8
bottom_labelLayer
10
311.1484096
20
108.1765615
40
2.5133029
50
215.5850331
51
245.8361583
0
ARC
8
bottom_labelLayer
10
285.4455834
20
113.7829044
40
23.6588841
50
358.112327
51
0.0484515
0
ARC
8
bottom_labelLayer
10
292.0302979
20
113.5618373
40
17.0704613
50
355.7238524
51
358.1259058
0
ARC
8
bottom_labelLayer
10
294.9274151
20
113.3628297
40
14.1665811
50
355.4715398
51
355.6528085
0
ARC
8
bottom_labelLayer
10
311.2207474
20
110.7685726
40
2.5800193
50
95.1835114
51
145.1108966
0
ARC
8
bottom_labelLayer
10
311.4475213
20
109.4897702
40
3.8756504
50
89.8743367
51
96.8145301
0
ARC
8
bottom_labelLayer
10
311.2682021
20
109.2265215
40
3.1887829
50
89.5731335
51
100.7324378
0
ARC
8
bottom_labelLayer
10
311.0321431
20
110.4191698
40
1.973062
50
100.446944
51
119.6700712
0
ARC
8
bottom_labelLayer
10
310.8132448
20
110.8284255
40
1.5091588
50
120.1402758
51
142.4248779
0
ARC
8
bottom_labelLayer
10
311.1753935
20
110.5888532
40
1.9425194
50
143.3382366
51
161.2559979
0
ARC
8
bottom_labelLayer
10
312.6898554
20
110.0511708
40
3.5495104
50
160.8926721
51
171.2333942
0
ARC
8
bottom_labelLayer
10
315.2180135
20
109.6433201
40
6.1103194
50
171.0667692
51
177.8456727
0
ARC
8
bottom_labelLayer
10
317.8473177
20
109.5095925
40
8.7428612
50
177.6176499
51
180.0425051
0
ARC
8
bottom_labelLayer
10
316.6073659
20
109.473807
40
7.5029641
50
179.7762555
51
185.7075242
0
ARC
8
bottom_labelLayer
10
313.6492249
20
109.1690135
40
4.5291852
50
185.59248
51
194.2050613
0
ARC
8
bottom_labelLayer
10
311.7542517
20
108.6772018
40
2.5714929
50
193.94302
51
208.0218544
0
ARC
8
bottom_labelLayer
10
310.9875489
20
108.2871586
40
1.7115001
50
208.5536605
51
217.5605407
0
ARC
8
bottom_labelLayer
10
310.9250825
20
108.2611763
40
1.6462364
50
218.169033
51
253.8047229
0
ARC
8
bottom_labelLayer
10
311.2304286
20
109.2025898
40
2.6356344
50
253.1382494
51
266.848305
0
ARC
8
bottom_labelLayer
10
311.3160548
20
110.212355
40
3.6487032
50
266.3775207
51
270.0510039
0
ARC
8
bottom_labelLayer
10
311.3435084
20
108.8256712
40
2.2621473
50
269.3869083
51
285.8630602
0
ARC
8
bottom_labelLayer
10
311.5115715
20
108.2182659
40
1.631941
50
286.0163033
51
326.8497284
0
ARC
8
bottom_labelLayer
10
310.7004146
20
108.7556276
40
2.6049303
50
326.7105004
51
343.6661902
0
ARC
8
bottom_labelLayer
10
309.1819657
20
109.2196154
40
4.1926222
50
343.4171562
51
353.6369239
0
ARC
8
bottom_labelLayer
10
306.8885365
20
109.4917486
40
6.5021035
50
353.4934709
51
0.2205605
0
ARC
8
bottom_labelLayer
10
306.6863255
20
109.5439142
40
6.7043213
50
359.768095
51
6.3095117
0
ARC
8
bottom_labelLayer
10
309.2117165
20
109.8337159
40
4.1623916
50
6.1648728
51
16.0396328
0
ARC
8
bottom_labelLayer
10
310.8385297
20
110.3131371
40
2.4664694
50
15.7779331
51
32.0151359
0
ARC
8
bottom_labelLayer
10
311.3456816
20
110.6035492
40
1.8826272
50
32.7035799
51
35.5241557
0
ARC
8
bottom_labelLayer
10
311.5313606
20
110.7355189
40
1.6548281
50
35.5408388
51
79.8011227
0
ARC
8
bottom_labelLayer
10
311.3091341
20
109.7907928
40
2.6244794
50
78.6781199
51
90.3749563
0
ARC
8
bottom_labelLayer
10
317.154201
20
109.46359
40
5.861524
50
349.1761909
51
0.3862729
0
ARC
8
bottom_labelLayer
10
319.1276338
20
109.0701823
40
3.8493546
50
330.2507088
51
349.4116471
0
ARC
8
bottom_labelLayer
10
319.7349506
20
108.7545243
40
3.1655655
50
318.1440001
51
329.7566115
0
ARC
8
bottom_labelLayer
10
319.8445724
20
108.6666748
40
3.0253078
50
278.8959153
51
317.9979093
0
ARC
8
bottom_labelLayer
10
319.5621389
20
110.0198425
40
4.4064263
50
269.7503032
51
279.8033163
0
ARC
8
bottom_labelLayer
10
319.5163352
20
109.2574133
40
3.6440523
50
253.5436996
51
270.4182448
0
ARC
8
bottom_labelLayer
10
319.3950316
20
108.7881807
40
3.1597214
50
238.8115596
51
253.2428403
0
ARC
8
bottom_labelLayer
10
319.3558829
20
108.7094522
40
3.0721068
50
207.7946966
51
238.6757966
0
ARC
8
bottom_labelLayer
10
319.9178483
20
109.0536097
40
3.7299584
50
205.6561277
51
208.4460612
0
ARC
8
bottom_labelLayer
10
320.3503321
20
109.2337894
40
4.1978887
50
188.9102454
51
205.3171387
0
ARC
8
bottom_labelLayer
10
321.8085504
20
109.4807627
40
5.6767915
50
179.774483
51
189.0932695
0
ARC
8
bottom_labelLayer
10
322.0236383
20
109.5430139
40
5.8919707
50
169.2442972
51
180.3880773
0
ARC
8
bottom_labelLayer
10
320.0227684
20
109.938514
40
3.8524732
50
150.7111458
51
169.4695545
0
ARC
8
bottom_labelLayer
10
319.3840328
20
110.2665291
40
3.1350326
50
138.1759582
51
150.2287544
0
ARC
8
bottom_labelLayer
10
319.277783
20
110.3480618
40
3.0015028
50
99.1759372
51
137.9832667
0
ARC
8
bottom_labelLayer
10
319.5702219
20
108.9718088
40
4.4073224
50
89.732647
51
100.0759761
0
ARC
8
bottom_labelLayer
10
319.6286697
20
109.5661711
40
3.8131002
50
73.5222821
51
90.5692341
0
ARC
8
bottom_labelLayer
10
319.8522845
20
110.3786254
40
2.9706297
50
41.144574
51
73.2133806
0
ARC
8
bottom_labelLayer
10
319.42542
20
110.0117418
40
3.5334789
50
13.5014392
51
41.0703409
0
ARC
8
bottom_labelLayer
10
317.7762309
20
109.580172
40
5.2379639
50
1.1277214
51
13.8799942
0
ARC
8
bottom_labelLayer
10
316.3556442
20
109.5040408
40
6.659948
50
359.9919625
51
1.5420266
0
ARC
8
bottom_labelLayer
10
323.053949
20
109.4736178
40
5.7464406
50
179.705976
51
187.9160775
0
ARC
8
bottom_labelLayer
10
320.9463357
20
109.1708626
40
3.6172277
50
187.7639454
51
200.0976771
0
ARC
8
bottom_labelLayer
10
319.7852565
20
108.7454425
40
2.3806654
50
200.0845957
51
216.9131344
0
ARC
8
bottom_labelLayer
10
319.3612686
20
108.4426965
40
1.8598792
50
217.3009555
51
261.7099096
0
ARC
8
bottom_labelLayer
10
319.5580974
20
109.3819492
40
2.8183221
50
260.5033339
51
270.2476575
0
ARC
8
bottom_labelLayer
10
319.595665
20
109.1992981
40
2.6357669
50
269.4481633
51
284.7255819
0
ARC
8
bottom_labelLayer
10
319.8043226
20
108.4254553
40
1.83431
50
284.5662452
51
322.6333705
0
ARC
8
bottom_labelLayer
10
319.3164684
20
108.777907
40
2.4360009
50
323.0089379
51
342.6390522
0
ARC
8
bottom_labelLayer
10
317.9211056
20
109.2339524
40
3.9039219
50
342.3615629
51
353.7537587
0
ARC
8
bottom_labelLayer
10
315.8624596
20
109.4820953
40
5.9773881
50
353.5363068
51
0.2014024
0
ARC
8
bottom_labelLayer
10
316.1778646
20
109.5320038
40
5.6620198
50
359.7075784
51
7.8972558
0
ARC
8
bottom_labelLayer
10
318.2514547
20
109.8292691
40
3.5672649
50
7.7440168
51
20.0690008
0
ARC
8
bottom_labelLayer
10
319.4069479
20
110.2532909
40
2.3364301
50
20.0256952
51
37.4350367
0
ARC
8
bottom_labelLayer
10
319.7903282
20
110.5253305
40
1.8667248
50
37.9577773
51
80.4006162
0
ARC
8
bottom_labelLayer
10
319.572467
20
109.5532539
40
2.8620059
50
79.3453524
51
90.3175004
0
ARC
8
bottom_labelLayer
10
319.5321268
20
109.7147089
40
2.700618
50
89.4806154
51
103.880483
0
ARC
8
bottom_labelLayer
10
319.3052052
20
110.5788303
40
1.8073392
50
103.4685271
51
142.3118771
0
ARC
8
bottom_labelLayer
10
319.7463594
20
110.2685803
40
2.3462468
50
142.902585
51
162.3749539
0
ARC
8
bottom_labelLayer
10
321.1364453
20
109.80534
40
3.8113983
50
162.065342
51
173.1674679
0
ARC
8
bottom_labelLayer
10
323.3039318
20
109.5288909
40
5.9964032
50
173.0086168
51
180.2463704
0
LINE
8
bottom_labelLayer
10
328.4501622
20
106.6867003
11
328.4501622
21
105.8185363
0
LINE
8
bottom_labelLayer
10
325.0868809
20
107.9034972
11
325.0868809
21
112.3605284
0
LINE
8
bottom_labelLayer
10
325.0868809
20
112.3605284
11
324.0136387
21
112.3605284
0
LINE
8
bottom_labelLayer
10
324.0136387
20
112.3605284
11
324.0136387
21
112.9074034
0
LINE
8
bottom_labelLayer
10
324.0136387
20
112.9074034
11
325.0868809
21
113.3790831
0
LINE
8
bottom_labelLayer
10
325.0868809
20
113.3790831
11
325.5653966
21
114.9786925
0
LINE
8
bottom_labelLayer
10
325.5653966
20
114.9786925
11
326.2216466
21
114.9786925
0
LINE
8
bottom_labelLayer
10
326.2216466
20
114.9786925
11
326.2216466
21
113.2423644
0
LINE
8
bottom_labelLayer
10
326.2216466
20
113.2423644
11
328.3954747
21
113.2423644
0
LINE
8
bottom_labelLayer
10
328.3954747
20
113.2423644
11
328.3954747
21
112.3605284
0
LINE
8
bottom_labelLayer
10
328.3954747
20
112.3605284
11
326.2216466
21
112.3605284
0
LINE
8
bottom_labelLayer
10
326.2216466
20
112.3605284
11
326.2216466
21
107.9513488
0
ARC
8
bottom_labelLayer
10
327.4325551
20
110.2766777
40
3.7267042
50
269.880333
51
278.3028589
0
ARC
8
bottom_labelLayer
10
327.4680409
20
109.9866662
40
3.4346148
50
278.4157178
51
279.0083293
0
ARC
8
bottom_labelLayer
10
327.0497672
20
112.6587706
40
6.1392554
50
278.9590685
51
280.5103537
0
ARC
8
bottom_labelLayer
10
327.448335
20
110.5201384
40
3.9638016
50
280.4848283
51
282.6267515
0
ARC
8
bottom_labelLayer
10
327.7978327
20
108.9673731
40
2.3721909
50
282.587809
51
285.5793814
0
ARC
8
bottom_labelLayer
10
327.9732239
20
108.3223866
40
1.7038017
50
285.7232732
51
286.2557847
0
ARC
8
bottom_labelLayer
10
327.9730747
20
106.827603
40
1.1161667
50
287.9888515
51
295.3048159
0
ARC
8
bottom_labelLayer
10
327.7038544
20
107.6421252
40
1.9740213
50
283.3070047
51
288.1197382
0
ARC
8
bottom_labelLayer
10
327.4194594
20
108.8284496
40
3.1939546
50
280.0070333
51
283.3734583
0
ARC
8
bottom_labelLayer
10
327.2288187
20
109.8631886
40
4.2460865
50
279.1865642
51
280.114103
0
ARC
8
bottom_labelLayer
10
327.1124056
20
110.5252512
40
4.9182512
50
275.5259953
51
279.2939952
0
ARC
8
bottom_labelLayer
10
327.2440163
20
109.150526
40
3.5372414
50
270.8932023
51
275.5484028
0
ARC
8
bottom_labelLayer
10
327.2605645
20
108.5202676
40
2.9068095
50
270.0028502
51
270.7607212
0
ARC
8
bottom_labelLayer
10
327.2149171
20
108.5769412
40
2.9638368
50
253.7847806
51
270.8852679
0
ARC
8
bottom_labelLayer
10
326.8637813
20
107.3794373
40
1.7159191
50
190.3817648
51
253.8772427
0
ARC
8
bottom_labelLayer
10
328.6535189
20
107.8633504
40
3.5668638
50
179.3550945
51
192.8477568
0
ARC
8
bottom_labelLayer
10
328.5066375
20
107.9370565
40
2.2850357
50
179.6416289
51
189.7505893
0
ARC
8
bottom_labelLayer
10
327.6999835
20
107.7931804
40
1.4656766
50
189.5479729
51
205.7873393
0
ARC
8
bottom_labelLayer
10
327.368472
20
107.6403097
40
1.1006946
50
206.1293965
51
221.4084054
0
ARC
8
bottom_labelLayer
10
327.3313044
20
107.6121082
40
1.0541708
50
221.5949335
51
262.350513
0
ARC
8
bottom_labelLayer
10
327.4197072
20
108.0667123
40
1.5167391
50
261.3266421
51
270.1913104
0
LINE
8
bottom_labelLayer
10
333.392545
20
106.6867003
11
333.392545
21
105.8185363
0
LINE
8
bottom_labelLayer
10
330.0292637
20
107.9034972
11
330.0292637
21
112.3605284
0
LINE
8
bottom_labelLayer
10
330.0292637
20
112.3605284
11
328.9560216
21
112.3605284
0
LINE
8
bottom_labelLayer
10
328.9560216
20
112.3605284
11
328.9560216
21
112.9074034
0
LINE
8
bottom_labelLayer
10
328.9560216
20
112.9074034
11
330.0292637
21
113.3790831
0
LINE
8
bottom_labelLayer
10
330.0292637
20
113.3790831
11
330.5077794
21
114.9786925
0
LINE
8
bottom_labelLayer
10
330.5077794
20
114.9786925
11
331.1640294
21
114.9786925
0
LINE
8
bottom_labelLayer
10
331.1640294
20
114.9786925
11
331.1640294
21
113.2423644
0
LINE
8
bottom_labelLayer
10
331.1640294
20
113.2423644
11
333.3378575
21
113.2423644
0
LINE
8
bottom_labelLayer
10
333.3378575
20
113.2423644
11
333.3378575
21
112.3605284
0
LINE
8
bottom_labelLayer
10
333.3378575
20
112.3605284
11
331.1640294
21
112.3605284
0
LINE
8
bottom_labelLayer
10
331.1640294
20
112.3605284
11
331.1640294
21
107.9513488
0
ARC
8
bottom_labelLayer
10
332.3749379
20
110.2766777
40
3.7267042
50
269.880333
51
278.3028589
0
ARC
8
bottom_labelLayer
10
332.4104238
20
109.9866662
40
3.4346148
50
278.4157178
51
279.0083293
0
ARC
8
bottom_labelLayer
10
331.99215
20
112.6587706
40
6.1392554
50
278.9590685
51
280.5103537
0
ARC
8
bottom_labelLayer
10
332.3907178
20
110.5201384
40
3.9638016
50
280.4848283
51
282.6267515
0
ARC
8
bottom_labelLayer
10
332.7402155
20
108.9673731
40
2.3721909
50
282.587809
51
285.5793814
0
ARC
8
bottom_labelLayer
10
332.9156068
20
108.3223866
40
1.7038017
50
285.7232732
51
286.2557847
0
ARC
8
bottom_labelLayer
10
332.9154576
20
106.827603
40
1.1161667
50
287.9888515
51
295.3048159
0
ARC
8
bottom_labelLayer
10
332.6462372
20
107.6421252
40
1.9740213
50
283.3070047
51
288.1197382
0
ARC
8
bottom_labelLayer
10
332.3618422
20
108.8284496
40
3.1939546
50
280.0070333
51
283.3734583
0
ARC
8
bottom_labelLayer
10
332.1712015
20
109.8631886
40
4.2460865
50
279.1865642
51
280.114103
0
ARC
8
bottom_labelLayer
10
332.0547885
20
110.5252512
40
4.9182512
50
275.5259953
51
279.2939952
0
ARC
8
bottom_labelLayer
10
332.1863991
20
109.150526
40
3.5372414
50
270.8932023
51
275.5484028
0
ARC
8
bottom_labelLayer
10
332.2029473
20
108.5202676
40
2.9068095
50
270.0028502
51
270.7607212
0
ARC
8
bottom_labelLayer
10
332.1572999
20
108.5769412
40
2.9638368
50
253.7847806
51
270.8852679
0
ARC
8
bottom_labelLayer
10
331.8061641
20
107.3794373
40
1.7159191
50
190.3817648
51
253.8772427
0
ARC
8
bottom_labelLayer
10
333.5959017
20
107.8633504
40
3.5668638
50
179.3550945
51
192.8477568
0
ARC
8
bottom_labelLayer
10
333.4490203
20
107.9370565
40
2.2850357
50
179.6416289
51
189.7505893
0
ARC
8
bottom_labelLayer
10
332.6423663
20
107.7931804
40
1.4656766
50
189.5479729
51
205.7873393
0
ARC
8
bottom_labelLayer
10
332.3108548
20
107.6403097
40
1.1006946
50
206.1293965
51
221.4084054
0
ARC
8
bottom_labelLayer
10
332.2736873
20
107.6121082
40
1.0541708
50
221.5949335
51
262.350513
0
ARC
8
bottom_labelLayer
10
332.36209
20
108.0667123
40
1.5167391
50
261.3266421
51
270.1913104
0
ARC
8
bottom_labelLayer
10
335.4950214
20
109.46359
40
5.861524
50
349.1761909
51
0.3862729
0
ARC
8
bottom_labelLayer
10
337.4684541
20
109.0701823
40
3.8493546
50
330.2507088
51
349.4116471
0
ARC
8
bottom_labelLayer
10
338.075771
20
108.7545243
40
3.1655655
50
318.1440001
51
329.7566115
0
ARC
8
bottom_labelLayer
10
338.1853927
20
108.6666748
40
3.0253078
50
278.8959153
51
317.9979093
0
ARC
8
bottom_labelLayer
10
337.9029592
20
110.0198425
40
4.4064263
50
269.7503032
51
279.8033163
0
ARC
8
bottom_labelLayer
10
337.8571555
20
109.2574133
40
3.6440523
50
253.5436996
51
270.4182448
0
ARC
8
bottom_labelLayer
10
337.7358519
20
108.7881807
40
3.1597214
50
238.8115596
51
253.2428403
0
ARC
8
bottom_labelLayer
10
337.6967032
20
108.7094522
40
3.0721068
50
207.7946966
51
238.6757966
0
ARC
8
bottom_labelLayer
10
338.2586686
20
109.0536097
40
3.7299584
50
205.6561277
51
208.4460612
0
ARC
8
bottom_labelLayer
10
338.6911524
20
109.2337894
40
4.1978887
50
188.9102454
51
205.3171387
0
ARC
8
bottom_labelLayer
10
340.1493707
20
109.4807627
40
5.6767915
50
179.774483
51
189.0932695
0
ARC
8
bottom_labelLayer
10
340.3644586
20
109.5430139
40
5.8919707
50
169.2442972
51
180.3880773
0
ARC
8
bottom_labelLayer
10
338.3635887
20
109.938514
40
3.8524732
50
150.7111458
51
169.4695545
0
ARC
8
bottom_labelLayer
10
337.7248531
20
110.2665291
40
3.1350326
50
138.1759582
51
150.2287544
0
ARC
8
bottom_labelLayer
10
337.6186033
20
110.3480618
40
3.0015028
50
99.1759372
51
137.9832667
0
ARC
8
bottom_labelLayer
10
337.9110422
20
108.9718088
40
4.4073224
50
89.732647
51
100.0759761
0
ARC
8
bottom_labelLayer
10
337.9694901
20
109.5661711
40
3.8131002
50
73.5222821
51
90.5692341
0
ARC
8
bottom_labelLayer
10
338.1931048
20
110.3786254
40
2.9706297
50
41.144574
51
73.2133806
0
ARC
8
bottom_labelLayer
10
337.7662403
20
110.0117418
40
3.5334789
50
13.5014392
51
41.0703409
0
ARC
8
bottom_labelLayer
10
336.1170512
20
109.580172
40
5.2379639
50
1.1277214
51
13.8799942
0
ARC
8
bottom_labelLayer
10
334.6964645
20
109.5040408
40
6.659948
50
359.9919625
51
1.5420266
0
ARC
8
bottom_labelLayer
10
341.3947693
20
109.4736178
40
5.7464406
50
179.705976
51
187.9160775
0
ARC
8
bottom_labelLayer
10
339.2871561
20
109.1708626
40
3.6172277
50
187.7639454
51
200.0976771
0
ARC
8
bottom_labelLayer
10
338.1260769
20
108.7454425
40
2.3806654
50
200.0845957
51
216.9131344
0
ARC
8
bottom_labelLayer
10
337.7020889
20
108.4426965
40
1.8598792
50
217.3009555
51
261.7099096
0
ARC
8
bottom_labelLayer
10
337.8989177
20
109.3819492
40
2.8183221
50
260.5033339
51
270.2476575
0
ARC
8
bottom_labelLayer
10
337.9364853
20
109.1992981
40
2.6357669
50
269.4481633
51
284.7255819
0
ARC
8
bottom_labelLayer
10
338.1451429
20
108.4254553
40
1.83431
50
284.5662452
51
322.6333705
0
ARC
8
bottom_labelLayer
10
337.6572887
20
108.777907
40
2.4360009
50
323.0089379
51
342.6390522
0
ARC
8
bottom_labelLayer
10
336.2619259
20
109.2339524
40
3.9039219
50
342.3615629
51
353.7537587
0
ARC
8
bottom_labelLayer
10
334.2032799
20
109.4820953
40
5.9773881
50
353.5363068
51
0.2014024
0
ARC
8
bottom_labelLayer
10
334.5186849
20
109.5320038
40
5.6620198
50
359.7075784
51
7.8972558
0
ARC
8
bottom_labelLayer
10
336.592275
20
109.8292691
40
3.5672649
50
7.7440168
51
20.0690008
0
ARC
8
bottom_labelLayer
10
337.7477682
20
110.2532909
40
2.3364301
50
20.0256952
51
37.4350367
0
ARC
8
bottom_labelLayer
10
338.1311485
20
110.5253305
40
1.8667248
50
37.9577773
51
80.4006162
0
ARC
8
bottom_labelLayer
10
337.9132873
20
109.5532539
40
2.8620059
50
79.3453524
51
90.3175004
0
ARC
8
bottom_labelLayer
10
337.8729471
20
109.7147089
40
2.700618
50
89.4806154
51
103.880483
0
ARC
8
bottom_labelLayer
10
337.6460255
20
110.5788303
40
1.8073392
50
103.4685271
51
142.3118771
0
ARC
8
bottom_labelLayer
10
338.0871797
20
110.2685803
40
2.3462468
50
142.902585
51
162.3749539
0
ARC
8
bottom_labelLayer
10
339.4772656
20
109.80534
40
3.8113983
50
162.065342
51
173.1674679
0
ARC
8
bottom_labelLayer
10
341.6447521
20
109.5288909
40
5.9964032
50
173.0086168
51
180.2463704
0
LINE
8
bottom_labelLayer
10
354.0302403
20
105.7501769
11
352.8954747
21
105.7501769
0
LINE
8
bottom_labelLayer
10
352.8954747
20
105.7501769
11
352.8954747
21
110.6242003
0
LINE
8
bottom_labelLayer
10
349.25192
20
109.9337706
11
349.25192
21
105.7501769
0
LINE
8
bottom_labelLayer
10
349.25192
20
105.7501769
11
348.1171544
21
105.7501769
0
LINE
8
bottom_labelLayer
10
348.1171544
20
105.7501769
11
348.1171544
21
110.6242003
0
LINE
8
bottom_labelLayer
10
344.4804356
20
109.6808409
11
344.4804356
21
105.7501769
0
LINE
8
bottom_labelLayer
10
344.4804356
20
105.7501769
11
343.34567
21
105.7501769
0
LINE
8
bottom_labelLayer
10
343.34567
20
105.7501769
11
343.34567
21
113.2423644
0
LINE
8
bottom_labelLayer
10
343.34567
20
113.2423644
11
344.2685216
21
113.2423644
0
LINE
8
bottom_labelLayer
10
344.2685216
20
113.2423644
11
344.4530919
21
112.2169738
0
LINE
8
bottom_labelLayer
10
344.4530919
20
112.2169738
11
344.5077794
21
112.2169738
0
LINE
8
bottom_labelLayer
10
349.0194981
20
112.1075988
11
349.0741856
21
112.1075988
0
LINE
8
bottom_labelLayer
10
354.0302403
20
110.6378722
11
354.0302403
21
105.7501769
0
ARC
8
bottom_labelLayer
10
349.5478876
20
110.6420305
40
3.3476346
50
359.6948289
51
8.1471812
0
ARC
8
bottom_labelLayer
10
350.7809219
20
110.8245079
40
2.1011932
50
7.9864502
51
20.7949742
0
ARC
8
bottom_labelLayer
10
351.4625084
20
111.0855987
40
1.3713154
50
20.7071372
51
40.0217549
0
ARC
8
bottom_labelLayer
10
351.6120357
20
111.1834321
40
1.1940816
50
41.0408215
51
73.1792684
0
ARC
8
bottom_labelLayer
10
351.3956725
20
110.5290396
40
1.8831703
50
72.6395442
51
86.2567956
0
ARC
8
bottom_labelLayer
10
351.3263623
20
109.7811324
40
2.6340853
50
85.8144609
51
90.0685873
0
ARC
8
bottom_labelLayer
10
351.3008937
20
109.4953725
40
2.9199288
50
89.5621172
51
101.2961603
0
ARC
8
bottom_labelLayer
10
351.0809738
20
110.5482057
40
1.8444372
50
101.00322
51
121.7840673
0
ARC
8
bottom_labelLayer
10
350.913781
20
110.846692
40
1.5027243
50
122.3597348
51
140.288427
0
ARC
8
bottom_labelLayer
10
351.2145813
20
110.6261338
40
1.8751762
50
140.9765214
51
161.1699248
0
ARC
8
bottom_labelLayer
10
352.3477434
20
110.2228659
40
3.0778923
50
160.8731462
51
172.5272773
0
ARC
8
bottom_labelLayer
10
354.2412606
20
109.9613549
40
4.9893553
50
172.3776439
51
180.1829708
0
ARC
8
bottom_labelLayer
10
355.5290951
20
109.9338852
40
6.2771749
50
179.8946992
51
180.0010461
0
ARC
8
bottom_labelLayer
10
344.7695673
20
110.6420305
40
3.3476346
50
359.6948289
51
8.1471812
0
ARC
8
bottom_labelLayer
10
346.0026016
20
110.8245079
40
2.1011932
50
7.9864502
51
20.7949742
0
ARC
8
bottom_labelLayer
10
346.6841881
20
111.0855987
40
1.3713154
50
20.7071372
51
40.0217549
0
ARC
8
bottom_labelLayer
10
346.8368242
20
111.1855805
40
1.1903263
50
41.0610767
51
72.8993486
0
ARC
8
bottom_labelLayer
10
346.6163627
20
110.5292439
40
1.8825564
50
72.3600853
51
85.9561733
0
ARC
8
bottom_labelLayer
10
346.5417354
20
109.758027
40
2.6571915
50
85.5237189
51
90.0794068
0
ARC
8
bottom_labelLayer
10
346.5162764
20
109.5968752
40
2.8184249
50
89.5573038
51
101.4832258
0
ARC
8
bottom_labelLayer
10
346.2999539
20
110.6103942
40
1.782157
50
101.1546539
51
123.0655656
0
ARC
8
bottom_labelLayer
10
346.1529068
20
110.8665434
40
1.4873552
50
123.7020503
51
142.302221
0
ARC
8
bottom_labelLayer
10
346.4973581
20
110.6328636
40
1.9029697
50
143.0770044
51
161.3913563
0
ARC
8
bottom_labelLayer
10
347.885792
20
110.1425006
40
3.3753622
50
161.0234353
51
171.4468944
0
ARC
8
bottom_labelLayer
10
350.184291
20
109.7824469
40
5.7018652
50
171.3041763
51
178.3501788
0
ARC
8
bottom_labelLayer
10
352.3807045
20
109.6843381
40
7.9002697
50
178.0975666
51
180.0253628
0
ARC
8
bottom_labelLayer
10
346.4302251
20
111.0864809
40
2.2302044
50
117.1209467
51
149.5423736
0
ARC
8
bottom_labelLayer
10
346.657837
20
110.6819302
40
2.6940961
50
93.834323
51
117.5072122
0
ARC
8
bottom_labelLayer
10
346.7207034
20
110.125054
40
3.2540296
50
89.9661986
51
94.2830843
0
ARC
8
bottom_labelLayer
10
346.7583697
20
109.664022
40
3.7152331
50
77.5572227
51
90.5512864
0
ARC
8
bottom_labelLayer
10
347.1031036
20
111.1467847
40
2.1930873
50
52.7027084
51
78.0053895
0
ARC
8
bottom_labelLayer
10
347.2259237
20
111.3752964
40
1.9373116
50
22.2098071
51
51.4970498
0
ARC
8
bottom_labelLayer
10
351.1298627
20
110.9294856
40
2.3693372
50
119.4041696
51
150.1828814
0
ARC
8
bottom_labelLayer
10
351.3925745
20
110.5299909
40
2.8465394
50
118.2582879
51
120.0629819
0
ARC
8
bottom_labelLayer
10
351.3918851
20
110.5006779
40
2.8720691
50
95.8635037
51
117.9693116
0
ARC
8
bottom_labelLayer
10
351.4890878
20
109.7978507
40
3.5812361
50
89.9196905
51
96.2617847
0
ARC
8
bottom_labelLayer
10
351.5202928
20
109.4346548
40
3.9445152
50
79.936106
51
90.3803554
0
ARC
8
bottom_labelLayer
10
351.7831207
20
110.8581069
40
2.4970572
50
62.9723416
51
80.1664991
0
ARC
8
bottom_labelLayer
10
352.0578741
20
111.4217958
40
1.8701114
50
44.2290234
51
62.622917
0
ARC
8
bottom_labelLayer
10
351.9761555
20
111.385697
40
1.9540953
50
19.5612026
51
43.3161055
0
ARC
8
bottom_labelLayer
10
350.7893445
20
110.9399305
40
3.2217374
50
7.5041902
51
19.9645205
0
ARC
8
bottom_labelLayer
10
348.8255194
20
110.6641503
40
5.2047872
50
359.7107217
51
7.6907278
0
ENDSEC
0
EOF