%TF.GenerationSoftware,KiCad,Pcbnew,7.0.9*%
%TF.CreationDate,2023-11-28T22:12:25-05:00*%
%TF.ProjectId,h,682e6b69-6361-4645-9f70-636258585858,rev?*%
%TF.SameCoordinates,Original*%
%TF.FileFunction,Soldermask,Bot*%
%TF.FilePolarity,Negative*%
%FSLAX46Y46*%
G04 Gerber Fmt 4.6, Leading zero omitted, Abs format (unit mm)*
G04 Created by KiCad (PCBNEW 7.0.9) date 2023-11-28 22:12:25*
%MOMM*%
%LPD*%
G01*
G04 APERTURE LIST*
G04 Aperture macros list*
%AMRoundRect*
0 Rectangle with rounded corners*
0 $1 Rounding radius*
0 $2 $3 $4 $5 $6 $7 $8 $9 X,Y pos of 4 corners*
0 Add a 4 corners polygon primitive as box body*
4,1,4,$2,$3,$4,$5,$6,$7,$8,$9,$2,$3,0*
0 Add four circle primitives for the rounded corners*
1,1,$1+$1,$2,$3*
1,1,$1+$1,$4,$5*
1,1,$1+$1,$6,$7*
1,1,$1+$1,$8,$9*
0 Add four rect primitives between the rounded corners*
20,1,$1+$1,$2,$3,$4,$5,0*
20,1,$1+$1,$4,$5,$6,$7,0*
20,1,$1+$1,$6,$7,$8,$9,0*
20,1,$1+$1,$8,$9,$2,$3,0*%
G04 Aperture macros list end*
%ADD10O,1.850000X3.048000*%
%ADD11C,2.400000*%
%ADD12O,2.400000X2.400000*%
%ADD13C,3.000000*%
%ADD14C,2.204000*%
%ADD15RoundRect,0.102000X1.000000X-1.000000X1.000000X1.000000X-1.000000X1.000000X-1.000000X-1.000000X0*%
%ADD16O,1.200000X1.200000*%
%ADD17O,1.600000X1.200000*%
%ADD18O,1.700000X1.700000*%
%ADD19R,1.700000X1.700000*%
%ADD20C,2.000000*%
%ADD21R,2.000000X2.000000*%
%TA.AperFunction,ComponentPad*%
%ADD22O,1.850000X3.048000*%
%TD*%
%TA.AperFunction,ComponentPad*%
%ADD23C,2.400000*%
%TD*%
%TA.AperFunction,ComponentPad*%
%ADD24O,2.400000X2.400000*%
%TD*%
%TA.AperFunction,ComponentPad*%
%ADD25C,2.000000*%
%TD*%
%TA.AperFunction,ComponentPad*%
%ADD26R,2.000000X2.000000*%
%TD*%
%TA.AperFunction,ComponentPad*%
%ADD27O,1.200000X1.200000*%
%TD*%
%TA.AperFunction,ComponentPad*%
%ADD28O,1.600000X1.200000*%
%TD*%
%TA.AperFunction,ComponentPad*%
%ADD29O,1.700000X1.700000*%
%TD*%
%TA.AperFunction,ComponentPad*%
%ADD30R,1.700000X1.700000*%
%TD*%
%TA.AperFunction,Conductor*%
%ADD31C,0.300000*%
%TD*%
G04 APERTURE END LIST*
D10*
%TO.C,SW1*%
X109300000Y-121720000D03*
X109300000Y-109220000D03*
X114300000Y-121720000D03*
X114300000Y-109220000D03*
%TD*%
D11*
%TO.C,R2*%
X116840000Y-104140000D03*
D12*
X104140000Y-104140000D03*
%TD*%
D13*
%TO.C,U1*%
X108605000Y-98640000D03*
X108605000Y-74130000D03*
X155555000Y-74130000D03*
X155555000Y-98640000D03*
D14*
X152125000Y-73660000D03*
X149585000Y-73660000D03*
X147045000Y-73660000D03*
X144505000Y-73660000D03*
X141965000Y-73660000D03*
X139425000Y-73660000D03*
X136885000Y-73660000D03*
X134345000Y-73660000D03*
X131805000Y-73660000D03*
X129265000Y-73660000D03*
X126725000Y-73660000D03*
X124185000Y-73660000D03*
X121645000Y-73660000D03*
X119105000Y-73660000D03*
X116565000Y-73660000D03*
X152125000Y-99060000D03*
X149585000Y-99060000D03*
X147045000Y-99060000D03*
X144505000Y-99060000D03*
X141965000Y-99060000D03*
X139425000Y-99060000D03*
X136885000Y-99060000D03*
X134345000Y-99060000D03*
X131805000Y-99060000D03*
X129265000Y-99060000D03*
X126725000Y-99060000D03*
X124185000Y-99060000D03*
X121645000Y-99060000D03*
X119105000Y-99060000D03*
D15*
X116565000Y-99060000D03*
%TD*%
D10*
%TO.C,SW4*%
X159745000Y-109220000D03*
X159745000Y-121720000D03*
X154745000Y-109220000D03*
X154745000Y-121720000D03*
%TD*%
%TO.C,SW3*%
X144505000Y-109220000D03*
X144505000Y-121720000D03*
X139505000Y-109220000D03*
X139505000Y-121720000D03*
%TD*%
%TO.C,SW2*%
X124540000Y-121720000D03*
X124540000Y-109220000D03*
X129540000Y-121720000D03*
X129540000Y-109220000D03*
%TD*%
D16*
%TO.C,Q1*%
X121645000Y-63500000D03*
X119105000Y-66040000D03*
D17*
X116565000Y-63500000D03*
%TD*%
D18*
%TO.C,J1*%
X164825000Y-101600000D03*
X164825000Y-99060000D03*
X164825000Y-96520000D03*
D19*
X164825000Y-93980000D03*
%TD*%
D20*
%TO.C,BZ1*%
X128005000Y-63500000D03*
D21*
X135605000Y-63500000D03*
%TD*%
D18*
%TO.C,A1*%
X142240000Y-63500000D03*
X144780000Y-63500000D03*
D19*
X147320000Y-63500000D03*
%TD*%
D22*
%TO.P,SW1,2,2*%
%TO.N,GND*%
X109300000Y-121720000D03*
X109300000Y-109220000D03*
%TO.P,SW1,1,1*%
%TO.N,/D4*%
X114300000Y-121720000D03*
X114300000Y-109220000D03*
%TD*%
D23*
%TO.P,R2,1*%
%TO.N,/D2*%
X116840000Y-104140000D03*
D24*
%TO.P,R2,2*%
%TO.N,Net-(Q1-B)*%
X104140000Y-104140000D03*
%TD*%
D25*
%TO.P,U1,16,EN*%
%TO.N,unconnected-(U1-EN-Pad16)*%
X152125000Y-73660000D03*
%TO.P,U1,17,VP*%
%TO.N,unconnected-(U1-VP-Pad17)*%
X149585000Y-73660000D03*
%TO.P,U1,18,VN*%
%TO.N,unconnected-(U1-VN-Pad18)*%
X147045000Y-73660000D03*
%TO.P,U1,19,D34*%
%TO.N,unconnected-(U1-D34-Pad19)*%
X144505000Y-73660000D03*
%TO.P,U1,20,D35*%
%TO.N,unconnected-(U1-D35-Pad20)*%
X141965000Y-73660000D03*
%TO.P,U1,21,D32*%
%TO.N,/D32*%
X139425000Y-73660000D03*
%TO.P,U1,22,D33*%
%TO.N,unconnected-(U1-D33-Pad22)*%
X136885000Y-73660000D03*
%TO.P,U1,23,D25*%
%TO.N,unconnected-(U1-D25-Pad23)*%
X134345000Y-73660000D03*
%TO.P,U1,24,D26*%
%TO.N,unconnected-(U1-D26-Pad24)*%
X131805000Y-73660000D03*
%TO.P,U1,25,D27*%
%TO.N,unconnected-(U1-D27-Pad25)*%
X129265000Y-73660000D03*
%TO.P,U1,26,D14*%
%TO.N,/D14*%
X126725000Y-73660000D03*
%TO.P,U1,27,D12*%
%TO.N,unconnected-(U1-D12-Pad27)*%
X124185000Y-73660000D03*
%TO.P,U1,28,D13*%
%TO.N,unconnected-(U1-D13-Pad28)*%
X121645000Y-73660000D03*
%TO.P,U1,29,GND*%
%TO.N,GND*%
X119105000Y-73660000D03*
%TO.P,U1,30,VIN*%
%TO.N,+5V*%
X116565000Y-73660000D03*
%TO.P,U1,15,D23*%
%TO.N,unconnected-(U1-D23-Pad15)*%
X152125000Y-99060000D03*
%TO.P,U1,14,D22*%
%TO.N,/D22*%
X149585000Y-99060000D03*
%TO.P,U1,13,TX0*%
%TO.N,unconnected-(U1-TX0-Pad13)*%
X147045000Y-99060000D03*
%TO.P,U1,12,RX0*%
%TO.N,unconnected-(U1-RX0-Pad12)*%
X144505000Y-99060000D03*
%TO.P,U1,11,D21*%
%TO.N,/D21*%
X141965000Y-99060000D03*
%TO.P,U1,10,D19*%
%TO.N,unconnected-(U1-D19-Pad10)*%
X139425000Y-99060000D03*
%TO.P,U1,9,D18*%
%TO.N,unconnected-(U1-D18-Pad9)*%
X136885000Y-99060000D03*
%TO.P,U1,8,D5*%
%TO.N,/D5*%
X134345000Y-99060000D03*
%TO.P,U1,7,TX2*%
%TO.N,/D17*%
X131805000Y-99060000D03*
%TO.P,U1,6,RX2*%
%TO.N,/D16*%
X129265000Y-99060000D03*
%TO.P,U1,5,D4*%
%TO.N,/D4*%
X126725000Y-99060000D03*
%TO.P,U1,4,D2*%
%TO.N,/D2*%
X124185000Y-99060000D03*
%TO.P,U1,3,D15*%
%TO.N,unconnected-(U1-D15-Pad3)*%
X121645000Y-99060000D03*
%TO.P,U1,2,GND*%
%TO.N,GND*%
X119105000Y-99060000D03*
D26*
%TO.P,U1,1,3V3*%
%TO.N,+3.3V*%
X116565000Y-99060000D03*
%TD*%
D22*
%TO.P,SW4,2,2*%
%TO.N,GND*%
X159745000Y-109220000D03*
X159745000Y-121720000D03*
%TO.P,SW4,1,1*%
%TO.N,/D5*%
X154745000Y-109220000D03*
X154745000Y-121720000D03*
%TD*%
%TO.P,SW3,2,2*%
%TO.N,GND*%
X144505000Y-109220000D03*
X144505000Y-121720000D03*
%TO.P,SW3,1,1*%
%TO.N,/D17*%
X139505000Y-109220000D03*
X139505000Y-121720000D03*
%TD*%
%TO.P,SW2,2,2*%
%TO.N,GND*%
X124540000Y-121720000D03*
X124540000Y-109220000D03*
%TO.P,SW2,1,1*%
%TO.N,/D16*%
X129540000Y-121720000D03*
X129540000Y-109220000D03*
%TD*%
D27*
%TO.P,Q1,3,C*%
%TO.N,Net-(BZ1-+)*%
X121645000Y-63500000D03*
%TO.P,Q1,2,B*%
%TO.N,Net-(Q1-B)*%
X119105000Y-66040000D03*
D28*
%TO.P,Q1,1,E*%
%TO.N,GND*%
X116565000Y-63500000D03*
%TD*%
D29*
%TO.P,J1,4,Pin_4*%
%TO.N,GND*%
X164825000Y-101600000D03*
%TO.P,J1,3,Pin_3*%
%TO.N,+5V*%
X164825000Y-99060000D03*
%TO.P,J1,2,Pin_2*%
%TO.N,/D22*%
X164825000Y-96520000D03*
D30*
%TO.P,J1,1,Pin_1*%
%TO.N,/D21*%
X164825000Y-93980000D03*
%TD*%
D25*
%TO.P,BZ1,2,+*%
%TO.N,Net-(BZ1-+)*%
X128005000Y-63500000D03*
D26*
%TO.P,BZ1,1,-*%
%TO.N,+5V*%
X135605000Y-63500000D03*
%TD*%
D29*
%TO.P,A1,3,GND*%
%TO.N,GND*%
X142240000Y-63500000D03*
%TO.P,A1,2,VOUT*%
%TO.N,+3.3V*%
X144780000Y-63500000D03*
D30*
%TO.P,A1,1,+VS*%
%TO.N,/D32*%
X147320000Y-63500000D03*
%TD*%
D31*
%TO.N,GND*%
X114162500Y-78602500D02*
X114162500Y-104002500D01*
X117755000Y-75010000D02*
X114162500Y-78602500D01*
X114162500Y-104002500D02*
X119105000Y-99060000D01*
X109300000Y-108865000D02*
X114162500Y-104002500D01*
%TO.N,Net-(Q1-B)*%
X104140000Y-74381497D02*
X104140000Y-104140000D01*
X115971497Y-62550000D02*
X104140000Y-74381497D01*
X117158503Y-62550000D02*
X115971497Y-62550000D01*
X119105000Y-64496497D02*
X117158503Y-62550000D01*
X119105000Y-66040000D02*
X119105000Y-64496497D01*
%TO.N,/D21*%
X163385000Y-95420000D02*
X145605000Y-95420000D01*
X145605000Y-95420000D02*
X141965000Y-99060000D01*
X164825000Y-93980000D02*
X163385000Y-95420000D01*
%TO.N,/D22*%
X152125000Y-96520000D02*
X149585000Y-99060000D01*
X164825000Y-96520000D02*
X152125000Y-96520000D01*
%TO.N,+5V*%
X166025000Y-77125000D02*
X166025000Y-97860000D01*
X166025000Y-97860000D02*
X164825000Y-99060000D01*
X150700000Y-61800000D02*
X166025000Y-77125000D01*
X137305000Y-61800000D02*
X150700000Y-61800000D01*
X135605000Y-63500000D02*
X137305000Y-61800000D01*
%TO.N,GND*%
X115650000Y-75010000D02*
X117755000Y-75010000D01*
X115215000Y-74575000D02*
X115650000Y-75010000D01*
X115215000Y-64850000D02*
X115215000Y-74575000D01*
X117755000Y-75010000D02*
X119105000Y-73660000D01*
X116565000Y-63500000D02*
X115215000Y-64850000D01*
%TO.N,+5V*%
X118415000Y-71810000D02*
X116565000Y-73660000D01*
X127295000Y-71810000D02*
X118415000Y-71810000D01*
X135605000Y-63500000D02*
X127295000Y-71810000D01*
%TO.N,+3.3V*%
X138195000Y-77430000D02*
X116565000Y-99060000D01*
X157617132Y-77430000D02*
X138195000Y-77430000D01*
X157617132Y-71257132D02*
X157617132Y-77430000D01*
X148660000Y-62300000D02*
X157617132Y-71257132D01*
X145980000Y-62300000D02*
X148660000Y-62300000D01*
X144780000Y-63500000D02*
X145980000Y-62300000D01*
%TO.N,/D32*%
X147320000Y-65765000D02*
X139425000Y-73660000D01*
X147320000Y-63500000D02*
X147320000Y-65765000D01*
%TO.N,GND*%
X120455000Y-72310000D02*
X119105000Y-73660000D01*
X133430000Y-72310000D02*
X120455000Y-72310000D01*
X142240000Y-63500000D02*
X133430000Y-72310000D01*
%TO.N,/D2*%
X119105000Y-104140000D02*
X124185000Y-99060000D01*
X116840000Y-104140000D02*
X119105000Y-104140000D01*
%TO.N,GND*%
X157871000Y-123594000D02*
X159745000Y-121720000D01*
X146379000Y-123594000D02*
X157871000Y-123594000D01*
X144505000Y-121720000D02*
X146379000Y-123594000D01*
X142631000Y-123594000D02*
X144505000Y-121720000D01*
X126414000Y-123594000D02*
X142631000Y-123594000D01*
X124540000Y-121720000D02*
X126414000Y-123594000D01*
X122666000Y-123594000D02*
X124540000Y-121720000D01*
X111174000Y-123594000D02*
X122666000Y-123594000D01*
X109300000Y-121720000D02*
X111174000Y-123594000D01*
%TO.N,/D5*%
X142631000Y-107346000D02*
X134345000Y-99060000D01*
X152871000Y-107346000D02*
X142631000Y-107346000D01*
X154745000Y-109220000D02*
X152871000Y-107346000D01*
%TO.N,/D17*%
X139505000Y-106760000D02*
X131805000Y-99060000D01*
X139505000Y-109220000D02*
X139505000Y-106760000D01*
%TO.N,/D16*%
X129540000Y-99335000D02*
X129265000Y-99060000D01*
X129540000Y-109220000D02*
X129540000Y-99335000D01*
%TO.N,/D4*%
X116565000Y-109220000D02*
X126725000Y-99060000D01*
X114300000Y-109220000D02*
X116565000Y-109220000D01*
%TO.N,GND*%
X109300000Y-109220000D02*
X109300000Y-108865000D01*
%TO.N,Net-(BZ1-+)*%
X121645000Y-63500000D02*
X128005000Y-63500000D01*
%TO.N,GND*%
X159745000Y-109220000D02*
X159745000Y-106680000D01*
X159745000Y-106680000D02*
X164825000Y-101600000D01*
X159745000Y-121720000D02*
X159745000Y-109220000D01*
%TO.N,/D5*%
X154745000Y-121720000D02*
X154745000Y-109220000D01*
%TO.N,GND*%
X144505000Y-121720000D02*
X144505000Y-109220000D01*
%TO.N,/D17*%
X139505000Y-121720000D02*
X139505000Y-109220000D01*
%TO.N,/D16*%
X129540000Y-121720000D02*
X129540000Y-109220000D01*
%TO.N,GND*%
X124540000Y-121720000D02*
X124540000Y-109220000D01*
%TO.N,/D4*%
X114300000Y-121720000D02*
X114300000Y-109220000D01*
%TO.N,GND*%
X109300000Y-121720000D02*
X109300000Y-109220000D01*
%TD*%
M02*
